<svg width="131" height="109" viewBox="0 0 131 109" fill="none" xmlns="http://www.w3.org/2000/svg">
    <path d="M92.7579 0.0402335C67.8448 -0.127663 54.5168 0.137329 52.7281 0.810262C51.8338 1.14673 50.9242 1.48454 50.0299 1.82101C50.5409 2.07319 51.0774 2.31458 51.5884 2.56676C52.6105 3.07146 53.4735 4.08457 54.2401 5.59834C55.0066 7.11244 55.3449 8.97008 55.2168 11.1568C55.0891 13.3431 54.6344 14.9358 53.8679 15.9449C53.1013 16.9539 51.8188 17.3642 50.0299 17.196C48.2412 17.0277 46.6087 16.2796 45.0756 14.9341C43.5425 13.5886 42.0616 11.8273 40.6562 9.64065C39.2508 7.45429 38.5394 5.59631 38.5394 4.08255C38.5394 3.32567 38.5397 2.57789 38.5394 1.82101C38.3477 1.82101 38.173 1.82101 37.9814 1.82101C37.5981 1.82101 37.0033 2.47236 36.2368 3.81789C35.4702 5.16342 35.097 6.6111 35.097 8.12487C35.097 9.63863 35.5517 11.4723 36.446 13.659C37.3403 15.8454 37.7138 17.462 37.5857 18.4711C37.458 19.4805 37.0033 19.9872 36.2368 19.9872C35.4702 19.9872 33.8142 18.9737 31.259 16.9553C28.7039 14.9371 26.3951 13.8273 24.3509 13.659C22.3068 13.4908 20.336 13.925 18.4196 14.9341C17.4614 15.4388 16.4934 15.9455 15.5352 16.4502C16.2379 16.8706 16.9494 17.2809 17.652 17.7014C19.0574 18.5422 20.0254 19.3867 20.5361 20.2276C21.0474 21.0687 21.2456 21.9854 21.1178 22.9948C20.9901 24.0039 20.4536 25.0173 19.5593 26.0264C18.665 27.0354 17.1491 28.0489 14.9769 29.0579C12.805 30.0673 10.3561 30.4776 7.67345 30.3094C4.99051 30.1412 3.07803 29.3206 1.9282 27.8068C1.35328 27.0499 0.781948 26.2779 0.207031 25.521C0.207031 25.8575 0.207031 26.1953 0.207031 26.5318C0.207031 27.2044 0.976521 28.7245 2.50963 31.0791C4.04274 33.434 6.0719 35.1953 8.62709 36.3726C11.1823 37.5502 13.7476 38.0566 16.3027 37.8887C18.8582 37.7205 21.4819 36.8034 24.1648 35.1214C26.8478 33.4394 28.7834 32.4985 29.9332 32.3306C31.0831 32.1623 32.0859 32.2588 32.9802 32.5952C33.8749 32.9314 34.586 33.5106 35.097 34.3514C35.6081 35.1926 35.8062 36.1335 35.6785 37.1426C35.5507 38.152 34.8976 39.2376 33.7481 40.4149C32.5979 41.5925 30.9423 42.6056 28.7704 43.4468C26.5984 44.2876 25.5135 44.8668 25.5138 45.2033C25.5138 45.5394 26.1435 46.0461 27.4211 46.7191C28.699 47.3917 30.7513 47.7295 33.562 47.7295C36.3727 47.7295 39.7661 46.9817 43.7266 45.4679C47.6872 43.9542 50.171 43.1818 51.1931 43.1821C52.2151 43.1821 53.2995 43.5196 54.4493 44.1925C55.5991 44.8655 56.5671 45.9511 57.3337 47.4648C58.1002 48.9786 58.4734 50.6677 58.4734 52.5176C58.4734 54.3678 58.2169 55.7912 57.7059 56.8006C57.1948 57.8097 56.4833 58.5817 55.589 59.0864C54.6947 59.5911 53.0391 59.76 50.6116 59.5918C48.1839 59.4236 46.4699 59.4957 45.4478 59.8322C44.4257 60.1686 43.1429 60.8443 41.6098 61.8533C40.0767 62.8627 38.6776 64.2861 37.3996 66.1364C36.7608 67.0615 36.1077 68.0024 35.4692 68.9276C36.1719 68.675 36.8831 68.4097 37.5857 68.1575C38.9914 67.6528 40.8456 67.4839 43.1449 67.6522C45.4449 67.8204 47.4154 68.4235 49.0762 69.4326C50.7371 70.442 52.5912 72.1068 54.6354 74.4614C56.6795 76.8163 58.0207 78.6015 58.6595 79.7791C59.2983 80.9564 59.6949 86.0712 59.8224 95.1541C59.9501 104.237 64.1483 108.773 72.4526 108.773C76.6051 108.773 80.7674 108.773 84.9196 108.773C84.9847 103.222 85.0434 97.6729 85.1053 92.1222C85.164 87.1895 85.2129 82.2578 85.2683 77.3247V69.1679H109.204C113.558 68.674 117.019 64.4527 117.019 59.1586V52.7825H85.2683V38.1773H85.2911C85.2911 37.9999 85.2911 37.8253 85.2911 37.648C85.2911 36.3024 85.4769 26.3372 85.4769 24.9917C89.6942 24.9917 93.9148 24.9917 98.1322 24.9917C106.564 24.9917 114.467 25.2665 120.858 14.838C127.246 4.40958 129.449 1.93597 129.766 1.26742C129.912 0.959611 130.075 0.641357 130.137 0.30489C117.681 0.220942 105.214 0.124519 92.7579 0.0402335Z" fill="#FF820F"/>
</svg>
