<svg width="175" height="143" viewBox="0 0 175 143" fill="none" xmlns="http://www.w3.org/2000/svg">
<path d="M122.813 4.06084C90.8308 3.85248 73.7208 4.18134 71.4246 5.01646C70.2765 5.43402 69.1088 5.85325 67.9607 6.27081C68.6167 6.58378 69.3054 6.88335 69.9615 7.19632C71.2736 7.82266 72.3815 9.07995 73.3655 10.9586C74.3496 12.8376 74.7839 15.143 74.6195 17.8567C74.4555 20.57 73.8718 22.5465 72.8877 23.7988C71.9037 25.0511 70.2573 25.5603 67.9607 25.3515C65.6645 25.1427 63.5687 24.2143 61.6006 22.5445C59.6324 20.8746 57.7312 18.6889 55.9271 15.9752C54.123 13.2618 53.2096 10.9561 53.2096 9.07744C53.2096 8.13813 53.21 7.21012 53.2096 6.27081C52.9636 6.27081 52.7393 6.27081 52.4933 6.27081C52.0013 6.27081 51.2377 7.07916 50.2536 8.749C49.2695 10.4188 48.7905 12.2154 48.7905 14.094C48.7905 15.9727 49.3741 18.2483 50.5222 20.9621C51.6703 23.6754 52.1498 25.6816 51.9854 26.9339C51.8213 28.1866 51.2377 28.8154 50.2536 28.8154C49.2695 28.8154 47.1436 27.5577 43.8634 25.0528C40.5832 22.5482 37.6192 21.1708 34.995 20.9621C32.3708 20.7533 29.8407 21.2922 27.3806 22.5445C26.1505 23.1708 24.9078 23.7996 23.6777 24.426C24.5798 24.9477 25.4932 25.4569 26.3952 25.9787C28.1994 27.0222 29.442 28.0703 30.0976 29.1137C30.7541 30.1576 31.0085 31.2953 30.8445 32.548C30.6805 33.8002 29.9918 35.0579 28.8437 36.3102C27.6956 37.5625 25.7496 38.8202 22.961 40.0724C20.1728 41.3251 17.0289 41.8343 13.5851 41.6255C10.1408 41.4168 7.68568 40.3984 6.20957 38.5198C5.47151 37.5805 4.73806 36.6223 4 35.683C4 36.1006 4 36.5198 4 36.9374C4 37.7721 4.98784 39.6587 6.95599 42.5808C8.92414 45.5033 11.5291 47.689 14.8094 49.15C18.0896 50.6115 21.3828 51.2399 24.6631 51.0316C27.9437 50.8228 31.3118 49.6848 34.7561 47.5974C38.2004 45.51 40.6852 44.3422 42.1614 44.1338C43.6375 43.9251 44.9249 44.0447 46.073 44.4623C47.2215 44.8794 48.1344 45.5982 48.7905 46.6417C49.4465 47.6856 49.7009 48.8534 49.5369 50.1057C49.3729 51.3583 48.5344 52.7056 47.0587 54.1666C45.5822 55.6281 43.4567 56.8854 40.6685 57.9293C37.8803 58.9728 36.4874 59.6916 36.4879 60.1092C36.4879 60.5263 37.2962 61.1552 38.9363 61.9903C40.5769 62.825 43.2115 63.2442 46.8198 63.2442C50.4281 63.2442 54.7844 62.3162 59.8688 60.4376C64.9532 58.559 68.1418 57.6004 69.4539 57.6009C70.766 57.6009 72.1581 58.0197 73.6342 58.8548C75.1103 59.6899 76.3529 61.0372 77.337 62.9158C78.3211 64.7944 78.8001 66.8906 78.8001 69.1863C78.8001 71.4825 78.4709 73.249 77.8148 74.5017C77.1588 75.7539 76.2454 76.7121 75.0973 77.3384C73.9492 77.9648 71.8237 78.1744 68.7075 77.9656C65.5909 77.7568 63.3905 77.8464 62.0784 78.2639C60.7663 78.6815 59.1195 79.52 57.1513 80.7722C55.1832 82.0249 53.387 83.7914 51.7465 86.0876C50.9264 87.2356 50.0879 88.4034 49.2683 89.5515C50.1703 89.2381 51.0833 88.9088 51.9854 88.5959C53.7899 87.9695 56.1702 87.7599 59.122 87.9687C62.0746 88.1775 64.6043 88.926 66.7364 90.1783C68.8686 91.431 71.2489 93.497 73.8731 96.4191C76.4973 99.3416 78.219 101.557 79.0391 103.019C79.8591 104.48 80.3683 110.827 80.5319 122.099C80.6959 133.371 86.0853 139 96.7461 139C102.077 139 107.42 139 112.751 139C112.834 132.112 112.91 125.225 112.989 118.337C113.065 112.215 113.127 106.095 113.198 99.9726V89.8498H143.926C149.515 89.2369 153.959 83.9981 153.959 77.428V69.5152H113.198V51.3897H113.228C113.228 51.1696 113.228 50.9529 113.228 50.7328C113.228 49.063 113.466 36.696 113.466 35.0261C118.88 35.0261 124.299 35.0261 129.713 35.0261C140.537 35.0261 150.683 35.3671 158.888 22.4252C167.088 9.48329 169.917 6.41349 170.322 5.5838C170.511 5.20181 170.72 4.80685 170.799 4.38928C154.808 4.2851 138.804 4.16544 122.813 4.06084Z" stroke="#FDAB19" stroke-width="7.84344" stroke-miterlimit="10" stroke-linejoin="round"/>
</svg>
