<svg width="22" height="22" viewBox="0 0 22 22" fill="none" xmlns="http://www.w3.org/2000/svg">
<path d="M0 11C0 4.92487 4.92487 0 11 0C17.0751 0 22 4.92487 22 11C22 17.0751 17.0751 22 11 22C4.92487 22 0 17.0751 0 11Z" fill="#171A1E"/>
<path d="M0.5 11C0.5 5.20101 5.20101 0.5 11 0.5C16.799 0.5 21.5 5.20101 21.5 11C21.5 16.799 16.799 21.5 11 21.5C5.20101 21.5 0.5 16.799 0.5 11Z" stroke="white" stroke-opacity="0.4"/>
<path fill-rule="evenodd" clip-rule="evenodd" d="M11.8891 11.0002L15.216 7.67321C15.4618 7.42744 15.4618 7.03019 15.216 6.78442C14.9703 6.53866 14.573 6.53866 14.3273 6.78442L11.0003 10.1114L7.67343 6.78442C7.42767 6.53866 7.03043 6.53866 6.78466 6.78442C6.5389 7.03019 6.5389 7.42744 6.78466 7.67321L10.1116 11.0002L6.78466 14.3271C6.5389 14.5729 6.5389 14.9702 6.78466 15.2159C6.90723 15.3385 7.06814 15.4001 7.22905 15.4001C7.38996 15.4001 7.55086 15.3385 7.67343 15.2159L11.0003 11.889L14.3273 15.2159C14.4498 15.3385 14.6107 15.4001 14.7716 15.4001C14.9325 15.4001 15.0935 15.3385 15.216 15.2159C15.4618 14.9702 15.4618 14.5729 15.216 14.3271L11.8891 11.0002Z" fill="white" fill-opacity="0.4"/>
</svg>
