<svg width="11" height="12" viewBox="0 0 11 12" fill="none" xmlns="http://www.w3.org/2000/svg">
<path d="M9.6875 2.73347C8.0225 2.55511 6.3475 2.46322 4.6775 2.46322C3.6875 2.46322 2.6975 2.51727 1.7075 2.62537L0.6875 2.73347M3.4375 2.18758L3.5475 1.47954C3.6275 0.966081 3.6875 0.582336 4.5325 0.582336H5.8425C6.6875 0.582336 6.7525 0.9877 6.8275 1.48495L6.9375 2.18758M8.6125 4.4414L8.2875 9.88408C8.2325 10.7326 8.1875 11.392 6.7925 11.392H3.5825C2.1875 11.392 2.1425 10.7326 2.0875 9.88408L1.7625 4.4414M4.3525 8.41937H6.0175M3.9375 6.25743H6.4375" stroke="#00A76B" stroke-linecap="round" stroke-linejoin="round"/>
</svg>
