<svg width="18" height="21" viewBox="0 0 18 21" fill="none" xmlns="http://www.w3.org/2000/svg">
<path d="M0.176758 19.5185C0.176758 19.7788 0.280149 20.0284 0.464161 20.2126C0.648345 20.3966 0.897919 20.5 1.15829 20.5H11.1876C11.4479 20.5 11.6977 20.3966 11.8817 20.2126C12.0659 20.0284 12.1693 19.7788 12.1693 19.5185V16.0633C12.1693 15.7125 11.9822 15.3885 11.6783 15.2132C11.3747 15.0378 11.0005 15.0378 10.6968 15.2132C10.3932 15.3885 10.2061 15.7126 10.2061 16.0633V18.5368H2.13998V2.46325H10.2061V4.93672C10.2061 5.28746 10.3932 5.61147 10.6968 5.78676C11.0005 5.96221 11.3747 5.96221 11.6783 5.78676C11.9822 5.61147 12.1693 5.28742 12.1693 4.93672V1.48153C12.1693 1.22117 12.0659 0.971583 11.8817 0.787404C11.6977 0.603391 11.4479 0.5 11.1876 0.5H1.15829C0.897927 0.5 0.648341 0.603391 0.464161 0.787404C0.280149 0.971587 0.176758 1.22116 0.176758 1.48153V19.5185Z" fill="#717273"/>
<path d="M17.724 9.82777L14.3424 6.23516C14.1022 5.97959 13.7438 5.87158 13.4025 5.95186C13.061 6.03214 12.7883 6.2884 12.6872 6.62425C12.586 6.9601 12.6716 7.32438 12.9117 7.57994L14.7277 9.51867H5.9815C5.63093 9.51867 5.30688 9.70576 5.13146 10.0094C4.95618 10.3131 4.95618 10.6873 5.13146 10.9909C5.30692 11.2946 5.63093 11.4817 5.9815 11.4817H14.7277L12.9117 13.4204C12.6716 13.676 12.586 14.0402 12.6872 14.3761C12.7883 14.7119 13.061 14.9682 13.4025 15.0485C13.7438 15.1287 14.1023 15.0207 14.3424 14.7652L17.724 11.1726C17.8951 10.9906 17.9905 10.7501 17.9905 10.5002C17.9905 10.2502 17.8951 10.0098 17.724 9.82779V9.82777Z" fill="#717273"/>
</svg>
