<svg width="21" height="21" viewBox="0 0 21 21" fill="none" xmlns="http://www.w3.org/2000/svg">
<circle cx="10.0793" cy="10.9207" r="10.0793" fill="#45484B"/>
<path d="M10.0794 16.9654C10.0222 16.9654 9.96597 16.9507 9.91606 16.9228C8.89991 16.3276 7.94622 15.6317 7.06941 14.8455C5.14705 13.1154 4.17236 11.3912 4.17236 9.72088C4.17256 9.02952 4.39437 8.35644 4.80523 7.80042C5.2161 7.24439 5.79437 6.83471 6.45519 6.63151C7.11601 6.42831 7.82456 6.44229 8.47685 6.67139C9.12914 6.90049 9.69081 7.33266 10.0794 7.90445C10.468 7.33266 11.0297 6.90049 11.682 6.67139C12.3343 6.44229 13.0429 6.42831 13.7037 6.63151C14.3645 6.83471 14.9428 7.24439 15.3536 7.80042C15.7645 8.35644 15.9863 9.02952 15.9865 9.72088C15.9865 11.3912 15.0118 13.1154 13.0895 14.8455C12.2126 15.6317 11.259 16.3276 10.2428 16.9228C10.1929 16.9507 10.1366 16.9654 10.0794 16.9654ZM7.40453 7.15743C6.7249 7.1582 6.07333 7.42853 5.59275 7.9091C5.11218 8.38967 4.84186 9.04125 4.84109 9.72088C4.84109 12.9155 9.17588 15.698 10.0794 16.243C10.983 15.698 15.3178 12.9155 15.3178 9.72088C15.3177 9.12838 15.1123 8.55421 14.7367 8.09598C14.3611 7.63776 13.8384 7.32376 13.2575 7.20738C12.6765 7.091 12.0732 7.17942 11.55 7.45761C11.0269 7.73579 10.6163 8.18657 10.3879 8.73331C10.3625 8.79416 10.3197 8.84614 10.2648 8.8827C10.2099 8.91925 10.1454 8.93876 10.0794 8.93876C10.0135 8.93876 9.949 8.91925 9.8941 8.8827C9.8392 8.84614 9.79635 8.79416 9.77092 8.73331C9.57657 8.26604 9.248 7.8669 8.82678 7.58639C8.40556 7.30589 7.91061 7.1566 7.40453 7.15743Z" fill="white"/>
</svg>
