<svg width="21" height="21" viewBox="0 0 21 21" fill="none" xmlns="http://www.w3.org/2000/svg">
<circle cx="10.08" cy="10.08" r="10.08" fill="#ffa01c"/>
<mask id="path-2-inside-1_418_3960" fill="white">
<path d="M10.0562 16.0873C9.99914 16.0873 9.94301 16.0727 9.89321 16.0448C8.87938 15.4509 7.92786 14.7566 7.05305 13.9722C5.13506 12.2461 4.1626 10.5258 4.1626 8.85927C4.1628 8.16949 4.3841 7.49794 4.79403 6.94318C5.20395 6.38842 5.78091 5.97968 6.44023 5.77694C7.09954 5.5742 7.80648 5.58815 8.45728 5.81673C9.10809 6.04531 9.66848 6.47649 10.0562 7.04698C10.4439 6.47649 11.0043 6.04531 11.6551 5.81673C12.3059 5.58815 13.0129 5.5742 13.6722 5.77694C14.3315 5.97968 14.9085 6.38842 15.3184 6.94318C15.7283 7.49794 15.9496 8.16949 15.9498 8.85927C15.9498 10.5258 14.9774 12.2461 13.0594 13.9722C12.1846 14.7566 11.233 15.4509 10.2192 16.0448C10.1694 16.0727 10.1133 16.0873 10.0562 16.0873ZM7.38741 6.30166C6.70932 6.30243 6.05923 6.57214 5.57975 7.05162C5.10028 7.5311 4.83057 8.18119 4.8298 8.85927C4.8298 12.0466 9.15472 14.8228 10.0562 15.3666C10.9577 14.8228 15.2826 12.0466 15.2826 8.85927C15.2825 8.26812 15.0777 7.69526 14.7029 7.23807C14.3282 6.78089 13.8066 6.46761 13.227 6.3515C12.6474 6.23538 12.0454 6.3236 11.5235 6.60115C11.0015 6.8787 10.5918 7.32846 10.364 7.87395C10.3387 7.93466 10.2959 7.98652 10.2411 8.023C10.1864 8.05947 10.122 8.07893 10.0562 8.07893C9.99041 8.07893 9.92608 8.05947 9.8713 8.023C9.81653 7.98652 9.77377 7.93466 9.7484 7.87395C9.5545 7.40774 9.22668 7.00952 8.80642 6.72965C8.38616 6.44978 7.89233 6.30084 7.38741 6.30166Z"/>
</mask>
<path d="M10.0562 16.0873C9.99914 16.0873 9.94301 16.0727 9.89321 16.0448C8.87938 15.4509 7.92786 14.7566 7.05305 13.9722C5.13506 12.2461 4.1626 10.5258 4.1626 8.85927C4.1628 8.16949 4.3841 7.49794 4.79403 6.94318C5.20395 6.38842 5.78091 5.97968 6.44023 5.77694C7.09954 5.5742 7.80648 5.58815 8.45728 5.81673C9.10809 6.04531 9.66848 6.47649 10.0562 7.04698C10.4439 6.47649 11.0043 6.04531 11.6551 5.81673C12.3059 5.58815 13.0129 5.5742 13.6722 5.77694C14.3315 5.97968 14.9085 6.38842 15.3184 6.94318C15.7283 7.49794 15.9496 8.16949 15.9498 8.85927C15.9498 10.5258 14.9774 12.2461 13.0594 13.9722C12.1846 14.7566 11.233 15.4509 10.2192 16.0448C10.1694 16.0727 10.1133 16.0873 10.0562 16.0873ZM7.38741 6.30166C6.70932 6.30243 6.05923 6.57214 5.57975 7.05162C5.10028 7.5311 4.83057 8.18119 4.8298 8.85927C4.8298 12.0466 9.15472 14.8228 10.0562 15.3666C10.9577 14.8228 15.2826 12.0466 15.2826 8.85927C15.2825 8.26812 15.0777 7.69526 14.7029 7.23807C14.3282 6.78089 13.8066 6.46761 13.227 6.3515C12.6474 6.23538 12.0454 6.3236 11.5235 6.60115C11.0015 6.8787 10.5918 7.32846 10.364 7.87395C10.3387 7.93466 10.2959 7.98652 10.2411 8.023C10.1864 8.05947 10.122 8.07893 10.0562 8.07893C9.99041 8.07893 9.92608 8.05947 9.8713 8.023C9.81653 7.98652 9.77377 7.93466 9.7484 7.87395C9.5545 7.40774 9.22668 7.00952 8.80642 6.72965C8.38616 6.44978 7.89233 6.30084 7.38741 6.30166Z" fill="#D9D9D9"/>
<path d="M10.0562 16.0873L10.0563 15.0873H10.0561L10.0562 16.0873ZM9.89321 16.0448L9.3878 16.9076L9.39609 16.9125L9.40448 16.9172L9.89321 16.0448ZM7.05305 13.9722L6.38409 14.7155L6.38549 14.7168L7.05305 13.9722ZM4.1626 8.85927L3.1626 8.85898V8.85927H4.1626ZM10.0562 7.04698L9.22915 7.60909L10.0562 8.82599L10.8833 7.60909L10.0562 7.04698ZM15.9498 8.85927H16.9498V8.85898L15.9498 8.85927ZM13.0594 13.9722L13.7269 14.7168L13.7283 14.7155L13.0594 13.9722ZM10.2192 16.0448L10.708 16.9172L10.7163 16.9125L10.7246 16.9076L10.2192 16.0448ZM7.38741 6.30166L7.38854 7.30166L7.38905 7.30166L7.38741 6.30166ZM4.8298 8.85927L3.8298 8.85814V8.85927H4.8298ZM10.0562 15.3666L9.53969 16.2228L10.0562 16.5344L10.5727 16.2228L10.0562 15.3666ZM15.2826 8.85927H16.2826V8.85908L15.2826 8.85927ZM10.364 7.87395L11.2867 8.2595L11.2868 8.25932L10.364 7.87395ZM9.7484 7.87395L8.82508 8.25798L8.82572 8.2595L9.7484 7.87395ZM10.0561 15.0873C10.1702 15.0873 10.2824 15.1166 10.3819 15.1723L9.40448 16.9172C9.60363 17.0288 9.82808 17.0873 10.0563 17.0873L10.0561 15.0873ZM10.3986 15.1819C9.44267 14.6219 8.54548 13.9673 7.7206 13.2277L6.38549 14.7168C7.31025 15.5459 8.31609 16.2799 9.3878 16.9076L10.3986 15.1819ZM7.72201 13.2289C5.90015 11.5893 5.1626 10.1181 5.1626 8.85927H3.1626C3.1626 10.9336 4.36997 12.9029 6.38409 14.7155L7.72201 13.2289ZM5.1626 8.85956C5.16273 8.38361 5.31543 7.92025 5.59828 7.53747L3.98977 6.34889C3.45277 7.07563 3.16286 7.95537 3.1626 8.85898L5.1626 8.85956ZM5.59828 7.53747C5.88113 7.15469 6.27923 6.87266 6.73415 6.73277L6.14631 4.82111C5.2826 5.0867 4.52678 5.62216 3.98977 6.34889L5.59828 7.53747ZM6.73415 6.73277C7.18907 6.59288 7.67685 6.6025 8.1259 6.76022L8.78867 4.87323C7.93611 4.57379 7.01001 4.55552 6.14631 4.82111L6.73415 6.73277ZM8.1259 6.76022C8.57495 6.91794 8.96162 7.21545 9.22915 7.60909L10.8833 6.48487C10.3753 5.73752 9.64122 5.17267 8.78867 4.87323L8.1259 6.76022ZM10.8833 7.60909C11.1508 7.21545 11.5375 6.91794 11.9865 6.76022L11.3238 4.87323C10.4712 5.17267 9.73708 5.73752 9.22915 6.48487L10.8833 7.60909ZM11.9865 6.76022C12.4356 6.6025 12.9234 6.59288 13.3783 6.73277L13.9661 4.82111C13.1024 4.55552 12.1763 4.57379 11.3238 4.87323L11.9865 6.76022ZM13.3783 6.73277C13.8332 6.87266 14.2313 7.15469 14.5141 7.53747L16.1227 6.34889C15.5856 5.62216 14.8298 5.0867 13.9661 4.82111L13.3783 6.73277ZM14.5141 7.53747C14.797 7.92025 14.9497 8.38361 14.9498 8.85956L16.9498 8.85898C16.9496 7.95537 16.6597 7.07563 16.1227 6.34889L14.5141 7.53747ZM14.9498 8.85927C14.9498 10.1181 14.2123 11.5893 12.3904 13.2289L13.7283 14.7155C15.7425 12.9029 16.9498 10.9336 16.9498 8.85927H14.9498ZM12.3918 13.2277C11.567 13.9672 10.6698 14.6219 9.7138 15.1819L10.7246 16.9076C11.7963 16.2799 12.8022 15.5459 13.7269 14.7168L12.3918 13.2277ZM9.73048 15.1723C9.83003 15.1166 9.94224 15.0873 10.0563 15.0873L10.0561 17.0873C10.2843 17.0873 10.5088 17.0288 10.708 16.9172L9.73048 15.1723ZM7.38627 5.30166C6.44337 5.30273 5.53938 5.67777 4.87265 6.34451L6.28686 7.75872C6.57908 7.4665 6.97528 7.30213 7.38854 7.30166L7.38627 5.30166ZM4.87265 6.34451C4.20591 7.01125 3.83087 7.91523 3.8298 8.85814L5.8298 8.8604C5.83027 8.44714 5.99464 8.05094 6.28686 7.75872L4.87265 6.34451ZM3.8298 8.85927C3.8298 10.8814 5.17511 12.623 6.40797 13.8213C7.6808 15.0585 9.061 15.9341 9.53969 16.2228L10.5727 14.5103C10.1499 14.2552 8.91692 13.4709 7.80193 12.3871C6.64695 11.2646 5.8298 10.0244 5.8298 8.85927H3.8298ZM10.5727 16.2228C11.0514 15.9341 12.4316 15.0585 13.7045 13.8213C14.9373 12.623 16.2826 10.8814 16.2826 8.85927H14.2826C14.2826 10.0244 13.4655 11.2646 12.3105 12.3871C11.1955 13.4709 9.96249 14.2552 9.53969 14.5103L10.5727 16.2228ZM16.2826 8.85908C16.2825 8.03684 15.9975 7.24004 15.4763 6.60413L13.9295 7.87202C14.1578 8.15048 14.2826 8.4994 14.2826 8.85946L16.2826 8.85908ZM15.4763 6.60413C14.955 5.96823 14.2296 5.53248 13.4234 5.37098L13.0306 7.33201C13.3836 7.40274 13.7013 7.59355 13.9295 7.87202L15.4763 6.60413ZM13.4234 5.37098C12.6172 5.20947 11.7799 5.33217 11.054 5.71823L11.993 7.48408C12.3109 7.31502 12.6775 7.26129 13.0306 7.33201L13.4234 5.37098ZM11.054 5.71823C10.328 6.10428 9.75812 6.72985 9.44126 7.48858L11.2868 8.25932C11.4255 7.92707 11.6751 7.65313 11.993 7.48408L11.054 5.71823ZM9.44133 7.4884C9.49202 7.36711 9.57743 7.26352 9.68684 7.19067L10.7954 8.85533C11.0144 8.70952 11.1853 8.50222 11.2867 8.2595L9.44133 7.4884ZM9.68684 7.19067C9.79625 7.1178 9.92477 7.07893 10.0562 7.07893V9.07893C10.3193 9.07893 10.5765 9.00113 10.7954 8.85533L9.68684 7.19067ZM10.0562 7.07893C10.1877 7.07893 10.3162 7.11781 10.4256 7.19067L9.31702 8.85533C9.53597 9.00113 9.79316 9.07893 10.0562 9.07893V7.07893ZM10.4256 7.19067C10.535 7.26352 10.6204 7.36711 10.6711 7.4884L8.82572 8.2595C8.92714 8.50222 9.09808 8.70952 9.31702 8.85533L10.4256 7.19067ZM10.6717 7.48992C10.4019 6.84107 9.94561 6.28683 9.3607 5.89732L8.25214 7.56198C8.50775 7.7322 8.70714 7.97442 8.82508 8.25798L10.6717 7.48992ZM9.3607 5.89732C8.77579 5.5078 8.0885 5.30051 7.38577 5.30166L7.38905 7.30166C7.69616 7.30116 7.99652 7.39175 8.25214 7.56198L9.3607 5.89732Z" fill="white" mask="url(#path-2-inside-1_418_3960)"/>
<path d="M4.77393 7.52612L6.21718 6.2467H6.34846L8.4152 6.50915L9.95706 7.52612L11.0724 6.96842L11.8598 6.2467H12.6143L13.7297 6.50915L14.5826 6.96842L14.9763 7.85417L15.4684 9.03517L14.9763 10.5114L14.3858 11.5284L13.7297 12.3485L12.6143 13.8576L11.3021 15.0386L10.2523 15.4978L9.16973 15.0386L7.59507 13.8576L6.21718 12.3485L4.77393 10.1506V7.52612Z" fill="white" stroke="white" stroke-width="0.6"/>
</svg>
