<svg width="25" height="26" viewBox="0 0 25 26" fill="none" xmlns="http://www.w3.org/2000/svg">
<circle cx="12.5" cy="13" r="12.5" fill="#ffa01c"/>
<path d="M12.4998 20.4958C12.4289 20.4958 12.3591 20.4776 12.2972 20.4429C11.0372 19.7049 9.85454 18.8419 8.76726 17.8671C6.38345 15.7217 5.1748 13.5836 5.1748 11.5123C5.17505 10.655 5.4501 9.82033 5.95959 9.13084C6.46907 8.44135 7.18616 7.93333 8.0056 7.68136C8.82504 7.42938 9.70368 7.44671 10.5125 7.73081C11.3214 8.0149 12.0179 8.5508 12.4998 9.25985C12.9817 8.5508 13.6782 8.0149 14.4871 7.73081C15.2959 7.44671 16.1746 7.42938 16.994 7.68136C17.8134 7.93333 18.5305 8.44135 19.04 9.13084C19.5495 9.82033 19.8246 10.655 19.8248 11.5123C19.8248 13.5836 18.6162 15.7217 16.2324 17.8671C15.1451 18.8419 13.9625 19.7049 12.7024 20.4429C12.6405 20.4776 12.5707 20.4958 12.4998 20.4958ZM9.18282 8.33352C8.34005 8.33447 7.53207 8.66969 6.93615 9.26561C6.34022 9.86154 6.00501 10.6695 6.00405 11.5123C6.00405 15.4737 11.3794 18.9241 12.4998 19.6C13.6202 18.9241 18.9956 15.4737 18.9956 11.5123C18.9954 10.7776 18.7408 10.0656 18.2751 9.49736C17.8093 8.92914 17.1611 8.53977 16.4407 8.39545C15.7203 8.25114 14.9721 8.36078 14.3234 8.70574C13.6747 9.05071 13.1655 9.60969 12.8824 10.2877C12.8508 10.3631 12.7977 10.4276 12.7296 10.4729C12.6615 10.5182 12.5816 10.5424 12.4998 10.5424C12.418 10.5424 12.3381 10.5182 12.27 10.4729C12.2019 10.4276 12.1488 10.3631 12.1172 10.2877C11.8762 9.70823 11.4688 9.21329 10.9465 8.86545C10.4241 8.5176 9.81038 8.33249 9.18282 8.33352Z" fill="white"/>
<path d="M5.93359 9.85483L7.72754 8.26453H7.89073L10.4597 8.59074L12.3762 9.85483L13.7626 9.16162L14.7412 8.26453H15.6791L17.0655 8.59074L18.1257 9.16162L18.615 10.2626L19.2267 11.7306L18.615 13.5655L17.8811 14.8296L17.0655 15.849L15.6791 17.7248L14.048 19.1927L12.7432 19.7636L11.3975 19.1927L9.44025 17.7248L7.72754 15.849L5.93359 13.117V9.85483Z" fill="white" stroke="white" stroke-width="0.6"/>
</svg>
