<svg width="22" height="22" viewBox="0 0 22 22" fill="none" xmlns="http://www.w3.org/2000/svg">
<path d="M17.322 8.65875V11.7987C17.322 11.9987 17.312 12.1988 17.292 12.3888C17.112 14.5087 15.862 15.5688 13.562 15.5688H13.252C13.052 15.5688 12.862 15.6588 12.752 15.8188L11.812 17.0788C11.392 17.6388 10.722 17.6388 10.302 17.0788L9.36199 15.8188C9.23489 15.6726 9.05514 15.5828 8.86199 15.5688H8.55199C6.04199 15.5688 4.79199 14.9488 4.79199 11.8088V8.66875C4.79199 6.36875 5.85199 5.11875 7.97199 4.93875C8.16199 4.91875 8.36199 4.90875 8.56199 4.90875H13.592C16.062 4.89875 17.322 6.15875 17.322 8.65875Z" stroke="#717273" stroke-width="1.5" stroke-miterlimit="10" stroke-linecap="round" stroke-linejoin="round"/>
<path d="M8.04199 20.8987H14.042C19.042 20.8987 21.042 18.8987 21.042 13.8987V7.89868C21.042 2.89868 19.042 0.898682 14.042 0.898682H8.04199C3.04199 0.898682 1.04199 2.89868 1.04199 7.89868V13.8987C1.04199 18.8987 3.04199 20.8987 8.04199 20.8987Z" stroke="#717273" stroke-width="1.5" stroke-linecap="round" stroke-linejoin="round"/>
</svg>
