<svg width="12" height="12" viewBox="0 0 12 12" fill="none" xmlns="http://www.w3.org/2000/svg">
<path d="M2.02203 7.5858L1.20821 10.7266C1.19287 10.7858 1.18521 10.8154 1.18878 10.8365C1.19607 10.8795 1.23037 10.9128 1.27355 10.9188C1.29473 10.9218 1.32408 10.9132 1.38279 10.8962L4.4972 9.99145M2.02203 7.5858L4.4972 9.99145M2.02203 7.5858L7.60956 1.93585M4.4972 9.99145L10.1162 4.45525M7.60956 1.93585L8.20933 1.32938C8.91187 0.618989 10.0654 0.619289 10.7865 1.31083V1.31083C11.4933 1.9886 11.4853 3.10635 10.7877 3.79361L10.1162 4.45525M7.60956 1.93585L10.1162 4.45525" stroke="#747678" stroke-opacity="0.8" stroke-width="0.6"/>
</svg>
