<svg width="22" height="22" viewBox="0 0 22 22" fill="none" xmlns="http://www.w3.org/2000/svg">
<path d="M21.012 17.2287C21.012 17.5887 20.932 17.9587 20.762 18.3187C20.592 18.6787 20.372 19.0187 20.082 19.3387C19.592 19.8787 19.052 20.2687 18.442 20.5187C17.842 20.7687 17.192 20.8987 16.492 20.8987C15.472 20.8987 14.382 20.6587 13.232 20.1687C12.082 19.6787 10.932 19.0187 9.79199 18.1887C8.6301 17.3388 7.53368 16.4028 6.51199 15.3887C5.50076 14.3707 4.56809 13.2776 3.72199 12.1187C2.90199 10.9787 2.24199 9.83868 1.76199 8.70868C1.28199 7.56868 1.04199 6.47868 1.04199 5.43868C1.04199 4.75868 1.16199 4.10868 1.40199 3.50868C1.64199 2.89868 2.02199 2.33868 2.55199 1.83868C3.19199 1.20868 3.89199 0.898682 4.63199 0.898682C4.91199 0.898682 5.19199 0.958682 5.44199 1.07868C5.70199 1.19868 5.93199 1.37868 6.11199 1.63868L8.43199 4.90868C8.61199 5.15868 8.74199 5.38868 8.83199 5.60868C8.92199 5.81868 8.97199 6.02868 8.97199 6.21868C8.97199 6.45868 8.90199 6.69868 8.76199 6.92868C8.63199 7.15868 8.44199 7.39868 8.20199 7.63868L7.44199 8.42868C7.33199 8.53868 7.28199 8.66868 7.28199 8.82868C7.28199 8.90868 7.29199 8.97868 7.31199 9.05868C7.34199 9.13868 7.37199 9.19868 7.39199 9.25868C7.57199 9.58868 7.88199 10.0187 8.32199 10.5387C8.77199 11.0587 9.25199 11.5887 9.77199 12.1187C10.312 12.6487 10.832 13.1387 11.362 13.5887C11.882 14.0287 12.312 14.3287 12.652 14.5087C12.702 14.5287 12.762 14.5587 12.832 14.5887C12.912 14.6187 12.992 14.6287 13.082 14.6287C13.252 14.6287 13.382 14.5687 13.492 14.4587L14.252 13.7087C14.502 13.4587 14.742 13.2687 14.972 13.1487C15.202 13.0087 15.432 12.9387 15.682 12.9387C15.872 12.9387 16.072 12.9787 16.292 13.0687C16.512 13.1587 16.742 13.2887 16.992 13.4587L20.302 15.8087C20.562 15.9887 20.742 16.1987 20.852 16.4487C20.952 16.6987 21.012 16.9487 21.012 17.2287Z" stroke="#717273" stroke-width="1.5" stroke-miterlimit="10"/>
</svg>
