<svg width="15" height="15" viewBox="0 0 15 15" fill="none" xmlns="http://www.w3.org/2000/svg">
<path fill-rule="evenodd" clip-rule="evenodd" d="M8.28768 6.69317L8.28763 1.19872C8.28762 0.792844 7.95959 0.464815 7.55371 0.464811C7.14783 0.464807 6.81981 0.79283 6.81981 1.19871L6.81986 6.69315L1.32542 6.6931C0.91954 6.6931 0.591516 7.02112 0.59152 7.427C0.591524 7.83289 0.919553 8.16091 1.32543 8.16092L6.81988 8.16097L6.81992 13.6554C6.81993 14.0613 7.14796 14.3893 7.55384 14.3893C7.75626 14.3893 7.93999 14.3073 8.07286 14.1744C8.20574 14.0416 8.28774 13.8578 8.28774 13.6554L8.28769 8.16098L13.7821 8.16103C13.9846 8.16103 14.1683 8.07903 14.3012 7.94616C14.434 7.81329 14.516 7.62955 14.516 7.42713C14.516 7.02125 14.188 6.69322 13.7821 6.69322L8.28768 6.69317Z" fill="white" fill-opacity="0.4"/>
</svg>
