<svg width="12" height="12" viewBox="0 0 12 12" fill="none" xmlns="http://www.w3.org/2000/svg">
<ellipse cx="5.72168" cy="6" rx="5.65332" ry="6" fill="white" fill-opacity="0.07"/>
<path d="M5.92343 6.90381H5.28164C5.28394 6.66943 5.30349 6.47778 5.3403 6.32886C5.3794 6.17749 5.44266 6.03955 5.53008 5.91504C5.61749 5.79053 5.73366 5.64893 5.87858 5.49023C5.98439 5.37549 6.08101 5.26807 6.16842 5.16797C6.25813 5.06543 6.33059 4.95557 6.3858 4.83838C6.44101 4.71875 6.46861 4.57593 6.46861 4.40991C6.46861 4.24146 6.43986 4.09619 6.38235 3.97412C6.32714 3.85205 6.24433 3.75806 6.13392 3.69214C6.0258 3.62622 5.89123 3.59326 5.73021 3.59326C5.59679 3.59326 5.47027 3.6189 5.35065 3.67017C5.23103 3.72144 5.13442 3.80078 5.06081 3.9082C4.98719 4.01318 4.94924 4.15112 4.94694 4.32202H4.30859C4.31319 4.04614 4.3776 3.80933 4.50182 3.61157C4.62834 3.41382 4.79857 3.26245 5.0125 3.15747C5.22643 3.05249 5.46567 3 5.73021 3C6.02235 3 6.27079 3.05615 6.47552 3.16846C6.68255 3.28076 6.84012 3.44189 6.94824 3.65186C7.05635 3.85938 7.11041 4.10596 7.11041 4.3916C7.11041 4.61133 7.06785 4.81396 6.98274 4.99951C6.89993 5.18262 6.79296 5.35474 6.66184 5.51587C6.53072 5.677 6.39155 5.83081 6.24433 5.97729C6.11781 6.10181 6.0327 6.24219 5.98899 6.39844C5.94529 6.55469 5.92343 6.72314 5.92343 6.90381ZM5.25403 8.0647C5.25403 7.95483 5.28624 7.86206 5.35065 7.78638C5.41506 7.71069 5.50822 7.67285 5.63014 7.67285C5.75436 7.67285 5.84867 7.71069 5.91308 7.78638C5.97749 7.86206 6.0097 7.95483 6.0097 8.0647C6.0097 8.16968 5.97749 8.26001 5.91308 8.33569C5.84867 8.41138 5.75436 8.44922 5.63014 8.44922C5.50822 8.44922 5.41506 8.41138 5.35065 8.33569C5.28624 8.26001 5.25403 8.16968 5.25403 8.0647Z" fill="white" fill-opacity="0.2"/>
</svg>
