<svg width="25" height="24" viewBox="0 0 25 24" fill="none" xmlns="http://www.w3.org/2000/svg">
<path d="M12.4004 15C13.196 15 13.9591 14.6839 14.5217 14.1213C15.0843 13.5587 15.4004 12.7956 15.4004 12C15.4004 11.2044 15.0843 10.4413 14.5217 9.87868C13.9591 9.31607 13.196 9 12.4004 9C11.6047 9 10.8417 9.31607 10.2791 9.87868C9.71646 10.4413 9.40039 11.2044 9.40039 12C9.40039 12.7956 9.71646 13.5587 10.2791 14.1213C10.8417 14.6839 11.6047 15 12.4004 15Z" stroke="#333539" stroke-miterlimit="10" stroke-linecap="round" stroke-linejoin="round"/>
<path d="M2.40039 12.8801V11.1201C2.40039 10.0801 3.25039 9.22006 4.30039 9.22006C6.11039 9.22006 6.85039 7.94006 5.94039 6.37006C5.42039 5.47006 5.73039 4.30006 6.64039 3.78006L8.37039 2.79006C9.16039 2.32006 10.1804 2.60006 10.6504 3.39006L10.7604 3.58006C11.6604 5.15006 13.1404 5.15006 14.0504 3.58006L14.1604 3.39006C14.6304 2.60006 15.6504 2.32006 16.4404 2.79006L18.1704 3.78006C19.0804 4.30006 19.3904 5.47006 18.8704 6.37006C17.9604 7.94006 18.7004 9.22006 20.5104 9.22006C21.5504 9.22006 22.4104 10.0701 22.4104 11.1201V12.8801C22.4104 13.9201 21.5604 14.7801 20.5104 14.7801C18.7004 14.7801 17.9604 16.0601 18.8704 17.6301C19.3904 18.5401 19.0804 19.7001 18.1704 20.2201L16.4404 21.2101C15.6504 21.6801 14.6304 21.4001 14.1604 20.6101L14.0504 20.4201C13.1504 18.8501 11.6704 18.8501 10.7604 20.4201L10.6504 20.6101C10.1804 21.4001 9.16039 21.6801 8.37039 21.2101L6.64039 20.2201C6.20449 19.9691 5.88597 19.5554 5.75474 19.0698C5.6235 18.5843 5.69027 18.0665 5.94039 17.6301C6.85039 16.0601 6.11039 14.7801 4.30039 14.7801C3.25039 14.7801 2.40039 13.9201 2.40039 12.8801Z" stroke="#333539" stroke-miterlimit="10" stroke-linecap="round" stroke-linejoin="round"/>
</svg>
