<svg width="293" height="32" viewBox="0 0 293 32" fill="none" xmlns="http://www.w3.org/2000/svg">
<circle cx="16" cy="16" r="13.5" stroke="#637592"/>
<path d="M15.6712 20V12.296L16.1992 12.704H13.8832V11.24H17.3632V20H15.6712Z" fill="#637592"/>
<circle cx="277" cy="16" r="14" fill="#ffa01c"/>
<path d="M274.018 20V18.32C274.018 17.952 274.074 17.632 274.186 17.36C274.306 17.088 274.498 16.848 274.762 16.64C275.034 16.424 275.39 16.22 275.83 16.028L277.318 15.368C277.686 15.2 277.966 14.996 278.158 14.756C278.358 14.508 278.458 14.192 278.458 13.808C278.458 13.384 278.33 13.048 278.074 12.8C277.826 12.544 277.47 12.416 277.006 12.416C276.542 12.416 276.182 12.544 275.926 12.8C275.678 13.056 275.554 13.412 275.554 13.868H273.91C273.91 13.324 274.026 12.836 274.258 12.404C274.49 11.964 274.834 11.62 275.29 11.372C275.746 11.116 276.318 10.988 277.006 10.988C277.694 10.988 278.266 11.112 278.722 11.36C279.178 11.608 279.522 11.94 279.754 12.356C279.986 12.764 280.102 13.22 280.102 13.724V13.88C280.102 14.536 279.918 15.084 279.55 15.524C279.182 15.956 278.642 16.332 277.93 16.652L276.442 17.312C276.162 17.432 275.966 17.56 275.854 17.696C275.742 17.824 275.686 18 275.686 18.224V18.992L275.278 18.548H280.138V20H274.018Z" fill="white"/>
<line x1="263" y1="16" x2="29" y2="16" stroke="#637592"/>
</svg>
