<svg width="16" height="13" viewBox="0 0 16 13" fill="none" xmlns="http://www.w3.org/2000/svg">
<path fill-rule="evenodd" clip-rule="evenodd" d="M15.824 1.17141L13.182 11.7804C12.9428 12.741 11.8633 13.1272 11.0982 12.6374C10.4717 12.2364 9.16874 11.4445 6.61232 10.0228C6.1038 9.74004 5.92165 9.00313 6.35799 8.50449L7.63115 7.04955L5.54329 8.23315C4.86951 8.61511 4.03639 8.83761 3.17633 8.65183C2.00898 8.39969 0.912978 7.94753 0.582146 7.80524C-0.2507 7.44701 -0.13725 6.30591 0.588604 5.99895L14.6055 0.0714378C15.2942 -0.219804 16.0097 0.425678 15.824 1.17141ZM0.929238 6.86109C0.892421 6.87666 0.89103 6.92943 0.927757 6.94522C1.24228 7.08051 2.27648 7.50601 3.36032 7.74012C3.95964 7.86957 4.57375 7.72074 5.11067 7.41636L11.1822 3.97446C11.3157 3.89877 11.4494 4.07397 11.3472 4.19074L7.02539 9.12957C7.00577 9.152 7.01282 9.18815 7.03858 9.20248C9.60367 10.629 10.924 11.4307 11.5719 11.8454C11.8461 12.0209 12.2297 11.8711 12.3102 11.5481L14.9522 0.939045C14.9531 0.935335 14.9495 0.932123 14.9461 0.933573L0.929238 6.86109Z" fill="#7A7B7D"/>
</svg>
