<svg width="28" height="27" viewBox="0 0 28 27" fill="none" xmlns="http://www.w3.org/2000/svg">
<path d="M25.9601 14.6688H25.7126V10.9425C25.7126 9.92502 24.8876 9.08627 23.8563 9.08627H22.1926V5.95127C22.1926 5.73127 22.0138 5.56627 21.8076 5.56627H17.3801L13.3238 0.863765C13.2551 0.781265 13.1588 0.740017 13.0488 0.726267C12.9388 0.712517 12.8426 0.753767 12.7601 0.822517L7.48007 5.59377C7.42507 5.56627 7.37007 5.55252 7.31507 5.55252H3.82258C1.89758 5.55252 0.330078 6.84502 0.330078 8.44002V10.8188C0.330078 10.8325 0.330078 10.8463 0.330078 10.8463C0.330078 10.8738 0.330078 10.8875 0.330078 10.915V24.39C0.330078 25.4075 1.15508 26.2463 2.18633 26.2463H23.8563C24.8738 26.2463 25.7126 25.4213 25.7126 24.39V21.5575H25.9601C26.8126 21.5575 27.5001 20.87 27.5001 20.0175V16.195C27.5001 15.3563 26.7988 14.6688 25.9601 14.6688ZM21.4226 6.35002V9.08627H20.4188L18.0401 6.35002H21.4226ZM12.9938 1.67502L19.4013 9.08627H17.3113L14.8088 6.08877C14.5338 5.74502 14.0801 5.59377 13.6538 5.67627C13.4751 5.70377 13.2963 5.74501 13.1451 5.77251C13.1313 5.74501 13.1038 5.70377 13.0763 5.64877C12.8976 5.30502 12.5813 5.07127 12.1963 5.00252C11.8251 4.93377 11.4538 5.04377 11.1651 5.30502C9.74882 6.61127 7.27382 8.83877 6.98507 9.04502C6.95757 9.05877 6.93008 9.07252 6.91633 9.10002H4.79883L12.9938 1.67502ZM16.2938 9.08627H8.12633C9.39133 8.00002 11.6601 5.89626 11.6876 5.86876C11.8251 5.74501 11.9763 5.74502 12.0588 5.75877C12.1963 5.78627 12.3201 5.86877 12.3751 5.99252C12.4851 6.21252 12.6913 6.61126 13.0626 6.55626C13.1863 6.54251 13.5026 6.47377 13.7776 6.43252C13.9288 6.40502 14.0938 6.46002 14.1901 6.58377L16.2938 9.08627ZM1.10007 8.45377C1.10007 7.28502 2.32383 6.33627 3.80883 6.33627H6.66883L3.74007 8.99002C3.71257 9.01752 3.68508 9.04502 3.67133 9.08627H2.17257C1.77382 9.08627 1.40257 9.21002 1.10007 9.43002V8.45377ZM24.9426 24.4038C24.9426 24.995 24.4613 25.4763 23.8701 25.4763H2.20008C1.60883 25.4763 1.12757 24.995 1.12757 24.4038V10.9288C1.12757 10.3375 1.60883 9.85627 2.20008 9.85627H23.8701C24.4613 9.85627 24.9426 10.3375 24.9426 10.9288V14.655H18.7138C17.6276 14.655 16.7338 15.535 16.7338 16.635V19.5913C16.7338 20.6775 17.6138 21.5713 18.7138 21.5713H24.9426V24.4038ZM26.7301 20.0313C26.7301 20.4575 26.3863 20.8013 25.9601 20.8013H18.7138C18.0538 20.8013 17.5176 20.265 17.5176 19.605V16.6488C17.5176 15.9888 18.0538 15.4525 18.7138 15.4525H25.9601C26.3863 15.4525 26.7301 15.7963 26.7301 16.2225V20.0313Z" fill="rgb(255,160, 28)" stroke="rgb(255,160, 28)" stroke-width="0.5"/>
<path d="M19.592 18.2025C19.592 17.9512 19.7957 17.7475 20.047 17.7475C20.2982 17.7475 20.502 17.9512 20.502 18.2025C20.502 18.4538 20.2982 18.6575 20.047 18.6575C19.7957 18.6575 19.592 18.4538 19.592 18.2025Z" fill="rgb(255,160, 28)" stroke="rgb(255,160, 28)" stroke-width="3"/>
</svg>
