<svg width="24" height="24" viewBox="0 0 24 24" fill="none" xmlns="http://www.w3.org/2000/svg">
<path d="M15.4998 15.75C15.3198 15.75 15.1198 15.74 14.9398 15.73C14.5698 15.71 14.2697 15.41 14.2397 15.04C14.0197 12.25 11.7498 9.98999 8.96976 9.76999C8.59976 9.73999 8.29975 9.44001 8.27975 9.07001C8.26975 8.89001 8.25977 8.69001 8.25977 8.51001C8.25977 4.51001 11.5098 1.26001 15.5098 1.26001C19.5098 1.26001 22.7598 4.51001 22.7598 8.51001C22.7598 12.51 19.4998 15.75 15.4998 15.75ZM9.74976 8.35999C12.7298 8.88999 15.1198 11.27 15.6398 14.25C18.7498 14.17 21.2498 11.63 21.2498 8.5C21.2498 5.33 18.6698 2.75 15.4998 2.75C12.3798 2.75 9.82976 5.24999 9.74976 8.35999Z" fill="white"/>
<path d="M8.5 22.75C4.5 22.75 1.25 19.5 1.25 15.5C1.25 11.5 4.5 8.25 8.5 8.25C8.68 8.25 8.88 8.25999 9.06 8.26999C12.59 8.54999 15.45 11.41 15.72 14.92C15.73 15.12 15.74 15.32 15.74 15.5C15.75 19.5 12.5 22.75 8.5 22.75ZM8.5 9.75C5.33 9.75 2.75 12.33 2.75 15.5C2.75 18.67 5.33 21.25 8.5 21.25C11.67 21.25 14.25 18.67 14.25 15.5C14.25 15.34 14.24 15.18 14.23 15.02C14.01 12.25 11.74 9.98001 8.95999 9.76001C8.81999 9.76001 8.66 9.75 8.5 9.75Z" fill="white"/>
<path d="M5.67883 17.873C5.66557 17.859 5.8224 17.6035 5.86105 17.5566C5.76923 17.7097 5.92948 17.9156 6.05591 17.9255C6.01873 17.9235 5.9135 17.9258 5.81135 17.9258C5.67883 17.9258 5.69539 17.8906 5.67883 17.873Z" fill="white"/>
<path d="M6.19236 16.9765C6.16585 17.0046 6.05983 17.2167 6.04327 17.2577C6.13603 17.1312 6.30831 16.9765 6.37457 17.082C6.36905 17.0702 6.33482 17.0046 6.30831 16.9765C6.27518 16.9413 6.22549 16.9413 6.19236 16.9765Z" fill="white"/>
<path d="M6.44083 17.1523C6.41433 17.1101 6.34144 17.0468 6.34144 17.0468C6.47397 17.1699 6.37457 17.3632 6.32488 17.4335C6.34696 17.4042 6.4309 17.3175 6.4574 17.2753C6.49053 17.2226 6.47397 17.205 6.44083 17.1523Z" fill="white"/>
<path fill-rule="evenodd" clip-rule="evenodd" d="M8.59208 13.0474C8.58457 13.0331 8.57408 13.0173 8.56126 13.0037C8.54844 12.9901 8.53249 12.9778 8.51409 12.9721C8.49511 12.9662 8.47438 12.9676 8.4538 12.9802C8.43378 12.9924 8.41502 13.0145 8.39763 13.0477C8.33156 13.1739 7.16676 15.2208 6.59231 16.229L6.59167 16.2303C6.58178 16.2513 6.56255 16.2744 6.5379 16.2808C6.51501 16.2869 6.48086 16.2801 6.43674 16.2266C6.34339 16.1133 6.25331 16.026 6.21953 15.9961L6.21811 15.995C6.20444 15.9853 6.18537 15.9638 6.17583 15.9322C6.16647 15.9011 6.1659 15.8589 6.19061 15.8065C6.24387 15.6935 6.35648 15.4076 6.40623 15.2785C6.40981 15.271 6.41471 15.263 6.42038 15.2563C6.42632 15.2493 6.43217 15.2449 6.43727 15.2431C6.44157 15.2417 6.44603 15.2417 6.45164 15.2455C6.45799 15.2498 6.46645 15.2594 6.47572 15.2791C6.51584 15.3643 6.60254 15.4902 6.64184 15.544C6.64644 15.5549 6.65291 15.5668 6.66108 15.5773C6.66968 15.5883 6.68109 15.5989 6.69526 15.6039C6.71021 15.6092 6.72655 15.6077 6.74263 15.5972C6.75802 15.5873 6.77257 15.5696 6.78652 15.5437C6.8378 15.4484 6.88285 15.3675 6.90064 15.336C6.91309 15.3251 6.92142 15.3053 6.91908 15.2793C6.91658 15.2512 6.90196 15.2157 6.86769 15.1721C6.80176 15.0881 6.55414 14.7518 6.43786 14.5931C6.43043 14.5806 6.42056 14.5669 6.40908 14.555C6.39751 14.5431 6.38334 14.5319 6.36751 14.5267C6.35095 14.5212 6.33278 14.5223 6.3159 14.5347C6.29985 14.5466 6.28674 14.5673 6.27624 14.5971C6.23675 14.7088 5.70913 15.976 5.44912 16.5983C5.44157 16.6088 5.43202 16.6201 5.42166 16.6296C5.41061 16.6398 5.39963 16.6472 5.38996 16.6502C5.38088 16.6531 5.37408 16.6521 5.36821 16.6474C5.36147 16.6419 5.35326 16.6295 5.34703 16.603C5.32042 16.4901 5.09276 15.6644 4.98242 15.2663C4.97844 15.2522 4.97493 15.2366 4.97327 15.223C4.97244 15.2161 4.97211 15.2102 4.9723 15.2054L4.97266 15.2011C4.98157 15.206 4.99729 15.2197 5.02032 15.2477C5.11325 15.3604 5.36806 15.646 5.48415 15.7751C5.49605 15.7907 5.51685 15.8114 5.54052 15.8179C5.55324 15.8213 5.56749 15.8208 5.58088 15.8124C5.5939 15.8041 5.60395 15.7897 5.61139 15.77L5.71045 15.5072C5.7191 15.4893 5.72154 15.4529 5.69105 15.4176L4.25024 13.748C4.23893 13.733 4.22561 13.7173 4.2128 13.7055C4.20637 13.6995 4.19956 13.6941 4.19281 13.6903C4.18655 13.6868 4.17777 13.6832 4.16843 13.685C4.15717 13.6871 4.15034 13.6959 4.14722 13.7057C4.14438 13.7146 4.14403 13.7257 4.14506 13.7379C4.14713 13.7627 4.15559 13.7998 4.17224 13.8529C4.23839 14.0635 4.92816 16.4703 5.26515 17.6487C5.26944 17.6727 5.27607 17.6993 5.28505 17.7224C5.29379 17.7449 5.30612 17.7677 5.32356 17.779C5.33298 17.7852 5.34408 17.788 5.35606 17.7853C5.36759 17.7827 5.37811 17.7753 5.38771 17.7649C5.40661 17.7443 5.42581 17.7074 5.44586 17.6507C5.52514 17.4263 5.79875 16.773 5.92585 16.4739L5.9263 16.4728L5.92661 16.4717C5.93413 16.4451 5.95204 16.4169 5.97932 16.4089C6.00579 16.4012 6.04955 16.4103 6.11438 16.4791C6.24666 16.6195 6.7765 17.2169 7.0251 17.4983C7.03261 17.5063 7.04047 17.5164 7.04579 17.5263C7.05128 17.5365 7.05342 17.5449 7.05298 17.5508C7.05265 17.5552 7.05089 17.56 7.04254 17.5647C7.03317 17.5699 7.01622 17.5742 6.98749 17.5742H6.37354L6.37252 17.5743C6.36266 17.5756 6.35121 17.5759 6.34052 17.5742C6.32965 17.5725 6.32095 17.5691 6.31526 17.5643C6.31022 17.5601 6.30683 17.5543 6.30665 17.5448C6.30646 17.5343 6.31019 17.5182 6.3227 17.495C6.37484 17.3982 6.44233 17.3162 6.46911 17.2878C6.49423 17.2611 6.50615 17.1939 6.437 17.1059C6.37266 17.0239 6.334 16.9791 6.32115 16.9652C6.30812 16.9453 6.28297 16.9224 6.24929 16.9246C6.21451 16.927 6.1788 16.9556 6.14475 17.0207C6.07892 17.1464 5.84323 17.5618 5.73218 17.7563C5.71825 17.7698 5.70342 17.7864 5.69123 17.8042C5.67874 17.8223 5.66788 17.8432 5.66494 17.8638C5.66343 17.8744 5.66393 17.8855 5.6679 17.8961C5.67191 17.9068 5.67902 17.9159 5.68889 17.923C5.70795 17.9367 5.73746 17.9434 5.77822 17.9434C5.93696 17.9434 7.22427 17.9785 7.84845 17.9961C7.85815 17.9961 7.86992 17.9946 7.8802 17.9902C7.89046 17.9859 7.90142 17.9778 7.90657 17.9638C7.91173 17.9497 7.90947 17.9338 7.902 17.9175C7.89455 17.9011 7.88112 17.8824 7.8606 17.8606C7.78143 17.7766 7.1656 17.0645 6.86719 16.7185L6.86614 16.7173L6.86491 16.7163C6.84653 16.7017 6.81443 16.6567 6.83722 16.5962C6.84986 16.5627 6.8877 16.4923 6.93085 16.4164C6.97345 16.3416 7.0203 16.263 7.05061 16.2133C7.05956 16.2018 7.07564 16.1901 7.09508 16.1902C7.11413 16.1903 7.14149 16.2018 7.17279 16.2483C7.23921 16.347 8.01594 17.4122 8.39734 17.9342C8.402 17.9482 8.40912 17.9633 8.41886 17.9766C8.42925 17.9908 8.44333 18.0038 8.4614 18.0098C8.49952 18.0225 8.54331 18.0014 8.59083 17.9366C8.68358 17.81 9.45772 16.7588 9.83321 16.249L9.83423 16.2476L9.83497 16.246C9.84535 16.224 9.86328 16.2013 9.88282 16.1952C9.8917 16.1924 9.90164 16.1928 9.91314 16.1995C9.92513 16.2065 9.9395 16.2208 9.9552 16.2474C10.0214 16.3598 10.1041 16.505 10.1373 16.5636L10.1379 16.5648L10.1387 16.5658C10.15 16.5802 10.1625 16.6083 10.1602 16.6439C10.1579 16.6789 10.1412 16.7231 10.0909 16.7699C10.037 16.8199 9.86506 17.0127 9.67301 17.2322C9.48093 17.4516 9.2677 17.699 9.1296 17.8602C9.10191 17.8838 9.06546 17.9204 9.04931 17.9527C9.04154 17.9683 9.03501 17.9899 9.04689 18.0083C9.05818 18.0257 9.08084 18.0312 9.10785 18.0312C9.2143 18.0312 10.5883 17.9726 11.2617 17.9434C11.2802 17.9432 11.3054 17.9332 11.3126 17.9018C11.3192 17.8733 11.3089 17.8328 11.2754 17.7758C11.2094 17.6638 10.9614 17.2029 10.8453 16.9858C10.8355 16.9653 10.8148 16.9397 10.7834 16.9321C10.7506 16.9241 10.7119 16.9369 10.6698 16.9816L10.5983 17.0575L10.5935 17.0627L10.5907 17.0656L10.588 17.0684L10.5854 17.0712L10.5825 17.0743L10.5631 17.0949L10.5596 17.0986L10.5568 17.1016L10.5552 17.1032L10.5499 17.1089L10.5442 17.1149L10.5434 17.1158L10.5425 17.1167L10.5411 17.1183L10.5377 17.1219L10.536 17.1237L10.5297 17.1303L10.5268 17.1334L10.5247 17.1357L10.5239 17.1365L10.5232 17.1372L10.5224 17.1381L10.5212 17.1393L10.5196 17.1411L10.5187 17.1425C10.5024 17.1685 10.4968 17.2297 10.5527 17.3039C10.605 17.3733 10.6397 17.4367 10.6502 17.459L10.6506 17.46L10.6512 17.4609C10.6561 17.4687 10.6612 17.4786 10.6648 17.4887C10.6685 17.499 10.6704 17.5085 10.67 17.5161C10.6696 17.5232 10.6674 17.5279 10.6634 17.5312C10.6589 17.535 10.6498 17.539 10.6319 17.539H9.98493C9.98692 17.533 9.99116 17.5239 9.99933 17.5107C10.0095 17.4944 10.0251 17.4729 10.048 17.4451C10.1405 17.3328 10.6936 16.6955 10.9588 16.3907C10.9719 16.374 10.992 16.3557 11.0092 16.3509C11.017 16.3488 11.0231 16.3496 11.0283 16.3531C11.0338 16.3568 11.0409 16.3654 11.0468 16.3843C11.0604 16.4274 11.1519 16.6598 11.2602 16.9315C11.3686 17.2035 11.4944 17.5162 11.5772 17.7213C11.583 17.7381 11.5909 17.7568 11.6004 17.773C11.6096 17.7888 11.6217 17.8048 11.6366 17.8127C11.6445 17.8169 11.6536 17.8191 11.6634 17.8171C11.6731 17.8151 11.6816 17.8093 11.6888 17.8013C11.7028 17.7857 11.7145 17.7588 11.7246 17.7194C11.7643 17.5651 12.4696 15.0781 12.8176 13.8529C12.826 13.8292 12.8342 13.8022 12.8396 13.7778C12.8423 13.7655 12.8443 13.7535 12.8452 13.7427C12.8461 13.7323 12.846 13.7215 12.8435 13.7123C12.8409 13.7027 12.8345 13.6918 12.8214 13.689C12.8103 13.6866 12.7992 13.6913 12.7897 13.6974C12.7699 13.71 12.7429 13.7374 12.7064 13.7832C12.561 13.9656 11.7299 14.9133 11.3321 15.3647C11.3295 15.3676 11.3267 15.3707 11.3237 15.374C11.3093 15.3898 11.2903 15.4106 11.2781 15.4344C11.2705 15.4493 11.2649 15.4663 11.2645 15.4851C11.2641 15.5041 11.2689 15.5238 11.2803 15.544C11.3195 15.6134 11.3621 15.7002 11.3788 15.7356C11.3855 15.753 11.4011 15.7758 11.4271 15.7827C11.4546 15.79 11.4865 15.7779 11.5215 15.7407C11.5879 15.6703 11.8585 15.3714 11.9855 15.2308C11.9961 15.2195 12.0085 15.2077 12.02 15.1985C12.0258 15.1939 12.0312 15.1901 12.0359 15.1874C12.0381 15.1861 12.0416 15.1845 12.0416 15.1845C12.0412 15.1948 12.0369 15.2142 12.0245 15.2471C11.9711 15.3888 11.7478 16.1752 11.643 16.5496C11.6377 16.5692 11.6301 16.5913 11.6209 16.6104C11.6114 16.6299 11.6012 16.6445 11.5914 16.6518C11.5867 16.6553 11.5828 16.6567 11.5795 16.6568C11.5764 16.657 11.5724 16.6561 11.5672 16.6524C11.556 16.6444 11.5414 16.6244 11.5251 16.583C11.4588 16.414 10.9562 15.1997 10.7133 14.6138C10.7038 14.5902 10.6815 14.5605 10.6449 14.558C10.6087 14.5555 10.5667 14.5806 10.5194 14.6452C10.462 14.7235 10.3555 14.8597 10.2604 14.9814C10.2019 15.0562 10.1477 15.1256 10.1117 15.1727C10.1103 15.1745 10.1087 15.1766 10.107 15.1788C10.0958 15.1931 10.0785 15.2151 10.0692 15.2414C10.0637 15.257 10.0608 15.2747 10.0634 15.294C10.066 15.3132 10.074 15.3329 10.0888 15.3525C10.1414 15.4223 10.1986 15.5098 10.2205 15.5447L10.2214 15.5461L10.2226 15.5474C10.2377 15.5634 10.2637 15.5835 10.2928 15.5896C10.3077 15.5926 10.324 15.5921 10.3398 15.5849C10.3557 15.5776 10.3696 15.5641 10.381 15.544C10.4203 15.4745 10.496 15.3638 10.5292 15.317L10.53 15.3157L10.5307 15.3143C10.5329 15.3095 10.536 15.3045 10.5395 15.3004C10.5431 15.2961 10.5462 15.294 10.5484 15.2932C10.5484 15.2932 10.5509 15.2926 10.5533 15.2942C10.5563 15.2963 10.5614 15.3016 10.5673 15.3143C10.5838 15.3491 10.6374 15.4718 10.6893 15.5907C10.6982 15.611 10.707 15.6312 10.7155 15.6508C10.7568 15.7456 10.7923 15.8268 10.7993 15.8417C10.8003 15.8438 10.8013 15.846 10.8023 15.8481C10.8104 15.8648 10.8182 15.8811 10.8182 15.9019C10.8182 15.9243 10.8087 15.9553 10.7692 15.9972C10.7545 16.0128 10.736 16.0352 10.7156 16.0599C10.7067 16.0706 10.6975 16.0817 10.6881 16.0929C10.6563 16.1307 10.6212 16.1707 10.5859 16.2028C10.5501 16.2353 10.5161 16.2581 10.4865 16.2643C10.4722 16.2673 10.4594 16.2663 10.4479 16.2612C10.4364 16.256 10.4248 16.2459 10.4137 16.2284C10.3345 16.1022 9.16662 14.0558 8.59208 13.0474ZM8.47032 13.0106C8.45739 13.0185 8.44232 13.0347 8.42659 13.0648C8.36014 13.1917 7.1952 15.2389 6.621 16.2466C6.60869 16.2724 6.58329 16.3051 6.54587 16.315C6.50637 16.3253 6.46044 16.3087 6.4118 16.2497C6.32022 16.1386 6.23195 16.0529 6.19896 16.0237C6.17965 16.0097 6.15611 15.9822 6.14428 15.9429C6.1321 15.9025 6.13267 15.8508 6.16097 15.7908C6.21365 15.679 6.32604 15.3937 6.37581 15.2646L6.37632 15.2634C6.381 15.2535 6.38759 15.2424 6.39575 15.2328C6.40379 15.2233 6.4143 15.2141 6.42701 15.2097C6.44051 15.205 6.45531 15.2063 6.46948 15.2159C6.4829 15.225 6.49474 15.2409 6.50535 15.2634C6.5443 15.3461 6.63062 15.4714 6.66926 15.5242L6.67057 15.5259L6.67141 15.528C6.67506 15.537 6.68029 15.5468 6.68659 15.5549C6.69301 15.5631 6.69961 15.5684 6.70574 15.5706C6.71108 15.5725 6.7173 15.5725 6.72535 15.5672C6.73408 15.5616 6.74521 15.5495 6.75776 15.5262C6.81083 15.4277 6.85727 15.3444 6.87389 15.3149L6.87581 15.3116L6.87891 15.3094C6.88122 15.3077 6.88771 15.3005 6.8861 15.2826C6.88447 15.2643 6.87424 15.2354 6.84224 15.1946C6.77575 15.1099 6.52704 14.7721 6.41119 14.614L6.41022 14.6125C6.40389 14.6018 6.39544 14.59 6.38594 14.5802C6.37628 14.5702 6.3665 14.5632 6.35762 14.5602C6.34947 14.5575 6.34217 14.5582 6.33479 14.5636C6.32658 14.5697 6.31663 14.5829 6.30726 14.6094C6.26728 14.7225 5.73794 15.9938 5.47863 16.6144L5.47786 16.6163L5.47674 16.6178C5.46788 16.6304 5.45633 16.6442 5.4434 16.6562C5.43064 16.6679 5.41553 16.6788 5.39951 16.6839C5.38292 16.6892 5.36446 16.6885 5.34817 16.6754C5.33276 16.6629 5.32192 16.6414 5.31489 16.6116C5.2885 16.4995 5.06117 15.6751 4.95064 15.2763C4.94634 15.261 4.94238 15.2435 4.94042 15.2275C4.93944 15.2194 4.93891 15.2114 4.9392 15.204C4.93948 15.1968 4.94057 15.1889 4.94373 15.1819C4.94715 15.1743 4.9535 15.1671 4.96352 15.1651C4.97248 15.1632 4.98122 15.1662 4.98862 15.1703C5.00342 15.1785 5.0219 15.1962 5.04525 15.2245C5.13773 15.3367 5.39255 15.6223 5.5086 15.7513L5.50955 15.7525C5.51982 15.7661 5.53522 15.7801 5.54878 15.7838C5.55484 15.7855 5.55964 15.7849 5.56392 15.7822C5.56857 15.7792 5.57481 15.7724 5.58063 15.757L5.6804 15.4923L5.68089 15.4913C5.68285 15.4875 5.68851 15.4667 5.66662 15.4413L4.22506 13.7708C4.21435 13.7566 4.20194 13.742 4.19106 13.732C4.18587 13.7272 4.18139 13.7238 4.17783 13.7217C4.17759 13.7246 4.17756 13.7289 4.17806 13.7348C4.17978 13.7554 4.1872 13.7893 4.20367 13.8417C4.27003 14.053 4.96036 16.4618 5.29712 17.6394L5.29755 17.6413C5.30155 17.6639 5.3077 17.6885 5.31568 17.709C5.32403 17.7305 5.33303 17.744 5.34085 17.749C5.34406 17.7511 5.34658 17.7515 5.34915 17.7509C5.35218 17.7502 5.35717 17.7478 5.36398 17.7403C5.37789 17.7252 5.39514 17.6941 5.41484 17.6383C5.4945 17.4129 5.76812 16.7595 5.89521 16.4605C5.90449 16.4286 5.92795 16.3874 5.97055 16.375C6.01449 16.3622 6.07012 16.3824 6.13781 16.4542C6.27054 16.5951 6.80066 17.1928 7.04909 17.4741C7.05809 17.4836 7.06749 17.4958 7.07455 17.5089C7.08149 17.5217 7.08721 17.5375 7.086 17.5536C7.08467 17.5712 7.07525 17.5862 7.05792 17.5958C7.04162 17.6049 7.0184 17.6093 6.98749 17.6093H6.37558C6.36357 17.6108 6.3495 17.6111 6.33574 17.609C6.32177 17.6068 6.30672 17.602 6.29474 17.5919C6.28211 17.5814 6.27391 17.5658 6.27353 17.5455C6.27317 17.526 6.27993 17.5036 6.29393 17.4776C6.34781 17.3775 6.41726 17.2931 6.44569 17.2629C6.4537 17.2544 6.47492 17.2091 6.41154 17.1284C6.34536 17.0441 6.30709 17 6.2966 16.9889L6.29544 16.9877L6.29453 16.9862C6.28517 16.9713 6.26932 16.9585 6.25138 16.9597C6.23371 16.9609 6.20591 16.9762 6.17371 17.0377C6.10725 17.1647 5.86961 17.5834 5.75926 17.7767L5.75799 17.7789L5.75618 17.7806C5.74302 17.7932 5.72908 17.8088 5.71799 17.8249C5.70667 17.8414 5.69945 17.8567 5.6977 17.8691C5.69686 17.875 5.69735 17.8795 5.6987 17.8831C5.69999 17.8866 5.70249 17.8903 5.7075 17.8939C5.71819 17.9016 5.73947 17.9082 5.77822 17.9082C5.93752 17.9082 7.22525 17.9434 7.84909 17.9609C7.85588 17.9609 7.86269 17.9598 7.86789 17.9576C7.87316 17.9553 7.87569 17.951 7.87569 17.951C7.87569 17.951 7.87734 17.9441 7.87218 17.9328C7.867 17.9214 7.85641 17.9059 7.83717 17.8855C7.75741 17.8008 7.14204 17.0892 6.84373 16.7434C6.81783 16.7219 6.77674 16.662 6.80646 16.5832C6.82032 16.5464 6.85978 16.4733 6.90249 16.3982C6.94553 16.3226 6.99284 16.2433 7.02328 16.1934L7.02425 16.192C7.03749 16.1744 7.06259 16.1549 7.09525 16.1551C7.12865 16.1553 7.1648 16.176 7.19975 16.2279C7.26576 16.326 8.04398 17.3932 8.4252 17.915L8.42693 17.9174L8.42782 17.9202C8.43149 17.9319 8.43731 17.9445 8.44501 17.955C8.45273 17.9656 8.46163 17.973 8.47131 17.9762C8.48868 17.982 8.51944 17.9767 8.56468 17.915C8.65738 17.7885 9.43027 16.7389 9.80611 16.2287C9.81806 16.204 9.84124 16.1716 9.87345 16.1615C9.8908 16.1561 9.90985 16.1575 9.92907 16.1687C9.94778 16.1795 9.96586 16.1992 9.98329 16.2288C10.0492 16.3407 10.1315 16.4851 10.165 16.5444C10.181 16.5654 10.1961 16.6018 10.1933 16.6463C10.1903 16.6922 10.1684 16.7446 10.1127 16.7963C10.0605 16.8448 9.8901 17.0358 9.69729 17.2561C9.50491 17.4759 9.29125 17.7237 9.15324 17.8849L9.15235 17.8859L9.15133 17.8868C9.12392 17.91 9.09151 17.9433 9.07859 17.9692C9.07172 17.9829 9.07418 17.9883 9.07418 17.9883C9.07418 17.9883 9.08184 17.9961 9.10785 17.9961C9.21342 17.9961 10.5866 17.9375 11.2607 17.9082C11.2697 17.9082 11.278 17.9041 11.2804 17.8935C11.2836 17.8798 11.28 17.85 11.2473 17.7945C11.1808 17.6815 10.9321 17.2193 10.8162 17.0027C10.8093 16.9881 10.7949 16.971 10.776 16.9664C10.7583 16.962 10.7307 16.9668 10.6933 17.0065L10.6218 17.0824L10.6169 17.0875L10.6145 17.0901L10.6088 17.0961L10.6072 17.0978L10.6056 17.0995L10.5831 17.1234L10.5777 17.1292L10.5721 17.135L10.5674 17.14L10.5666 17.1409L10.5611 17.1467L10.5604 17.1475L10.5596 17.1483L10.5543 17.154L10.5503 17.1582L10.5491 17.1595L10.5483 17.1603L10.5476 17.1611L10.5469 17.1618L10.5462 17.1626C10.5403 17.174 10.5303 17.218 10.5785 17.2819C10.6316 17.3523 10.6673 17.417 10.6793 17.4423C10.6853 17.4518 10.6913 17.4636 10.6958 17.4762C10.7004 17.489 10.7038 17.5036 10.7031 17.518C10.7023 17.5328 10.697 17.5479 10.6839 17.5589C10.6713 17.5694 10.6537 17.5742 10.6319 17.5742H9.98766C9.98087 17.5757 9.97088 17.5763 9.96225 17.5705C9.95019 17.5622 9.94893 17.5477 9.9514 17.5357C9.95385 17.5238 9.96058 17.5092 9.97167 17.4914C9.98296 17.4732 9.99956 17.4504 10.023 17.422C10.116 17.3093 10.6691 16.6719 10.9341 16.3672C10.9487 16.3487 10.9737 16.3244 11.0008 16.3169C11.0152 16.3129 11.0313 16.3134 11.046 16.3234C11.0604 16.333 11.071 16.3499 11.0783 16.3732C11.0913 16.4145 11.1819 16.645 11.2907 16.9178C11.3992 17.1899 11.525 17.5028 11.6079 17.7079C11.6131 17.7232 11.6205 17.7407 11.6286 17.7545C11.637 17.7689 11.645 17.7779 11.6514 17.7813C11.6541 17.7827 11.6571 17.7825 11.6571 17.7825C11.6571 17.7825 11.661 17.7812 11.6648 17.777C11.6729 17.768 11.6828 17.7482 11.6926 17.7102C11.7325 17.5552 12.4383 15.0667 12.786 13.8422L12.7864 13.8411C12.7945 13.8181 12.8023 13.7925 12.8073 13.7698C12.8098 13.7585 12.8115 13.7482 12.8122 13.7397C12.8128 13.7328 12.8126 13.7278 12.8122 13.7246C12.8122 13.7246 12.809 13.7261 12.8067 13.7276C12.7921 13.7369 12.7681 13.7603 12.7317 13.8059C12.5856 13.9892 11.7536 14.9378 11.3563 15.3887C11.353 15.3924 11.3497 15.3961 11.3463 15.3998C11.332 15.4156 11.317 15.432 11.3072 15.4512C11.3014 15.4626 11.2979 15.4741 11.2976 15.486C11.2973 15.4977 11.3002 15.5109 11.3087 15.5259C11.3487 15.5968 11.392 15.6851 11.4087 15.7205L11.4092 15.7218C11.4137 15.7335 11.4229 15.7454 11.4351 15.7486C11.4464 15.7516 11.4669 15.749 11.4981 15.7159C11.5642 15.6457 11.8346 15.3471 11.9617 15.2063C11.9731 15.1942 11.9869 15.1809 12.0001 15.1704C12.0068 15.1651 12.0135 15.1603 12.0201 15.1565C12.0264 15.1528 12.0335 15.1496 12.0407 15.1484C12.0479 15.1472 12.0576 15.1479 12.0653 15.1556C12.0725 15.1629 12.0745 15.1731 12.0747 15.1819C12.075 15.1993 12.0686 15.2249 12.0553 15.2602C12.0027 15.3998 11.7799 16.1838 11.6748 16.5595C11.6691 16.5808 11.6608 16.6049 11.6503 16.6264C11.6401 16.6476 11.6269 16.6683 11.6105 16.6806C11.602 16.6869 11.5921 16.6914 11.581 16.692C11.5698 16.6925 11.5589 16.6888 11.5487 16.6815C11.5292 16.6675 11.5114 16.6394 11.4945 16.5965C11.4283 16.4279 10.926 15.214 10.683 14.6279C10.6759 14.6104 10.6617 14.5944 10.6428 14.5931C10.6235 14.5918 10.591 14.6048 10.5455 14.6668C10.4879 14.7454 10.3805 14.8828 10.285 15.0049C10.2267 15.0795 10.1729 15.1485 10.1375 15.1948C10.1357 15.1971 10.1339 15.1995 10.132 15.2019C10.1206 15.2166 10.1074 15.2335 10.1003 15.2537C10.0963 15.265 10.0945 15.2767 10.0962 15.289C10.0978 15.3012 10.103 15.3151 10.1147 15.3306C10.1674 15.4005 10.2242 15.4874 10.2471 15.5237C10.2597 15.5367 10.2795 15.551 10.2992 15.555C10.309 15.5571 10.3182 15.5565 10.3266 15.5526C10.335 15.5487 10.3441 15.5409 10.3526 15.5259C10.3925 15.4553 10.4682 15.3446 10.5018 15.2971C10.505 15.2905 10.5094 15.2832 10.5149 15.2768C10.5206 15.2701 10.5284 15.2632 10.5381 15.2598C10.5486 15.2562 10.5602 15.2572 10.5711 15.2646C10.5812 15.2714 10.5897 15.2831 10.597 15.2985C10.6137 15.334 10.6677 15.4574 10.7194 15.5759C10.7283 15.5963 10.7371 15.6165 10.7456 15.6362C10.787 15.731 10.8222 15.8116 10.8289 15.8259C10.8297 15.8278 10.8307 15.8297 10.8317 15.8318C10.8396 15.8481 10.8513 15.8721 10.8513 15.9019C10.8513 15.9367 10.836 15.976 10.7927 16.022C10.7787 16.0369 10.7614 16.0577 10.7414 16.0819C10.7324 16.0928 10.7229 16.1044 10.7128 16.1163C10.6809 16.1543 10.6446 16.1957 10.6074 16.2295C10.5707 16.2629 10.5313 16.2907 10.493 16.2988C10.4734 16.3029 10.4537 16.3019 10.435 16.2935C10.4163 16.2851 10.4 16.2699 10.3862 16.2479C10.3064 16.1209 9.13763 14.0728 8.56358 13.0653C8.5573 13.0533 8.54822 13.0396 8.53783 13.0286C8.52736 13.0175 8.51604 13.0093 8.50477 13.0058C8.49406 13.0025 8.4827 13.0031 8.47032 13.0106Z" fill="white"/>
<path d="M10.5222 17.2054C10.5222 17.2476 10.594 17.3168 10.6216 17.3461C10.5553 17.2054 10.5976 17.1078 10.6381 17.0648C10.605 17.1 10.5222 17.1632 10.5222 17.2054Z" fill="white"/>
<path fill-rule="evenodd" clip-rule="evenodd" d="M8.50952 13.7029C8.55174 13.7147 8.58775 13.7539 8.60789 13.7845L8.60857 13.7856C8.92353 14.3485 9.57252 15.5046 9.65172 15.6307C9.69296 15.6963 9.70327 15.7492 9.69649 15.7898C9.6901 15.8281 9.66886 15.8531 9.64889 15.8651C9.33361 16.2995 8.6866 17.1881 8.6069 17.2868C8.56324 17.3408 8.51316 17.3532 8.4685 17.345C8.42516 17.337 8.38826 17.31 8.36726 17.2878L8.36653 17.287L7.32098 15.8604L7.32014 15.8583C7.29824 15.8041 7.30299 15.7511 7.31723 15.7076C7.331 15.6656 7.35391 15.6316 7.37185 15.612C7.68175 15.06 8.3149 13.9264 8.38072 13.7867C8.39819 13.7496 8.41844 13.7251 8.441 13.7117C8.46397 13.698 8.48764 13.6967 8.50952 13.7029ZM8.45724 13.7423C8.44235 13.7512 8.42602 13.7692 8.41036 13.8024C8.34374 13.9438 7.7082 15.0816 7.39929 15.6318L7.39823 15.6337L7.39677 15.6353C7.38179 15.6512 7.36087 15.6815 7.34852 15.7192C7.33645 15.756 7.33284 15.7989 7.34978 15.8424L8.3914 17.2636C8.40917 17.2822 8.43982 17.304 8.47415 17.3103C8.50763 17.3165 8.54589 17.3083 8.58175 17.2639C8.66089 17.1659 9.30981 16.2746 9.62481 15.8407L9.62713 15.8375L9.63053 15.8357C9.64273 15.8292 9.65905 15.8126 9.66387 15.7837C9.66868 15.7549 9.66243 15.7111 9.62415 15.6502C9.54435 15.5231 8.89505 14.3665 8.5804 13.8041C8.56187 13.7762 8.5318 13.7455 8.50106 13.7368C8.48635 13.7327 8.47172 13.7337 8.45724 13.7423Z" fill="white"/>
<path d="M4.51926 14.111C4.4795 14.0547 4.27078 13.8121 4.18796 13.7242C4.13826 13.7067 4.23765 14.0583 4.32048 14.2868C4.25422 14.0758 4.44636 14.0231 4.51926 14.111Z" fill="white"/>
<path d="M5.33096 17.75C5.30446 17.7359 5.15979 17.2226 5.13218 17.1171C5.23819 17.4124 5.55735 17.2753 5.61257 17.1523C5.58496 17.2226 5.42373 17.641 5.39722 17.6972C5.36409 17.7676 5.36409 17.7676 5.33096 17.75Z" fill="white"/>
<path d="M5.24813 15.4646C5.35305 15.5818 5.57613 15.7459 5.62914 15.6053C5.6457 15.5525 5.60594 15.3767 5.38066 15.0955C5.46348 15.1892 5.66558 15.4013 5.67883 15.4295C5.6954 15.4646 5.6954 15.4822 5.67883 15.5349C5.67126 15.5591 5.65791 15.5748 5.64683 15.586C5.63692 15.6291 5.61365 15.7104 5.596 15.7635C5.59048 15.7928 5.55956 15.8303 5.48005 15.7459C5.40053 15.6615 5.29231 15.5232 5.24813 15.4646Z" fill="white"/>
<path d="M7.60041 17.6093L7.86545 17.8906C7.89858 17.9258 7.9284 17.9926 7.78262 17.9785C7.65903 17.9666 7.45525 17.9538 7.28841 17.9466C7.25961 17.9463 7.23086 17.9451 7.20284 17.9434C7.22972 17.9442 7.25847 17.9454 7.28841 17.9466C7.54342 17.9496 7.80283 17.8873 7.60041 17.6093Z" fill="white"/>
<path d="M6.17579 14.9197C6.21444 14.8025 6.29837 14.5646 6.32488 14.5505C6.35801 14.5329 6.39114 14.5505 6.47397 14.6735C6.51829 14.7394 6.56014 14.7984 6.5896 14.8391C6.60209 14.8543 6.61333 14.8697 6.62305 14.8845C6.61574 14.8748 6.60419 14.8592 6.5896 14.8391C6.4886 14.7162 6.30552 14.6068 6.17579 14.9197Z" fill="white"/>
<path d="M6.72244 15.0251C6.77766 15.1013 6.87485 15.208 6.8881 15.2361C6.90466 15.2713 6.8881 15.3064 6.87153 15.3416C6.85828 15.3697 6.83288 15.3884 6.82184 15.4119C6.81631 15.4295 6.78208 15.5103 6.75558 15.5525C6.72245 15.6053 6.72245 15.5877 6.68931 15.5701C6.66281 15.556 6.57336 15.3884 6.52366 15.3064C6.68269 15.5174 6.78871 15.4529 6.82184 15.4119C6.87153 15.2713 6.84171 15.2361 6.72244 15.0251Z" fill="white"/>
<path d="M8.79311 17.6093C8.56782 17.9187 8.29063 17.7383 8.18019 17.6093C8.21884 17.6621 8.31603 17.7957 8.39554 17.9082C8.49493 18.0488 8.5115 17.9785 8.57776 17.9082C8.64402 17.8379 9.07472 17.2226 8.79311 17.6093Z" fill="white"/>
<path d="M9.06443 17.9614L9.32947 17.6801C9.11743 17.9051 9.32395 17.9789 9.42886 17.9965C9.38469 17.9965 9.22345 18 9.13069 18.0141C9.03792 18.0282 9.04786 17.9848 9.06443 17.9614Z" fill="white"/>
<path d="M11.1351 17.5746C11.1903 17.6625 11.3007 17.8453 11.3007 17.8735C11.3007 17.9086 11.251 17.9262 11.102 17.9262H10.951C10.9226 17.9283 10.8949 17.928 10.87 17.9262H10.951C11.1054 17.915 11.2806 17.836 11.1351 17.5746Z" fill="white"/>
<path d="M8.26634 13.3471C8.33532 13.2144 8.43706 13.0028 8.46807 12.9863C8.50478 12.9669 8.55535 13.0098 8.56105 13.0215L8.74332 13.3782C8.74554 13.3824 8.74767 13.3865 8.74968 13.3907L8.74332 13.3782C8.65963 13.2219 8.42756 13.0569 8.26634 13.3471Z" fill="white"/>
<path d="M10.0907 15.2784C10.0917 15.2241 10.1788 15.134 10.224 15.0783C10.1248 15.2495 10.1416 15.3554 10.1634 15.3968C10.1677 15.4022 10.1715 15.4074 10.1743 15.4123C10.1709 15.409 10.1671 15.4038 10.1634 15.3968C10.1375 15.3648 10.0899 15.3248 10.0907 15.2784Z" fill="white"/>
<path d="M10.1756 15.4146C10.2814 15.5938 10.412 15.4354 10.4725 15.342C10.467 15.3537 10.4493 15.4053 10.4228 15.4475C10.34 15.5705 10.3068 15.5881 10.2737 15.5705C10.2476 15.5567 10.2033 15.4623 10.1756 15.4146Z" fill="white"/>
<path d="M10.5719 14.6037C10.5586 14.6177 10.4835 14.7384 10.4559 14.7795C10.5487 14.6669 10.6713 14.6564 10.7541 14.797C10.7486 14.7853 10.7342 14.6986 10.721 14.6564C10.7044 14.6037 10.6713 14.5685 10.6381 14.5685C10.605 14.5685 10.5884 14.5861 10.5719 14.6037Z" fill="white"/>
<path d="M12.6757 13.8477C12.6227 13.918 12.5045 14.0587 12.4603 14.1114C12.6458 13.9708 12.6977 14.1173 12.6922 14.2169C12.7364 14.0763 12.8247 13.788 12.8247 13.7598V13.7071C12.8247 13.6895 12.7419 13.7598 12.6757 13.8477Z" fill="white"/>
<path d="M11.6486 17.8031C11.6221 17.8031 11.5271 17.5219 11.483 17.3988C11.589 17.6098 11.7259 17.4867 11.7811 17.3988C11.7646 17.4574 11.7281 17.6238 11.7149 17.6801C11.6983 17.7504 11.6817 17.8031 11.6486 17.8031Z" fill="white"/>
<path d="M11.2842 15.4651C11.2842 15.4088 11.4112 15.301 11.4664 15.2541C11.2917 15.5354 11.3504 15.6057 11.367 15.6409C11.356 15.6233 11.314 15.5811 11.3007 15.553C11.2842 15.5178 11.2842 15.5354 11.2842 15.4651Z" fill="white"/>
<path d="M11.4001 15.7463C11.3869 15.7323 11.3615 15.6409 11.3504 15.6057C11.4167 15.7463 11.5989 15.6057 11.6817 15.5178C11.632 15.5764 11.526 15.7182 11.4995 15.7463C11.4664 15.7815 11.4167 15.7639 11.4001 15.7463Z" fill="white"/>
<path d="M10.6381 17.0648C10.6657 17.0296 10.7143 16.9593 10.7541 16.9593C10.8038 16.9593 10.8203 16.9945 10.8369 17.0121C10.8497 17.0256 10.8891 17.1273 10.9167 17.1819C10.818 16.9921 10.7037 16.9952 10.6381 17.0648Z" fill="white"/>
<path d="M6.05591 17.9255C5.92948 17.9156 5.76923 17.7097 5.86105 17.5566C5.8224 17.6035 5.66557 17.859 5.67883 17.873C5.69539 17.8906 5.67883 17.9258 5.81135 17.9258C5.9135 17.9258 6.01873 17.9235 6.05591 17.9255ZM6.05591 17.9255L6.05983 17.9258M10.6381 17.0648C10.605 17.1 10.5222 17.1632 10.5222 17.2054C10.5222 17.2476 10.594 17.3168 10.6216 17.3461C10.5553 17.2054 10.5976 17.1078 10.6381 17.0648ZM10.6381 17.0648C10.6657 17.0296 10.7143 16.9593 10.7541 16.9593C10.8038 16.9593 10.8203 16.9945 10.8369 17.0121C10.8497 17.0256 10.8891 17.1273 10.9167 17.1819M10.6381 17.0648C10.7037 16.9952 10.818 16.9921 10.9167 17.1819M7.28841 17.9466C7.45525 17.9538 7.65903 17.9666 7.78262 17.9785C7.9284 17.9926 7.89858 17.9258 7.86545 17.8906L7.60041 17.6093C7.80283 17.8873 7.54342 17.9496 7.28841 17.9466ZM7.28841 17.9466C7.25961 17.9463 7.23086 17.9451 7.20284 17.9434C7.22972 17.9442 7.25847 17.9454 7.28841 17.9466ZM6.5896 14.8391C6.56014 14.7984 6.51829 14.7394 6.47397 14.6735C6.39114 14.5505 6.35801 14.5329 6.32488 14.5505C6.29837 14.5646 6.21444 14.8025 6.17579 14.9197C6.30552 14.6068 6.4886 14.7162 6.5896 14.8391ZM6.5896 14.8391C6.60209 14.8543 6.61333 14.8697 6.62305 14.8845C6.61574 14.8748 6.60419 14.8592 6.5896 14.8391ZM6.82184 15.4119C6.83288 15.3884 6.85828 15.3697 6.87153 15.3416C6.8881 15.3064 6.90466 15.2713 6.8881 15.2361C6.87485 15.208 6.77766 15.1013 6.72244 15.0251C6.84171 15.2361 6.87153 15.2713 6.82184 15.4119ZM6.82184 15.4119C6.81631 15.4295 6.78208 15.5103 6.75558 15.5525C6.72245 15.6053 6.72244 15.5877 6.68931 15.5701C6.66281 15.556 6.57336 15.3884 6.52366 15.3064C6.68269 15.5174 6.78871 15.4529 6.82184 15.4119ZM10.951 17.9262H11.102C11.251 17.9262 11.3007 17.9086 11.3007 17.8735C11.3007 17.8453 11.1903 17.6625 11.1351 17.5746C11.2806 17.836 11.1054 17.915 10.951 17.9262ZM10.951 17.9262H10.87C10.8949 17.928 10.9226 17.9283 10.951 17.9262ZM8.25272 13.3731C8.25709 13.3649 8.26164 13.3562 8.26634 13.3471M8.26634 13.3471C8.33532 13.2144 8.43706 13.0028 8.46807 12.9863C8.50478 12.9669 8.55535 13.0098 8.56105 13.0215L8.74332 13.3782M8.26634 13.3471C8.42756 13.0569 8.65963 13.2219 8.74332 13.3782M8.74332 13.3782L8.74968 13.3907C8.74767 13.3865 8.74555 13.3824 8.74332 13.3782ZM10.1634 15.3968C10.1375 15.3648 10.0899 15.3248 10.0907 15.2784C10.0917 15.2241 10.1788 15.134 10.224 15.0783C10.1248 15.2495 10.1416 15.3553 10.1634 15.3968ZM10.1634 15.3968C10.1677 15.4022 10.1715 15.4074 10.1743 15.4123M10.1634 15.3968C10.1671 15.4038 10.1709 15.409 10.1743 15.4123M10.1743 15.4123L10.1756 15.4146M10.1756 15.4146C10.2033 15.4623 10.2476 15.5567 10.2737 15.5705C10.3068 15.5881 10.34 15.5705 10.4228 15.4475C10.4493 15.4053 10.467 15.3537 10.4725 15.342C10.412 15.4354 10.2814 15.5938 10.1756 15.4146ZM10.9167 17.1819C10.9177 17.1839 10.9187 17.1859 10.9197 17.1879M6.19236 16.9765C6.16585 17.0046 6.05983 17.2167 6.04327 17.2577C6.13603 17.1312 6.30831 16.9765 6.37457 17.082C6.36905 17.0702 6.33482 17.0046 6.30831 16.9765C6.27518 16.9413 6.22549 16.9413 6.19236 16.9765ZM6.44083 17.1523C6.41433 17.1101 6.34144 17.0468 6.34144 17.0468C6.47397 17.1699 6.37457 17.3632 6.32488 17.4335C6.34696 17.4042 6.4309 17.3175 6.4574 17.2753C6.49053 17.2226 6.47397 17.205 6.44083 17.1523ZM8.59208 13.0474C8.58457 13.0331 8.57408 13.0173 8.56126 13.0037C8.54844 12.9901 8.53249 12.9778 8.51409 12.9721C8.49511 12.9662 8.47438 12.9676 8.4538 12.9802C8.43378 12.9924 8.41502 13.0145 8.39763 13.0477C8.33156 13.1739 7.16676 15.2208 6.59231 16.229L6.59167 16.2303C6.58178 16.2513 6.56255 16.2744 6.5379 16.2808C6.51501 16.2869 6.48086 16.2801 6.43674 16.2266C6.34339 16.1133 6.25331 16.026 6.21953 15.9961L6.21811 15.995C6.20444 15.9853 6.18537 15.9638 6.17583 15.9322C6.16647 15.9011 6.1659 15.8589 6.19061 15.8065C6.24387 15.6935 6.35648 15.4076 6.40623 15.2785C6.40981 15.271 6.41471 15.263 6.42038 15.2563C6.42632 15.2493 6.43217 15.2449 6.43727 15.2431C6.44157 15.2417 6.44603 15.2417 6.45164 15.2455C6.45799 15.2498 6.46645 15.2594 6.47572 15.2791C6.51584 15.3643 6.60254 15.4902 6.64184 15.544C6.64644 15.5549 6.65291 15.5668 6.66108 15.5773C6.66968 15.5883 6.68109 15.5989 6.69526 15.6039C6.71021 15.6092 6.72655 15.6077 6.74263 15.5972C6.75802 15.5873 6.77257 15.5696 6.78652 15.5437C6.8378 15.4484 6.88285 15.3675 6.90064 15.336C6.91309 15.3251 6.92142 15.3053 6.91908 15.2793C6.91658 15.2512 6.90196 15.2157 6.86769 15.1721C6.80176 15.0881 6.55414 14.7518 6.43786 14.5931C6.43043 14.5806 6.42056 14.5669 6.40908 14.555C6.39751 14.5431 6.38334 14.5319 6.36751 14.5267C6.35095 14.5212 6.33278 14.5223 6.3159 14.5347C6.29985 14.5466 6.28674 14.5673 6.27624 14.5971C6.23675 14.7088 5.70913 15.976 5.44912 16.5983C5.44157 16.6088 5.43202 16.6201 5.42166 16.6296C5.41061 16.6398 5.39963 16.6472 5.38996 16.6502C5.38088 16.6531 5.37408 16.6521 5.36821 16.6474C5.36147 16.6419 5.35326 16.6295 5.34703 16.603C5.32042 16.4901 5.09276 15.6644 4.98242 15.2663C4.97844 15.2522 4.97493 15.2366 4.97327 15.223C4.97244 15.2161 4.97211 15.2102 4.9723 15.2054L4.97266 15.2011C4.98157 15.206 4.99729 15.2197 5.02032 15.2477C5.11324 15.3604 5.36806 15.646 5.48415 15.7751C5.49605 15.7907 5.51685 15.8114 5.54052 15.8179C5.55324 15.8213 5.56749 15.8208 5.58088 15.8124C5.5939 15.8041 5.60395 15.7897 5.61139 15.77L5.71045 15.5072C5.7191 15.4893 5.72154 15.4529 5.69105 15.4176L4.25024 13.748C4.23893 13.733 4.22561 13.7173 4.2128 13.7055C4.20637 13.6995 4.19956 13.6941 4.19281 13.6903C4.18655 13.6868 4.17777 13.6832 4.16843 13.685C4.15717 13.6871 4.15034 13.6959 4.14722 13.7057C4.14438 13.7146 4.14403 13.7257 4.14506 13.7379C4.14713 13.7627 4.15559 13.7998 4.17224 13.8529C4.23839 14.0635 4.92816 16.4703 5.26515 17.6487C5.26944 17.6727 5.27607 17.6993 5.28505 17.7224C5.29379 17.7449 5.30612 17.7677 5.32356 17.779C5.33298 17.7852 5.34408 17.788 5.35606 17.7853C5.36759 17.7827 5.37811 17.7753 5.38771 17.7649C5.40661 17.7443 5.42581 17.7074 5.44586 17.6507C5.52514 17.4263 5.79875 16.773 5.92585 16.4739L5.9263 16.4728L5.92661 16.4717C5.93413 16.4451 5.95204 16.4169 5.97932 16.4089C6.00579 16.4012 6.04955 16.4103 6.11438 16.4791C6.24666 16.6195 6.7765 17.2169 7.0251 17.4983C7.03261 17.5063 7.04047 17.5164 7.04579 17.5263C7.05128 17.5365 7.05342 17.5449 7.05298 17.5508C7.05265 17.5551 7.05089 17.56 7.04254 17.5647C7.03317 17.5699 7.01622 17.5742 6.98749 17.5742H6.37354L6.37252 17.5743C6.36266 17.5756 6.35121 17.5759 6.34052 17.5742C6.32965 17.5725 6.32095 17.5691 6.31526 17.5643C6.31022 17.5601 6.30683 17.5543 6.30665 17.5448C6.30646 17.5343 6.31019 17.5182 6.3227 17.495C6.37484 17.3982 6.44233 17.3162 6.46911 17.2878C6.49423 17.2611 6.50615 17.1939 6.437 17.1059C6.37266 17.0239 6.334 16.9791 6.32115 16.9652C6.30812 16.9453 6.28297 16.9224 6.24929 16.9246C6.21451 16.927 6.1788 16.9556 6.14475 17.0207C6.07892 17.1464 5.84323 17.5618 5.73218 17.7563C5.71825 17.7698 5.70342 17.7864 5.69123 17.8042C5.67874 17.8223 5.66788 17.8432 5.66494 17.8638C5.66343 17.8744 5.66393 17.8855 5.6679 17.8961C5.67191 17.9068 5.67902 17.9159 5.68889 17.923C5.70795 17.9367 5.73746 17.9434 5.77822 17.9434C5.93696 17.9434 7.22427 17.9785 7.84845 17.9961C7.85815 17.9961 7.86992 17.9946 7.8802 17.9902C7.89046 17.9859 7.90142 17.9778 7.90657 17.9638C7.91173 17.9497 7.90947 17.9338 7.902 17.9175C7.89455 17.9011 7.88112 17.8824 7.8606 17.8606C7.78143 17.7766 7.1656 17.0645 6.86719 16.7185L6.86614 16.7173L6.86491 16.7163C6.84653 16.7017 6.81443 16.6567 6.83722 16.5962C6.84986 16.5627 6.8877 16.4923 6.93085 16.4164C6.97345 16.3416 7.0203 16.263 7.05061 16.2133C7.05956 16.2018 7.07564 16.1901 7.09508 16.1902C7.11413 16.1903 7.14149 16.2018 7.17279 16.2483C7.23921 16.347 8.01594 17.4122 8.39734 17.9342C8.402 17.9482 8.40912 17.9633 8.41886 17.9766C8.42925 17.9908 8.44333 18.0038 8.4614 18.0098C8.49952 18.0225 8.54331 18.0014 8.59083 17.9366C8.68358 17.81 9.45772 16.7588 9.83321 16.249L9.83423 16.2476L9.83497 16.246C9.84535 16.224 9.86328 16.2013 9.88282 16.1952C9.8917 16.1924 9.90164 16.1928 9.91314 16.1995C9.92513 16.2065 9.9395 16.2208 9.9552 16.2474C10.0214 16.3598 10.1041 16.505 10.1373 16.5636L10.1379 16.5648L10.1387 16.5658C10.15 16.5802 10.1625 16.6083 10.1602 16.6439C10.1579 16.6789 10.1412 16.7231 10.0909 16.7699C10.037 16.8199 9.86506 17.0127 9.67301 17.2322C9.48093 17.4516 9.2677 17.699 9.1296 17.8602C9.10191 17.8838 9.06546 17.9204 9.04931 17.9527C9.04154 17.9683 9.03501 17.9899 9.04689 18.0083C9.05818 18.0257 9.08084 18.0312 9.10785 18.0312C9.2143 18.0312 10.5883 17.9726 11.2617 17.9434C11.2802 17.9432 11.3054 17.9332 11.3126 17.9018C11.3192 17.8733 11.3089 17.8328 11.2754 17.7758C11.2094 17.6638 10.9614 17.2029 10.8453 16.9858C10.8355 16.9653 10.8148 16.9397 10.7834 16.9321C10.7506 16.9241 10.7119 16.9369 10.6698 16.9816L10.5983 17.0575L10.5935 17.0627L10.5907 17.0656L10.588 17.0684L10.5854 17.0712L10.5825 17.0743L10.5631 17.0949L10.5596 17.0986L10.5568 17.1016L10.5552 17.1032L10.5499 17.1089L10.5442 17.1149L10.5434 17.1158L10.5425 17.1167L10.5411 17.1183L10.5377 17.1219L10.536 17.1237L10.5297 17.1303L10.5268 17.1334L10.5247 17.1357L10.5239 17.1365L10.5232 17.1372L10.5224 17.1381L10.5212 17.1393L10.5196 17.1411L10.5187 17.1425C10.5024 17.1685 10.4968 17.2297 10.5527 17.3039C10.605 17.3733 10.6397 17.4367 10.6502 17.459L10.6506 17.46L10.6512 17.4609C10.6561 17.4687 10.6612 17.4786 10.6648 17.4887C10.6685 17.499 10.6704 17.5085 10.67 17.5161C10.6696 17.5232 10.6674 17.5279 10.6634 17.5312C10.6589 17.535 10.6498 17.539 10.6319 17.539H9.98493C9.98692 17.533 9.99116 17.5239 9.99933 17.5107C10.0095 17.4944 10.0251 17.4729 10.048 17.4451C10.1405 17.3328 10.6936 16.6955 10.9588 16.3907C10.9719 16.374 10.992 16.3557 11.0092 16.3509C11.017 16.3488 11.0231 16.3496 11.0283 16.3531C11.0338 16.3568 11.0409 16.3654 11.0468 16.3843C11.0604 16.4274 11.1519 16.6598 11.2602 16.9315C11.3686 17.2035 11.4944 17.5162 11.5772 17.7213C11.583 17.7381 11.5909 17.7568 11.6004 17.773C11.6096 17.7888 11.6217 17.8048 11.6366 17.8127C11.6445 17.8169 11.6536 17.8191 11.6634 17.8171C11.6731 17.8151 11.6816 17.8093 11.6888 17.8013C11.7028 17.7857 11.7145 17.7588 11.7246 17.7194C11.7643 17.5651 12.4696 15.0781 12.8176 13.8529C12.826 13.8292 12.8342 13.8022 12.8396 13.7778C12.8423 13.7655 12.8443 13.7535 12.8452 13.7427C12.8461 13.7323 12.846 13.7215 12.8435 13.7123C12.8409 13.7027 12.8345 13.6918 12.8214 13.689C12.8103 13.6866 12.7992 13.6913 12.7897 13.6974C12.7699 13.71 12.7429 13.7374 12.7064 13.7832C12.561 13.9656 11.7299 14.9133 11.3321 15.3647C11.3295 15.3676 11.3267 15.3707 11.3237 15.374C11.3093 15.3898 11.2903 15.4106 11.2781 15.4344C11.2705 15.4493 11.2649 15.4663 11.2645 15.4851C11.2641 15.5041 11.2689 15.5238 11.2803 15.544C11.3195 15.6134 11.3621 15.7002 11.3788 15.7356C11.3855 15.753 11.4011 15.7758 11.4271 15.7827C11.4546 15.79 11.4865 15.7779 11.5215 15.7407C11.5879 15.6703 11.8585 15.3714 11.9855 15.2308C11.9961 15.2195 12.0085 15.2077 12.02 15.1985C12.0258 15.1939 12.0312 15.1901 12.0359 15.1874C12.0381 15.1861 12.0416 15.1845 12.0416 15.1845C12.0412 15.1948 12.0369 15.2142 12.0245 15.2471C11.9711 15.3888 11.7478 16.1752 11.643 16.5496C11.6377 16.5692 11.6301 16.5913 11.6209 16.6104C11.6114 16.6299 11.6012 16.6445 11.5914 16.6518C11.5867 16.6553 11.5828 16.6567 11.5795 16.6568C11.5764 16.657 11.5724 16.6561 11.5672 16.6524C11.556 16.6444 11.5414 16.6244 11.5251 16.583C11.4588 16.414 10.9562 15.1997 10.7133 14.6138C10.7038 14.5902 10.6815 14.5605 10.6449 14.558C10.6087 14.5555 10.5667 14.5806 10.5194 14.6452C10.462 14.7235 10.3555 14.8597 10.2604 14.9814C10.2019 15.0562 10.1477 15.1256 10.1117 15.1727C10.1103 15.1745 10.1087 15.1766 10.107 15.1788C10.0958 15.1931 10.0785 15.2151 10.0692 15.2414C10.0637 15.257 10.0608 15.2747 10.0634 15.294C10.066 15.3132 10.074 15.3329 10.0888 15.3525C10.1414 15.4223 10.1986 15.5098 10.2205 15.5447L10.2214 15.5461L10.2226 15.5474C10.2377 15.5634 10.2637 15.5835 10.2928 15.5896C10.3077 15.5926 10.324 15.5921 10.3398 15.5849C10.3557 15.5776 10.3696 15.5641 10.381 15.544C10.4203 15.4745 10.496 15.3638 10.5292 15.317L10.53 15.3157L10.5307 15.3143C10.5329 15.3095 10.536 15.3045 10.5395 15.3004C10.5431 15.2961 10.5462 15.294 10.5484 15.2932C10.5484 15.2932 10.5509 15.2926 10.5533 15.2942C10.5563 15.2963 10.5614 15.3016 10.5673 15.3143C10.5838 15.3491 10.6374 15.4718 10.6893 15.5907C10.6982 15.611 10.707 15.6312 10.7155 15.6508C10.7568 15.7456 10.7923 15.8268 10.7993 15.8417C10.8003 15.8438 10.8013 15.846 10.8023 15.8481C10.8104 15.8648 10.8182 15.8811 10.8182 15.9019C10.8182 15.9243 10.8087 15.9553 10.7692 15.9972C10.7545 16.0128 10.736 16.0352 10.7156 16.0599C10.7067 16.0706 10.6975 16.0817 10.6881 16.0929C10.6563 16.1307 10.6212 16.1707 10.5859 16.2028C10.5501 16.2353 10.5161 16.2581 10.4865 16.2643C10.4722 16.2673 10.4594 16.2663 10.4479 16.2612C10.4364 16.256 10.4248 16.2459 10.4137 16.2284C10.3345 16.1022 9.16661 14.0558 8.59208 13.0474ZM8.42659 13.0648C8.44232 13.0347 8.45739 13.0185 8.47032 13.0106C8.4827 13.0031 8.49406 13.0025 8.50477 13.0058C8.51604 13.0093 8.52736 13.0175 8.53783 13.0286C8.54822 13.0396 8.5573 13.0533 8.56358 13.0653C9.13763 14.0728 10.3064 16.1209 10.3862 16.2479C10.4 16.2699 10.4163 16.2851 10.435 16.2935C10.4537 16.3019 10.4734 16.3029 10.493 16.2988C10.5313 16.2907 10.5707 16.2629 10.6074 16.2295C10.6446 16.1957 10.6809 16.1543 10.7128 16.1163C10.7229 16.1044 10.7324 16.0928 10.7414 16.0819C10.7614 16.0577 10.7787 16.0369 10.7927 16.022C10.836 15.976 10.8513 15.9367 10.8513 15.9019C10.8513 15.8721 10.8396 15.8481 10.8317 15.8318C10.8307 15.8297 10.8297 15.8278 10.8289 15.8259C10.8222 15.8116 10.787 15.731 10.7456 15.6362C10.7371 15.6165 10.7283 15.5963 10.7194 15.5759C10.6677 15.4574 10.6137 15.334 10.597 15.2985C10.5897 15.2831 10.5812 15.2714 10.5711 15.2646C10.5602 15.2572 10.5486 15.2562 10.5381 15.2598C10.5284 15.2632 10.5206 15.2701 10.5149 15.2768C10.5094 15.2832 10.505 15.2905 10.5018 15.2971C10.4682 15.3446 10.3925 15.4553 10.3526 15.5259C10.3441 15.5409 10.335 15.5487 10.3266 15.5526C10.3182 15.5565 10.309 15.5571 10.2992 15.555C10.2795 15.551 10.2597 15.5367 10.2471 15.5237C10.2242 15.4874 10.1674 15.4005 10.1147 15.3306C10.103 15.3151 10.0978 15.3012 10.0962 15.289C10.0945 15.2767 10.0963 15.265 10.1003 15.2537C10.1074 15.2335 10.1206 15.2166 10.132 15.2019C10.1339 15.1995 10.1357 15.1971 10.1375 15.1948C10.1729 15.1485 10.2267 15.0795 10.285 15.0049C10.3805 14.8828 10.4879 14.7454 10.5455 14.6668C10.591 14.6048 10.6235 14.5918 10.6428 14.5931C10.6617 14.5944 10.6759 14.6104 10.683 14.6279C10.926 15.214 11.4283 16.4279 11.4945 16.5965C11.5114 16.6394 11.5292 16.6675 11.5487 16.6815C11.5589 16.6888 11.5698 16.6925 11.581 16.692C11.5921 16.6914 11.602 16.6869 11.6105 16.6806C11.6269 16.6683 11.6401 16.6476 11.6503 16.6264C11.6608 16.6049 11.6691 16.5808 11.6748 16.5595C11.7799 16.1838 12.0027 15.3998 12.0553 15.2602C12.0686 15.2249 12.075 15.1993 12.0747 15.1819C12.0745 15.1731 12.0725 15.1629 12.0653 15.1556C12.0576 15.1479 12.0479 15.1472 12.0407 15.1484C12.0335 15.1496 12.0264 15.1528 12.0201 15.1565C12.0135 15.1603 12.0068 15.1651 12.0001 15.1704C11.9869 15.1809 11.9731 15.1942 11.9617 15.2063C11.8346 15.3471 11.5642 15.6457 11.4981 15.7159C11.4669 15.749 11.4464 15.7516 11.4351 15.7486C11.4229 15.7454 11.4137 15.7335 11.4092 15.7218L11.4087 15.7205C11.392 15.6851 11.3487 15.5968 11.3087 15.5259C11.3002 15.5109 11.2973 15.4977 11.2976 15.486C11.2979 15.4741 11.3014 15.4626 11.3072 15.4512C11.317 15.432 11.332 15.4156 11.3463 15.3998C11.3497 15.3961 11.353 15.3924 11.3563 15.3887C11.7536 14.9378 12.5856 13.9892 12.7317 13.8059C12.7681 13.7603 12.7921 13.7369 12.8067 13.7276C12.809 13.7261 12.8122 13.7246 12.8122 13.7246C12.8126 13.7278 12.8128 13.7328 12.8122 13.7397C12.8115 13.7482 12.8098 13.7585 12.8073 13.7698C12.8023 13.7925 12.7945 13.8181 12.7864 13.8411L12.786 13.8422C12.4383 15.0667 11.7325 17.5552 11.6926 17.7102C11.6828 17.7482 11.6729 17.768 11.6648 17.777C11.661 17.7812 11.6571 17.7825 11.6571 17.7825C11.6571 17.7825 11.6541 17.7827 11.6514 17.7813C11.645 17.7779 11.637 17.7689 11.6286 17.7545C11.6205 17.7407 11.6131 17.7232 11.6079 17.7079C11.525 17.5028 11.3992 17.1899 11.2907 16.9178C11.1819 16.645 11.0913 16.4145 11.0783 16.3732C11.071 16.3499 11.0604 16.333 11.046 16.3234C11.0313 16.3134 11.0152 16.3129 11.0008 16.3169C10.9737 16.3244 10.9487 16.3487 10.9341 16.3672C10.6691 16.6719 10.116 17.3093 10.023 17.422C9.99956 17.4504 9.98296 17.4732 9.97167 17.4914C9.96058 17.5092 9.95385 17.5238 9.9514 17.5357C9.94893 17.5477 9.95019 17.5622 9.96225 17.5705C9.97088 17.5763 9.98087 17.5757 9.98766 17.5742H10.6319C10.6537 17.5742 10.6713 17.5694 10.6839 17.5589C10.697 17.5479 10.7023 17.5328 10.7031 17.518C10.7038 17.5036 10.7004 17.489 10.6958 17.4762C10.6913 17.4636 10.6853 17.4518 10.6793 17.4423C10.6673 17.417 10.6316 17.3523 10.5785 17.2819C10.5303 17.218 10.5403 17.174 10.5462 17.1626L10.5469 17.1618L10.5476 17.1611L10.5483 17.1603L10.5491 17.1595L10.5503 17.1582L10.5543 17.154L10.5596 17.1483L10.5604 17.1475L10.5611 17.1467L10.5666 17.1409L10.5674 17.14L10.5721 17.135L10.5777 17.1292L10.5831 17.1234L10.6056 17.0995L10.6072 17.0978L10.6088 17.0961L10.6145 17.0901L10.6169 17.0875L10.6218 17.0824L10.6933 17.0065C10.7307 16.9668 10.7583 16.962 10.776 16.9664C10.7949 16.971 10.8093 16.9881 10.8162 17.0027C10.9321 17.2193 11.1808 17.6815 11.2473 17.7945C11.28 17.85 11.2836 17.8798 11.2804 17.8935C11.278 17.9041 11.2697 17.9082 11.2607 17.9082C10.5866 17.9375 9.21342 17.9961 9.10785 17.9961C9.08184 17.9961 9.07418 17.9883 9.07418 17.9883C9.07418 17.9883 9.07172 17.9829 9.07859 17.9692C9.09151 17.9433 9.12392 17.91 9.15133 17.8868L9.15235 17.8859L9.15324 17.8849C9.29125 17.7237 9.50491 17.4759 9.69729 17.2561C9.8901 17.0358 10.0605 16.8448 10.1127 16.7963C10.1684 16.7446 10.1903 16.6922 10.1933 16.6463C10.1961 16.6018 10.181 16.5654 10.165 16.5444C10.1315 16.4851 10.0492 16.3407 9.98329 16.2288C9.96586 16.1992 9.94778 16.1795 9.92907 16.1687C9.90985 16.1575 9.8908 16.1561 9.87345 16.1615C9.84124 16.1716 9.81806 16.204 9.80611 16.2287C9.43027 16.7389 8.65738 17.7885 8.56468 17.915C8.51944 17.9767 8.48868 17.982 8.47131 17.9762C8.46163 17.973 8.45273 17.9656 8.44501 17.955C8.43731 17.9445 8.43149 17.9319 8.42782 17.9202L8.42693 17.9174L8.4252 17.915C8.04398 17.3932 7.26576 16.326 7.19975 16.2279C7.1648 16.176 7.12865 16.1553 7.09525 16.1551C7.06259 16.1549 7.03749 16.1744 7.02425 16.192L7.02328 16.1934C6.99284 16.2433 6.94553 16.3226 6.90249 16.3982C6.85978 16.4733 6.82032 16.5464 6.80646 16.5832C6.77674 16.662 6.81783 16.7219 6.84373 16.7434C7.14204 17.0892 7.75741 17.8008 7.83717 17.8855C7.85641 17.9059 7.867 17.9214 7.87218 17.9328C7.87734 17.9441 7.87569 17.951 7.87569 17.951C7.87569 17.951 7.87316 17.9553 7.86789 17.9576C7.86269 17.9598 7.85588 17.9609 7.84909 17.9609C7.22525 17.9434 5.93752 17.9082 5.77822 17.9082C5.73947 17.9082 5.71819 17.9016 5.7075 17.8939C5.70249 17.8903 5.69999 17.8866 5.6987 17.8831C5.69735 17.8795 5.69686 17.875 5.6977 17.8691C5.69945 17.8567 5.70667 17.8414 5.71799 17.8249C5.72908 17.8088 5.74302 17.7932 5.75618 17.7806L5.75799 17.7789L5.75926 17.7767C5.86961 17.5834 6.10725 17.1647 6.17371 17.0377C6.20591 16.9762 6.23371 16.9609 6.25138 16.9597C6.26932 16.9585 6.28517 16.9713 6.29453 16.9862L6.29544 16.9877L6.2966 16.9889C6.30709 17 6.34536 17.0441 6.41154 17.1284C6.47492 17.2091 6.4537 17.2544 6.44569 17.2629C6.41726 17.2931 6.34781 17.3775 6.29393 17.4776C6.27993 17.5036 6.27317 17.526 6.27353 17.5455C6.27391 17.5658 6.28211 17.5814 6.29474 17.5919C6.30672 17.602 6.32177 17.6068 6.33574 17.609C6.3495 17.6111 6.36357 17.6108 6.37558 17.6093H6.98749C7.0184 17.6093 7.04162 17.6049 7.05792 17.5958C7.07525 17.5862 7.08467 17.5712 7.086 17.5536C7.08721 17.5375 7.08149 17.5217 7.07455 17.5089C7.06749 17.4958 7.05809 17.4836 7.04909 17.4741C6.80066 17.1928 6.27054 16.5951 6.13781 16.4542C6.07012 16.3824 6.01449 16.3622 5.97055 16.375C5.92795 16.3874 5.90449 16.4286 5.89521 16.4605C5.76812 16.7595 5.4945 17.4129 5.41484 17.6383C5.39514 17.6941 5.37789 17.7252 5.36398 17.7403C5.35717 17.7478 5.35218 17.7502 5.34915 17.7509C5.34658 17.7515 5.34406 17.7511 5.34085 17.749C5.33303 17.744 5.32403 17.7305 5.31568 17.709C5.3077 17.6885 5.30155 17.6639 5.29755 17.6413L5.29712 17.6394C4.96036 16.4618 4.27003 14.053 4.20367 13.8417C4.1872 13.7893 4.17978 13.7554 4.17806 13.7348C4.17756 13.7289 4.17759 13.7246 4.17783 13.7217C4.18139 13.7238 4.18587 13.7272 4.19106 13.732C4.20194 13.742 4.21435 13.7566 4.22506 13.7708L5.66662 15.4413C5.68851 15.4667 5.68285 15.4875 5.68089 15.4913L5.6804 15.4923L5.58063 15.757C5.57481 15.7724 5.56857 15.7792 5.56392 15.7822C5.55964 15.7849 5.55484 15.7855 5.54878 15.7838C5.53522 15.7801 5.51982 15.7661 5.50955 15.7525L5.5086 15.7513C5.39255 15.6223 5.13773 15.3367 5.04525 15.2245C5.0219 15.1962 5.00342 15.1785 4.98862 15.1703C4.98122 15.1662 4.97248 15.1632 4.96352 15.1651C4.9535 15.1671 4.94715 15.1743 4.94373 15.1819C4.94057 15.1889 4.93948 15.1968 4.9392 15.204C4.93891 15.2114 4.93944 15.2194 4.94042 15.2275C4.94238 15.2435 4.94634 15.261 4.95064 15.2763C5.06117 15.6751 5.2885 16.4995 5.31489 16.6116C5.32192 16.6414 5.33276 16.6629 5.34817 16.6754C5.36446 16.6885 5.38292 16.6892 5.39951 16.6839C5.41553 16.6788 5.43064 16.6679 5.4434 16.6562C5.45633 16.6442 5.46788 16.6304 5.47674 16.6178L5.47786 16.6163L5.47863 16.6144C5.73794 15.9938 6.26728 14.7225 6.30726 14.6094C6.31663 14.5829 6.32658 14.5697 6.33479 14.5636C6.34217 14.5582 6.34947 14.5575 6.35762 14.5602C6.3665 14.5632 6.37628 14.5702 6.38594 14.5802C6.39544 14.59 6.40389 14.6018 6.41022 14.6125L6.41119 14.614C6.52704 14.7721 6.77575 15.1099 6.84224 15.1946C6.87424 15.2354 6.88447 15.2643 6.8861 15.2826C6.88771 15.3005 6.88122 15.3077 6.87891 15.3094L6.87581 15.3116L6.87389 15.3149C6.85727 15.3444 6.81083 15.4277 6.75776 15.5262C6.74521 15.5495 6.73408 15.5616 6.72535 15.5672C6.7173 15.5725 6.71108 15.5725 6.70574 15.5706C6.69961 15.5684 6.69301 15.5631 6.68659 15.5549C6.68029 15.5468 6.67506 15.537 6.67141 15.528L6.67057 15.5259L6.66926 15.5242C6.63062 15.4714 6.5443 15.3461 6.50535 15.2634C6.49474 15.2409 6.4829 15.225 6.46948 15.2159C6.45531 15.2063 6.44051 15.205 6.42701 15.2097C6.4143 15.2141 6.40379 15.2233 6.39575 15.2328C6.38759 15.2424 6.381 15.2535 6.37632 15.2634L6.37581 15.2646C6.32604 15.3937 6.21365 15.679 6.16097 15.7908C6.13267 15.8508 6.1321 15.9025 6.14428 15.9429C6.15611 15.9822 6.17964 16.0097 6.19896 16.0237C6.23195 16.0529 6.32022 16.1386 6.4118 16.2497C6.46044 16.3087 6.50637 16.3253 6.54587 16.315C6.58329 16.3051 6.60869 16.2724 6.621 16.2466C7.1952 15.2389 8.36014 13.1917 8.42659 13.0648ZM8.60789 13.7845C8.58775 13.7539 8.55174 13.7147 8.50952 13.7029C8.48764 13.6967 8.46397 13.698 8.441 13.7117C8.41844 13.7251 8.39819 13.7496 8.38072 13.7867C8.3149 13.9264 7.68175 15.06 7.37185 15.612C7.35391 15.6316 7.331 15.6656 7.31723 15.7076C7.30299 15.7511 7.29824 15.8041 7.32014 15.8583L7.32098 15.8604L8.36653 17.287L8.36726 17.2878C8.38826 17.31 8.42516 17.337 8.4685 17.345C8.51316 17.3532 8.56324 17.3408 8.6069 17.2868C8.6866 17.1881 9.33361 16.2995 9.64889 15.8651C9.66886 15.8531 9.6901 15.8281 9.69649 15.7898C9.70327 15.7492 9.69296 15.6963 9.65172 15.6307C9.57252 15.5046 8.92353 14.3485 8.60857 13.7856L8.60789 13.7845ZM8.41036 13.8024C8.42602 13.7692 8.44235 13.7512 8.45724 13.7423C8.47172 13.7337 8.48635 13.7327 8.50106 13.7368C8.5318 13.7455 8.56187 13.7762 8.5804 13.8041C8.89505 14.3665 9.54435 15.5231 9.62415 15.6502C9.66243 15.7111 9.66868 15.7549 9.66387 15.7837C9.65905 15.8126 9.64273 15.8292 9.63053 15.8357L9.62713 15.8375L9.62481 15.8407C9.30981 16.2746 8.66089 17.1659 8.58175 17.2639C8.54589 17.3083 8.50763 17.3165 8.47415 17.3103C8.43982 17.304 8.40917 17.2822 8.3914 17.2636L7.34978 15.8424C7.33284 15.7989 7.33645 15.756 7.34852 15.7192C7.36087 15.6815 7.38179 15.6512 7.39677 15.6353L7.39823 15.6337L7.39929 15.6318C7.7082 15.0816 8.34374 13.9438 8.41036 13.8024ZM4.51926 14.111C4.4795 14.0547 4.27078 13.8121 4.18796 13.7242C4.13826 13.7067 4.23765 14.0583 4.32048 14.2868C4.25422 14.0758 4.44636 14.0231 4.51926 14.111ZM5.33096 17.75C5.30446 17.7359 5.15979 17.2226 5.13218 17.1171C5.23819 17.4124 5.55735 17.2753 5.61257 17.1523C5.58496 17.2226 5.42373 17.641 5.39722 17.6972C5.36409 17.7676 5.36409 17.7676 5.33096 17.75ZM5.24813 15.4646C5.35305 15.5818 5.57613 15.7459 5.62914 15.6053C5.6457 15.5525 5.60594 15.3767 5.38066 15.0955C5.46348 15.1892 5.66558 15.4013 5.67883 15.4295C5.6954 15.4646 5.6954 15.4822 5.67883 15.5349C5.67126 15.5591 5.65791 15.5748 5.64683 15.586C5.63692 15.6291 5.61365 15.7104 5.596 15.7635C5.59048 15.7928 5.55956 15.8303 5.48005 15.7459C5.40053 15.6615 5.29231 15.5232 5.24813 15.4646ZM8.79311 17.6093C8.56782 17.9187 8.29063 17.7383 8.18019 17.6093C8.21884 17.6621 8.31603 17.7957 8.39554 17.9082C8.49493 18.0488 8.5115 17.9785 8.57776 17.9082C8.64402 17.8379 9.07472 17.2226 8.79311 17.6093ZM9.32947 17.6801L9.06443 17.9614C9.04786 17.9848 9.03792 18.0282 9.13069 18.0141C9.22345 18 9.38469 17.9965 9.42886 17.9965C9.32395 17.9789 9.11743 17.9051 9.32947 17.6801ZM10.4559 14.7795C10.4835 14.7384 10.5586 14.6177 10.5719 14.6037C10.5884 14.5861 10.605 14.5685 10.6381 14.5685C10.6713 14.5685 10.7044 14.6037 10.721 14.6564C10.7342 14.6986 10.7486 14.7853 10.7541 14.797C10.6713 14.6564 10.5487 14.6669 10.4559 14.7795ZM12.4603 14.1114C12.5045 14.0587 12.6227 13.918 12.6757 13.8477C12.7419 13.7598 12.8247 13.6895 12.8247 13.7071V13.7598C12.8247 13.788 12.7364 14.0763 12.6922 14.2169C12.6977 14.1173 12.6458 13.9708 12.4603 14.1114ZM11.483 17.3988C11.5271 17.5219 11.6221 17.8031 11.6486 17.8031C11.6817 17.8031 11.6983 17.7504 11.7149 17.6801C11.7281 17.6238 11.7646 17.4574 11.7811 17.3988C11.7259 17.4867 11.589 17.6098 11.483 17.3988ZM11.4664 15.2541C11.4112 15.301 11.2842 15.4088 11.2842 15.4651C11.2842 15.5354 11.2842 15.5178 11.3007 15.553C11.314 15.5811 11.356 15.6233 11.367 15.6409C11.3504 15.6057 11.2917 15.5354 11.4664 15.2541ZM11.3504 15.6057C11.3615 15.6409 11.3869 15.7323 11.4001 15.7463C11.4167 15.7639 11.4664 15.7815 11.4995 15.7463C11.526 15.7182 11.632 15.5764 11.6817 15.5178C11.5989 15.6057 11.4167 15.7463 11.3504 15.6057Z" stroke="white" stroke-width="0.22"/>
</svg>
