<svg width="15" height="14" viewBox="0 0 15 14" fill="none" xmlns="http://www.w3.org/2000/svg">
<g clip-path="url(#clip0_62_8497)">
<path d="M3.77523 2.91695C3.77523 1.62829 4.8199 0.583618 6.10856 0.583618H8.44189C9.73056 0.583618 10.7752 1.62829 10.7752 2.91695V4.08362H11.3586C12.3251 4.08362 13.1086 4.86712 13.1086 5.83362V11.667C13.1086 12.6335 12.3251 13.417 11.3586 13.417H3.19189C2.2254 13.417 1.44189 12.6334 1.44189 11.667V5.83362C1.44189 4.86712 2.2254 4.08362 3.19189 4.08362H3.77523V2.91695ZM9.60856 2.91695C9.60856 2.27262 9.08623 1.75028 8.44189 1.75028H6.10856C5.46423 1.75028 4.94189 2.27262 4.94189 2.91695V4.08362H9.60856V2.91695ZM3.19189 5.25029C2.86973 5.25029 2.60856 5.51145 2.60856 5.83362V11.667C2.60856 11.9891 2.86973 12.2503 3.19189 12.2503H11.3586C11.6807 12.2503 11.9419 11.9891 11.9419 11.667V5.83362C11.9419 5.51145 11.6807 5.25029 11.3586 5.25029H3.19189ZM7.27523 9.91695C8.08064 9.91695 8.73356 9.26403 8.73356 8.45862C8.73356 7.6532 8.08064 7.00029 7.27523 7.00029C6.46981 7.00029 5.81689 7.6532 5.81689 8.45862C5.81689 9.26403 6.46981 9.91695 7.27523 9.91695Z" fill="white" fill-opacity="0.12"/>
</g>
<defs>
<clipPath id="clip0_62_8497">
<rect width="14" height="14" fill="white" transform="translate(0.275391 0.000305176)"/>
</clipPath>
</defs>
</svg>
