<svg width="238" height="22" viewBox="0 0 278 22" fill="none" xmlns="http://www.w3.org/2000/svg">
    <path d="M18.3659 0.75108C13.6911 0.720684 11.1904 0.768553 10.8549 0.889421C10.6871 0.949974 10.5165 1.01053 10.3487 1.07108C10.4444 1.11632 10.5452 1.15988 10.6409 1.20511C10.8329 1.29582 10.9947 1.47796 11.1385 1.7501C11.2824 2.02223 11.3458 2.3561 11.3218 2.7491C11.2979 3.1421 11.2125 3.42836 11.0686 3.60978C10.9248 3.7912 10.6842 3.86492 10.3487 3.83476C10.0129 3.80436 9.70653 3.67009 9.41884 3.42812C9.13139 3.18638 8.85352 2.86973 8.58976 2.47673C8.32601 2.08373 8.19246 1.74962 8.19246 1.47772C8.19246 1.34154 8.1927 1.20703 8.19246 1.07108C8.15656 1.07108 8.12376 1.07108 8.08786 1.07108C8.01582 1.07108 7.90429 1.18812 7.76045 1.43009C7.6166 1.67183 7.54671 1.932 7.54671 2.20413C7.54671 2.47626 7.63192 2.80583 7.7997 3.19883C7.96748 3.59206 8.0376 3.88263 8.01367 4.06405C7.98973 4.24523 7.90429 4.33642 7.76045 4.33642C7.6166 4.33642 7.30593 4.15428 6.82653 3.79144C6.34713 3.4286 5.91392 3.22922 5.53025 3.19883C5.14683 3.16867 4.77705 3.2467 4.41732 3.42812C4.23757 3.51883 4.05591 3.61002 3.87617 3.70073C4.00805 3.77612 4.1416 3.85008 4.27348 3.92548C4.53699 4.07674 4.71865 4.22847 4.81463 4.37974C4.91036 4.53076 4.9477 4.69567 4.92376 4.87709C4.89959 5.05851 4.79907 5.24066 4.63129 5.42208C4.46351 5.6035 4.17893 5.78564 3.77157 5.96682C3.36397 6.14824 2.90444 6.22196 2.40111 6.1918C1.89753 6.16165 1.53875 6.0142 1.32311 5.74207C1.21516 5.60589 1.10794 5.46707 1 5.33113C1 5.39168 1 5.45223 1 5.51278C1 5.63365 1.14456 5.90699 1.43225 6.33014C1.71994 6.75354 2.10049 7.07018 2.57989 7.28175C3.05953 7.49333 3.54085 7.58428 4.02025 7.55412C4.49965 7.52397 4.99198 7.35906 5.49531 7.05677C5.99889 6.75448 6.36197 6.58528 6.57786 6.55512C6.7935 6.52497 6.98163 6.54219 7.1494 6.60275C7.31718 6.66306 7.45074 6.76717 7.54671 6.91843C7.64245 7.06946 7.67979 7.23867 7.65585 7.42009C7.63168 7.60151 7.50913 7.79658 7.29349 8.0084C7.07784 8.21998 6.76717 8.40212 6.35957 8.55314C5.95197 8.7044 5.74854 8.80852 5.74854 8.86907C5.74854 8.92939 5.86677 9.02058 6.10635 9.14144C6.34617 9.26231 6.73127 9.32311 7.25854 9.32311C7.78605 9.32311 8.4227 9.18859 9.16586 8.91646C9.90901 8.64433 10.375 8.50575 10.5667 8.50575C10.7587 8.50575 10.9621 8.56631 11.1778 8.68742C11.3936 8.80829 11.5751 9.00334 11.7189 9.27547C11.8628 9.54761 11.9329 9.85109 11.9329 10.1838C11.9329 10.5162 11.8848 10.7721 11.7888 10.9535C11.6928 11.1349 11.5595 11.2737 11.3917 11.3645C11.224 11.4552 10.9131 11.4856 10.4576 11.4554C10.0021 11.425 9.68068 11.4382 9.48873 11.4985C9.29701 11.559 9.05624 11.6804 8.76855 11.8618C8.4811 12.0432 8.21854 12.2991 7.97872 12.6318C7.85881 12.7979 7.73627 12.9671 7.61636 13.1334C7.74824 13.088 7.88179 13.0403 8.01367 12.9951C8.27742 12.9044 8.62518 12.874 9.05672 12.9041C9.48825 12.9343 9.85803 13.0427 10.1697 13.2241C10.4813 13.4056 10.829 13.705 11.2127 14.1281C11.5964 14.5513 11.8479 14.8722 11.9678 15.0841C12.0875 15.2956 12.1619 16.2149 12.1859 17.8475C12.21 19.4803 12.9977 20.2955 14.5558 20.2955C15.3349 20.2955 16.1159 20.2955 16.8952 20.2955C16.9071 19.2979 16.9181 18.3003 16.9301 17.3028C16.9406 16.416 16.95 15.5295 16.9605 14.6427V13.1767H21.4515C22.2684 13.0877 22.918 12.329 22.918 11.3774V10.2314H16.9605V7.60607H16.965C16.965 7.57424 16.965 7.54288 16.965 7.51104C16.965 7.26907 16.9998 5.47784 16.9998 5.2361C17.791 5.2361 18.583 5.2361 19.374 5.2361C20.9563 5.2361 22.4395 5.28541 23.6381 3.41089C24.8368 1.53636 25.2501 1.09166 25.3097 0.971512C25.337 0.916224 25.3674 0.859023 25.3793 0.79847C23.0422 0.783391 20.7033 0.766159 18.3659 0.75108Z" stroke="#FDAB19" stroke-width="1.50281" stroke-miterlimit="10" stroke-linejoin="round"/>
    <path d="M32.7267 0.37793V19.0643L31.1312 17.5227H46.41V20.6597H29.1571V0.37793H32.7267Z" fill="#FDAB19"/>
    <path d="M51.8186 16.0084V13.0609H65.9888V16.0084H51.8186ZM61.2293 0.37793L70.9645 20.6597H67.1515L58.3088 1.73021H59.6879L50.8449 20.6597H47.032L56.7672 0.37793H61.2293Z" fill="#FDAB19"/>
    <path d="M100.711 0.37793V20.6597H97.3036V1.45975L98.4123 1.51385L88.9745 20.6597H85.1616L75.7239 1.54089L76.8325 1.4868V20.6597H73.4252V0.37793H78.8877L87.9738 19.1184H86.1891L95.2484 0.37793H100.711Z" fill="#FDAB19"/>
    <path d="M121.452 9.03157V12.0061H107.282V9.03157H121.452ZM109.635 10.5188L108.202 19.5779L106.498 17.5768H122.237V20.6597H104.551L106.173 10.5188L104.551 0.37793H122.101V3.46089H106.498L108.202 1.45975L109.635 10.5188Z" fill="#FDAB19"/>
    <path d="M134.784 16.0084V13.0609H148.954V16.0084H134.784ZM144.195 0.37793L153.93 20.6597H150.117L141.274 1.73021H142.653L133.811 20.6597H129.998L139.733 0.37793H144.195Z" fill="#FDAB19"/>
    <path d="M158.554 11.952C158.554 13.16 158.798 14.2057 159.284 15.0891C159.772 15.9725 160.469 16.6529 161.381 17.1307C162.29 17.6084 163.377 17.8472 164.638 17.8472C165.919 17.8472 167.01 17.6084 167.91 17.1307C168.812 16.6529 169.506 15.9725 169.992 15.0891C170.481 14.2057 170.722 13.16 170.722 11.952V0.37793H174.293V12.0872C174.293 13.872 173.886 15.4361 173.075 16.7791C172.264 18.1222 171.139 19.1679 169.696 19.9161C168.255 20.6643 166.567 21.0384 164.638 21.0384C162.728 21.0384 161.046 20.6643 159.595 19.9161C158.145 19.1679 157.013 18.1222 156.201 16.7791C155.39 15.4361 154.986 13.872 154.986 12.0872V0.37793H158.554V11.952Z" fill="#FDAB19"/>
    <path d="M199.955 12.6289C199.776 14.2875 199.194 15.7523 198.213 17.0232C197.229 18.2941 195.944 19.2811 194.357 19.9843C192.772 20.6875 190.961 21.0391 188.921 21.0391C186.65 21.0391 184.659 20.5973 182.945 19.7139C181.234 18.8304 179.898 17.6002 178.943 16.0227C177.988 14.4452 177.51 12.6109 177.51 10.5195C177.51 8.42818 177.988 6.59387 178.943 5.01637C179.898 3.43887 181.234 2.20864 182.945 1.32523C184.659 0.441822 186.65 0 188.921 0C190.961 0 192.772 0.351589 194.357 1.05477C195.944 1.75796 197.229 2.74047 198.213 4.00228C199.194 5.26432 199.776 6.73364 199.955 8.41023H196.36C196.162 7.32864 195.733 6.39999 195.075 5.625C194.417 4.84978 193.565 4.25023 192.519 3.8266C191.473 3.40296 190.267 3.19114 188.895 3.19114C187.308 3.19114 185.934 3.48865 184.771 4.08341C183.608 4.67841 182.713 5.52568 182.081 6.62545C181.449 7.72523 181.133 9.02318 181.133 10.5195C181.133 12.0159 181.449 13.3139 182.081 14.4136C182.713 15.5134 183.608 16.3607 184.771 16.9557C185.934 17.5504 187.308 17.848 188.895 17.848C190.267 17.848 191.473 17.6407 192.519 17.2261C193.565 16.8114 194.417 16.2121 195.075 15.4277C195.733 14.6434 196.162 13.7104 196.36 12.6289H199.955Z" fill="#FDAB19"/>
    <path d="M208.799 2.02747H212.368V20.6597H208.799V2.02747ZM200.415 0.37793H220.752V3.51498H200.415V0.37793Z" fill="#FDAB19"/>
    <path d="M223.456 0.37793H227.025V20.6597H223.456V0.37793Z" fill="#FDAB19"/>
    <path d="M242.116 21.0391C239.808 21.0391 237.779 20.5973 236.032 19.7139C234.282 18.8304 232.92 17.6002 231.948 16.0227C230.974 14.4452 230.486 12.6109 230.486 10.5195C230.486 8.42818 230.974 6.59387 231.948 5.01637C232.92 3.43887 234.282 2.20864 236.032 1.32523C237.779 0.441822 239.808 0 242.116 0C244.423 0 246.45 0.441822 248.2 1.32523C249.949 2.20864 251.309 3.43887 252.283 5.01637C253.257 6.59387 253.743 8.42818 253.743 10.5195C253.743 12.6109 253.257 14.4452 252.283 16.0227C251.309 17.6002 249.949 18.8304 248.2 19.7139C246.45 20.5973 244.423 21.0391 242.116 21.0391ZM242.116 17.848C243.755 17.848 245.172 17.5504 246.362 16.9557C247.551 16.3607 248.475 15.5134 249.133 14.4136C249.791 13.3139 250.119 12.0159 250.119 10.5195C250.119 9.02318 249.791 7.72523 249.133 6.62545C248.475 5.52568 247.551 4.67841 246.362 4.08341C245.172 3.48865 243.755 3.19114 242.116 3.19114C240.493 3.19114 239.081 3.48865 237.884 4.08341C236.685 4.67841 235.756 5.52568 235.098 6.62545C234.44 7.72523 234.11 9.02318 234.11 10.5195C234.11 12.0159 234.44 13.3139 235.098 14.4136C235.756 15.5134 236.685 16.3607 237.884 16.9557C239.081 17.5504 240.493 17.848 242.116 17.848Z" fill="#FDAB19"/>
    <path d="M275.999 18.4963L274.539 18.6586V0.37793H278V20.6597H273.457L259.233 2.37906L260.667 2.21679V20.6597H257.203V0.37793H261.856L275.999 18.4963Z" fill="#FDAB19"/>
</svg>
