<svg width="25" height="22" viewBox="0 0 25 22" fill="none" xmlns="http://www.w3.org/2000/svg">
    <path d="M18.3659 0.75108C13.6911 0.720684 11.1904 0.768553 10.8549 0.889421C10.6871 0.949974 10.5165 1.01053 10.3487 1.07108C10.4444 1.11632 10.5452 1.15988 10.6409 1.20511C10.8329 1.29582 10.9947 1.47796 11.1385 1.7501C11.2824 2.02223 11.3458 2.3561 11.3218 2.7491C11.2979 3.1421 11.2125 3.42836 11.0686 3.60978C10.9248 3.7912 10.6842 3.86492 10.3487 3.83476C10.0129 3.80436 9.70653 3.67009 9.41884 3.42812C9.13139 3.18638 8.85352 2.86973 8.58976 2.47673C8.32601 2.08373 8.19246 1.74962 8.19246 1.47772C8.19246 1.34154 8.1927 1.20703 8.19246 1.07108C8.15656 1.07108 8.12376 1.07108 8.08786 1.07108C8.01582 1.07108 7.90429 1.18812 7.76045 1.43009C7.6166 1.67183 7.54671 1.932 7.54671 2.20413C7.54671 2.47626 7.63192 2.80583 7.7997 3.19883C7.96748 3.59206 8.0376 3.88263 8.01367 4.06405C7.98973 4.24523 7.90429 4.33642 7.76045 4.33642C7.6166 4.33642 7.30593 4.15428 6.82653 3.79144C6.34713 3.4286 5.91392 3.22922 5.53025 3.19883C5.14683 3.16867 4.77705 3.2467 4.41732 3.42812C4.23757 3.51883 4.05591 3.61002 3.87617 3.70073C4.00805 3.77612 4.1416 3.85008 4.27348 3.92548C4.53699 4.07674 4.71865 4.22847 4.81463 4.37974C4.91036 4.53076 4.9477 4.69567 4.92376 4.87709C4.89959 5.05851 4.79907 5.24066 4.63129 5.42208C4.46351 5.6035 4.17893 5.78564 3.77157 5.96682C3.36397 6.14824 2.90444 6.22196 2.40111 6.1918C1.89753 6.16165 1.53875 6.0142 1.32311 5.74207C1.21516 5.60589 1.10794 5.46707 1 5.33113C1 5.39168 1 5.45223 1 5.51278C1 5.63365 1.14456 5.90699 1.43225 6.33014C1.71994 6.75354 2.10049 7.07018 2.57989 7.28175C3.05953 7.49333 3.54085 7.58428 4.02025 7.55412C4.49965 7.52397 4.99198 7.35906 5.49531 7.05677C5.99889 6.75448 6.36197 6.58528 6.57786 6.55512C6.7935 6.52497 6.98163 6.54219 7.1494 6.60275C7.31718 6.66306 7.45074 6.76717 7.54671 6.91843C7.64245 7.06946 7.67979 7.23867 7.65585 7.42009C7.63168 7.60151 7.50913 7.79658 7.29349 8.0084C7.07784 8.21998 6.76717 8.40212 6.35957 8.55314C5.95197 8.7044 5.74854 8.80852 5.74854 8.86907C5.74854 8.92939 5.86677 9.02058 6.10635 9.14144C6.34617 9.26231 6.73127 9.32311 7.25854 9.32311C7.78605 9.32311 8.4227 9.18859 9.16586 8.91646C9.90901 8.64433 10.375 8.50575 10.5667 8.50575C10.7587 8.50575 10.9621 8.56631 11.1778 8.68742C11.3936 8.80829 11.5751 9.00334 11.7189 9.27547C11.8628 9.54761 11.9329 9.85109 11.9329 10.1838C11.9329 10.5162 11.8848 10.7721 11.7888 10.9535C11.6928 11.1349 11.5595 11.2737 11.3917 11.3645C11.224 11.4552 10.9131 11.4856 10.4576 11.4554C10.0021 11.425 9.68068 11.4382 9.48873 11.4985C9.29701 11.559 9.05624 11.6804 8.76855 11.8618C8.4811 12.0432 8.21854 12.2991 7.97872 12.6318C7.85881 12.7979 7.73627 12.9671 7.61636 13.1334C7.74824 13.088 7.88179 13.0403 8.01367 12.9951C8.27742 12.9044 8.62518 12.874 9.05672 12.9041C9.48825 12.9343 9.85803 13.0427 10.1697 13.2241C10.4813 13.4056 10.829 13.705 11.2127 14.1281C11.5964 14.5513 11.8479 14.8722 11.9678 15.0841C12.0875 15.2956 12.1619 16.2149 12.1859 17.8475C12.21 19.4803 12.9977 20.2955 14.5558 20.2955C15.3349 20.2955 16.1159 20.2955 16.8952 20.2955C16.9071 19.2979 16.9181 18.3003 16.9301 17.3028C16.9406 16.416 16.95 15.5295 16.9605 14.6427V13.1767H21.4515C22.2684 13.0877 22.918 12.329 22.918 11.3774V10.2314H16.9605V7.60607H16.965C16.965 7.57424 16.965 7.54288 16.965 7.51104C16.965 7.26907 16.9998 5.47784 16.9998 5.2361C17.791 5.2361 18.583 5.2361 19.374 5.2361C20.9563 5.2361 22.4395 5.28541 23.6381 3.41089C24.8368 1.53636 25.2501 1.09166 25.3097 0.971512C25.337 0.916224 25.3674 0.859023 25.3793 0.79847C23.0422 0.783391 20.7033 0.766159 18.3659 0.75108Z" stroke="#FDAB19" stroke-width="1.50281" stroke-miterlimit="10" stroke-linejoin="round"/>

</svg>
