<svg width="23" height="23" viewBox="0 0 23 23" fill="none" xmlns="http://www.w3.org/2000/svg">
<path d="M14.2462 14.4982C14.0808 14.4982 13.8969 14.489 13.7315 14.4798C13.3914 14.4614 13.1157 14.1857 13.0881 13.8456C12.8859 11.2813 10.7995 9.20405 8.24436 9.00185C7.90429 8.97427 7.62855 8.69856 7.61017 8.35848C7.60098 8.19304 7.5918 8.00922 7.5918 7.84378C7.5918 4.16731 10.5789 1.18018 14.2554 1.18018C17.9319 1.18018 20.919 4.16731 20.919 7.84378C20.919 11.5202 17.9227 14.4982 14.2462 14.4982ZM8.96127 7.70589C11.7002 8.19302 13.8969 10.3805 14.3749 13.1195C17.2333 13.046 19.5311 10.7114 19.5311 7.83458C19.5311 4.92098 17.1598 2.54965 14.2462 2.54965C11.3786 2.54965 9.0348 4.84743 8.96127 7.70589Z" fill="white"/>
<path d="M7.81204 20.9319C4.13557 20.9319 1.14844 17.9448 1.14844 14.2683C1.14844 10.5919 4.13557 7.60474 7.81204 7.60474C7.97748 7.60474 8.1613 7.61392 8.32674 7.62311C11.5712 7.88046 14.1999 10.5092 14.4481 13.7353C14.4573 13.9191 14.4664 14.1029 14.4664 14.2683C14.4756 17.9448 11.4885 20.9319 7.81204 20.9319ZM7.81204 8.98341C4.89844 8.98341 2.52711 11.3547 2.52711 14.2683C2.52711 17.1819 4.89844 19.5533 7.81204 19.5533C10.7256 19.5533 13.097 17.1819 13.097 14.2683C13.097 14.1213 13.0878 13.9742 13.0786 13.8272C12.8764 11.2812 10.79 9.19482 8.23483 8.99261C8.10615 8.99261 7.9591 8.98341 7.81204 8.98341Z" fill="white"/>
<path d="M7.81233 17.2555C7.56417 17.2555 7.32519 17.1176 7.20571 16.897L6.4888 15.5919L5.18366 14.875C4.96308 14.7555 4.8252 14.5257 4.8252 14.2684C4.8252 14.011 4.96308 13.7812 5.18366 13.6618L6.4888 12.9449L7.20571 11.6397C7.44468 11.1985 8.17079 11.1985 8.41895 11.6397L9.13586 12.9449L10.441 13.6618C10.6616 13.7812 10.7995 14.011 10.7995 14.2684C10.7995 14.5257 10.6616 14.7555 10.441 14.875L9.13586 15.5919L8.41895 16.897C8.29946 17.1176 8.06049 17.2555 7.81233 17.2555ZM6.94835 14.2684L7.3252 14.4798C7.44468 14.5441 7.53658 14.636 7.60092 14.7555L7.81233 15.1324L8.02373 14.7555C8.08807 14.636 8.17997 14.5441 8.29946 14.4798L8.6763 14.2684L8.29946 14.057C8.17997 13.9926 8.08807 13.9007 8.02373 13.7813L7.81233 13.4044L7.60092 13.7813C7.53658 13.9007 7.44468 13.9926 7.3252 14.057L6.94835 14.2684Z" fill="white"/>
</svg>
