<svg width="154" height="38" viewBox="0 0 154 38" fill="none" xmlns="http://www.w3.org/2000/svg">
    <path
        d="M10.6983 31.9999C10.6145 31.911 11.6058 30.2961 11.8501 29.9998C11.2697 30.9676 12.2826 32.2692 13.0818 32.3317C13.0907 32.3322 13.0989 32.3327 13.1066 32.3333C13.0983 32.3329 13.0901 32.3324 13.0818 32.3317C12.8468 32.3192 12.1816 32.3333 11.5359 32.3333C10.6983 32.3333 10.803 32.1111 10.6983 31.9999Z"
        fill="#ffa01c"/>
    <path
        d="M13.9443 26.3328C13.7767 26.5106 13.1066 27.8514 13.0019 28.1107C13.5883 27.3106 14.6772 26.3328 15.0961 26.9995C15.0612 26.9254 14.8448 26.5106 14.6772 26.3328C14.4678 26.1105 14.1537 26.1105 13.9443 26.3328Z"
        fill="#ffa01c"/>
    <path
        d="M15.5149 27.444C15.3474 27.1773 14.8867 26.7773 14.8867 26.7773C15.7243 27.5551 15.0961 28.7774 14.7819 29.2219C14.9216 29.0367 15.4521 28.4885 15.6196 28.2218C15.829 27.8885 15.7243 27.7773 15.5149 27.444Z"
        fill="#ffa01c"/>
    <path fill-rule="evenodd" clip-rule="evenodd"
          d="M29.1129 1.49703C29.0654 1.40669 28.9991 1.30713 28.9181 1.22115C28.8371 1.13517 28.7362 1.05738 28.6199 1.0212C28.5 0.983904 28.3689 0.9928 28.2389 1.07213C28.1123 1.14936 27.9937 1.28889 27.8838 1.49891C27.4662 2.2966 20.1035 15.2353 16.4724 21.6082L16.4702 21.612L16.4683 21.616C16.4058 21.7488 16.2843 21.8947 16.1285 21.9356C15.9838 21.9737 15.7679 21.9308 15.489 21.5925C14.8989 20.8769 14.3296 20.3246 14.116 20.1358L14.1117 20.132L14.1071 20.1287C14.0206 20.0675 13.9001 19.9319 13.8398 19.7317C13.7807 19.5353 13.7771 19.2689 13.9332 18.9374C14.2699 18.2229 14.9817 16.4158 15.2962 15.6002C15.3188 15.5528 15.3498 15.5019 15.3856 15.4596C15.4232 15.4154 15.4601 15.3875 15.4924 15.3764C15.5196 15.367 15.5478 15.3674 15.5832 15.3915C15.6234 15.4187 15.6768 15.4794 15.7354 15.6038C15.989 16.1421 16.5371 16.9382 16.7854 17.2781C16.8145 17.3471 16.8554 17.4225 16.9071 17.4887C16.9614 17.5583 17.0336 17.6252 17.1231 17.6569C17.2176 17.6903 17.3209 17.6806 17.4225 17.6147C17.5198 17.5516 17.6118 17.4398 17.7 17.276C18.0241 16.6741 18.3089 16.1625 18.4214 15.9632C18.5 15.8945 18.5527 15.7695 18.5379 15.6047C18.5221 15.4275 18.4297 15.2032 18.2131 14.9273C17.7963 14.3966 16.2311 12.2705 15.4961 11.2677C15.4492 11.1888 15.3867 11.1021 15.3142 11.0269C15.241 10.9512 15.1515 10.8808 15.0514 10.8476C14.9468 10.8129 14.8319 10.8199 14.7252 10.8985C14.6237 10.9733 14.5409 11.1045 14.4745 11.2925C14.2249 11.9989 10.8898 20.0088 9.24627 23.9424C9.19857 24.0087 9.13818 24.08 9.0727 24.1404C9.00284 24.2049 8.93344 24.2511 8.87235 24.2707C8.81492 24.289 8.77196 24.2824 8.73489 24.2525C8.69225 24.2181 8.64033 24.1393 8.60099 23.9723C8.43277 23.2582 6.99376 18.0394 6.29627 15.5227L6.2961 15.5221C6.27098 15.4333 6.24896 15.3348 6.23846 15.2488C6.23321 15.2058 6.23114 15.1683 6.23233 15.1381C6.23276 15.1272 6.23358 15.1181 6.23457 15.1108C6.23589 15.1115 6.23727 15.1122 6.23871 15.113C6.29507 15.1442 6.39026 15.2284 6.53584 15.405C7.12323 16.1174 8.73389 17.9229 9.4677 18.7388C9.54291 18.8374 9.67441 18.9683 9.82406 19.0092C9.90446 19.0312 9.9945 19.028 10.0791 18.9745C10.1614 18.9224 10.225 18.8314 10.272 18.7067L10.8982 17.0454C10.9529 16.9321 10.9682 16.7024 10.7755 16.4791L1.66818 5.92536C1.59672 5.83083 1.51251 5.73159 1.43155 5.65688C1.39086 5.61934 1.34784 5.58503 1.3052 5.56099C1.26562 5.53869 1.2101 5.51584 1.15105 5.52723C1.0799 5.54096 1.03671 5.59633 1.01699 5.65832C0.999059 5.7147 0.996849 5.78436 1.00331 5.86168C1.01643 6.01862 1.06987 6.25325 1.17516 6.58844C1.59329 7.91965 5.95332 23.1332 8.08344 30.5819C8.11054 30.7334 8.15246 30.9017 8.20923 31.0478C8.26445 31.1898 8.34237 31.3342 8.4526 31.4057C8.51215 31.4444 8.58231 31.4625 8.65807 31.4453C8.73096 31.4288 8.79742 31.3824 8.8581 31.3163C8.97761 31.1861 9.09892 30.9532 9.22571 30.5944C9.72682 29.1762 11.4563 25.0465 12.2597 23.1559L12.2625 23.1492L12.2645 23.1422C12.3121 22.974 12.4252 22.7954 12.5977 22.7452C12.765 22.6964 13.0416 22.7539 13.4514 23.1888C14.2875 24.0762 17.6366 27.8525 19.208 29.6313L19.2092 29.6326L19.2104 29.6338C19.2579 29.6842 19.3052 29.7459 19.3388 29.8083C19.3735 29.8728 19.3871 29.9259 19.3842 29.9631C19.3822 29.9906 19.371 30.0213 19.3183 30.0506C19.259 30.0836 19.1519 30.1109 18.9703 30.1109H15.0896L15.0831 30.1117C15.0208 30.12 14.9484 30.1214 14.8808 30.111C14.8121 30.1003 14.7571 30.0788 14.7212 30.0486C14.6893 30.022 14.6679 29.9855 14.6667 29.925C14.6655 29.8586 14.6891 29.7572 14.7682 29.6104C15.0977 28.9983 15.5244 28.4801 15.6937 28.3004C15.8524 28.1319 15.9277 27.7072 15.4906 27.1506C15.084 26.6327 14.8396 26.3493 14.7584 26.2618C14.676 26.1358 14.5171 25.9909 14.3042 26.0052C14.0843 26.0199 13.8586 26.201 13.6433 26.6122C13.2273 27.4069 11.7374 30.0325 11.0355 31.2618C10.9474 31.3471 10.8537 31.4526 10.7767 31.5646C10.6977 31.6793 10.629 31.8113 10.6105 31.9416C10.6009 32.0085 10.6041 32.0786 10.6292 32.1457C10.6545 32.2136 10.6995 32.2709 10.7619 32.3158C10.8823 32.4026 11.0689 32.4444 11.3266 32.4444C12.3299 32.4444 20.467 32.6666 24.4124 32.7777L24.4152 32.7778C24.4765 32.7778 24.5482 32.7682 24.6131 32.7406C24.6779 32.7131 24.7473 32.6623 24.7798 32.5736C24.8124 32.4845 24.7981 32.3842 24.7509 32.2807C24.7038 32.1774 24.6189 32.059 24.4892 31.9213C23.9888 31.3903 20.0962 26.8892 18.2099 24.7021L18.2033 24.6944L18.1955 24.6882C18.0793 24.5957 17.8764 24.3115 18.0204 23.9294C18.1004 23.7173 18.3395 23.272 18.6123 22.7927C18.8816 22.3195 19.1777 21.8232 19.3693 21.5088C19.4259 21.4359 19.5275 21.3622 19.6504 21.3629C19.7708 21.3636 19.9437 21.4363 20.1416 21.7303C20.5614 22.354 25.4711 29.0868 27.8819 32.3868C27.9114 32.4748 27.9564 32.5706 28.018 32.6546C28.0837 32.7443 28.1727 32.8264 28.2869 32.8643C28.5279 32.9445 28.8046 32.8114 29.105 32.4015C29.6913 31.6016 34.5846 24.9567 36.9581 21.7341L36.9645 21.7254L36.9692 21.7154C37.0348 21.5762 37.1482 21.4331 37.2716 21.3945C37.3278 21.3769 37.3906 21.3792 37.4633 21.4214C37.5391 21.4656 37.6299 21.5561 37.7291 21.7246C38.1475 22.4349 38.6707 23.3529 38.88 23.723L38.8841 23.7304L38.8893 23.737C38.9607 23.8279 39.0395 24.0057 39.025 24.2305C39.0106 24.4518 38.9047 24.7315 38.5867 25.0268C38.2463 25.3428 37.1594 26.5618 35.9455 27.949C34.7313 29.3363 33.3835 30.8997 32.5106 31.9187C32.3355 32.0681 32.1051 32.2992 32.0031 32.5035C31.954 32.6018 31.9127 32.7389 31.9877 32.8547C32.0591 32.9646 32.2024 33 32.3731 33C33.046 33 41.7311 32.6295 45.9876 32.4444C46.1047 32.4435 46.264 32.3802 46.3095 32.1817C46.3507 32.0018 46.286 31.7453 46.074 31.3854C45.657 30.6772 44.0894 27.7643 43.3552 26.3915C43.2936 26.2624 43.1629 26.1006 42.9642 26.0522C42.7569 26.0017 42.5125 26.0829 42.2464 26.3653L41.7945 26.8449L41.7636 26.8776L41.7464 26.896L41.7294 26.914L41.7127 26.9317L41.6942 26.9513L41.6922 26.9534L41.5719 27.0811L41.5498 27.1046L41.5316 27.1238L41.522 27.134L41.5204 27.1357L41.5188 27.1374L41.4881 27.17L41.4866 27.1716L41.4524 27.2079L41.451 27.2094L41.4497 27.2108L41.4483 27.2122L41.447 27.2137L41.4456 27.2151L41.4443 27.2165L41.4429 27.2179L41.4416 27.2194L41.4324 27.2291L41.4311 27.2305L41.4111 27.2517L41.4099 27.253L41.4004 27.2631L41.3993 27.2643L41.3981 27.2655L41.3607 27.3052L41.3421 27.325L41.3287 27.3392L41.3279 27.34L41.3271 27.3409L41.3263 27.3417L41.3255 27.3425L41.3248 27.3434L41.324 27.3442L41.3232 27.345L41.3225 27.3458L41.3217 27.3466L41.321 27.3474L41.3202 27.3482L41.3195 27.3489L41.318 27.3505L41.3173 27.3513L41.3166 27.352L41.3159 27.3528L41.3145 27.3543L41.3138 27.355L41.3131 27.3557L41.3124 27.3565L41.3117 27.3572L41.3071 27.3621L41.3065 27.3627L41.3059 27.3634L41.3052 27.3641L41.3046 27.3647L41.304 27.3654L41.2967 27.3732L41.2909 27.3823C41.1878 27.5465 41.1524 27.9336 41.5057 28.4024C41.8363 28.8409 42.0557 29.2418 42.1221 29.3827L42.125 29.3889L42.1286 29.3947C42.1598 29.4444 42.1917 29.5065 42.2147 29.5705C42.2381 29.6356 42.2497 29.6957 42.2473 29.7438C42.245 29.7889 42.2312 29.8184 42.206 29.8395C42.1774 29.8633 42.1194 29.8886 42.0063 29.8886H37.9171C37.9297 29.8507 37.9565 29.7929 38.0081 29.7099C38.0724 29.6064 38.1708 29.4707 38.3156 29.2951C38.9007 28.5854 42.3966 24.557 44.0727 22.63L44.0745 22.628L44.0762 22.6258C44.1591 22.5202 44.2829 22.4088 44.3913 22.3788C44.4408 22.3651 44.4794 22.3703 44.512 22.3922C44.5472 22.4159 44.5918 22.4701 44.6294 22.5898C44.7149 22.8619 45.2934 24.3313 45.9778 26.0483C46.6632 27.7677 47.4585 29.7443 47.9821 31.0408C48.0186 31.147 48.0687 31.265 48.1284 31.3677C48.1866 31.4675 48.263 31.5687 48.3572 31.6187C48.407 31.6452 48.465 31.6588 48.5268 31.6461C48.5881 31.6334 48.6416 31.5973 48.6874 31.5462C48.7755 31.4478 48.8495 31.2777 48.9134 31.0291C49.1642 30.0532 53.6227 14.3331 55.8224 6.58886C55.8754 6.43867 55.9275 6.26814 55.9613 6.11385C55.9783 6.03617 55.9912 5.9605 55.9968 5.89241C56.0023 5.82644 56.0019 5.75819 55.9861 5.70014C55.9696 5.6396 55.9291 5.57022 55.8462 5.55239C55.7762 5.53733 55.7059 5.56753 55.6457 5.60587C55.5209 5.68539 55.3504 5.85884 55.1197 6.14816C54.2005 7.30107 48.9468 13.2912 46.4323 16.1449C46.4163 16.163 46.3984 16.1827 46.3791 16.2038C46.2882 16.3034 46.1683 16.4347 46.0911 16.5855C46.0429 16.6798 46.0079 16.7871 46.0052 16.9061C46.0025 17.0261 46.0328 17.1506 46.1049 17.278C46.3528 17.7166 46.622 18.2656 46.7275 18.4891C46.7702 18.5995 46.8684 18.7434 47.0331 18.7871C47.2066 18.8332 47.4084 18.7569 47.6299 18.5218C48.0496 18.0764 49.76 16.1872 50.5626 15.2984C50.6299 15.2271 50.7078 15.1525 50.7809 15.0943C50.8176 15.0651 50.8517 15.0412 50.8814 15.024C50.8953 15.0159 50.9072 15.01 50.917 15.0058C50.915 15.0706 50.8878 15.1936 50.8093 15.4017C50.4719 16.2968 49.0599 21.2676 48.3979 23.6342L48.3976 23.6353C48.3641 23.7598 48.3162 23.8981 48.2579 24.0186C48.1982 24.142 48.1334 24.2343 48.0714 24.2807C48.042 24.3027 48.0173 24.3113 47.9966 24.3123C47.9769 24.3132 47.9516 24.3078 47.9189 24.2843C47.8481 24.2335 47.7553 24.1072 47.6525 23.8454C47.2332 22.7773 44.0567 15.1018 42.5212 11.3985C42.461 11.2495 42.3198 11.0614 42.089 11.0456C41.8599 11.0299 41.5946 11.1884 41.2954 11.5966C40.9325 12.0918 40.2598 12.9524 39.6584 13.7218C39.2886 14.1948 38.9458 14.6334 38.7186 14.9313C38.7098 14.9428 38.6998 14.9556 38.6888 14.9695C38.6177 15.06 38.5084 15.1992 38.4499 15.3652C38.4151 15.4641 38.3964 15.576 38.4129 15.6976C38.4293 15.8194 38.4801 15.9436 38.5738 16.068C38.9063 16.509 39.2674 17.0616 39.4062 17.2825L39.4119 17.2917L39.4192 17.2994C39.5146 17.4007 39.6791 17.5278 39.8632 17.5661C39.9575 17.5856 40.0603 17.5824 40.1603 17.5364C40.2606 17.4902 40.3489 17.4052 40.4207 17.278C40.669 16.839 41.1477 16.1393 41.3571 15.843L41.3628 15.835L41.367 15.826C41.3811 15.7961 41.4005 15.7641 41.4225 15.7381C41.4453 15.7112 41.4651 15.6977 41.4785 15.6931C41.487 15.6901 41.4949 15.6892 41.5095 15.6991C41.5288 15.7122 41.5609 15.7461 41.5985 15.826C41.7023 16.0463 42.0417 16.8219 42.3694 17.5731C42.4254 17.7016 42.4811 17.8294 42.5353 17.9535C42.7964 18.5523 43.0203 19.0659 43.0644 19.1596C43.0709 19.1733 43.0774 19.1869 43.084 19.2005C43.1347 19.306 43.1843 19.409 43.1843 19.5405C43.1843 19.682 43.1242 19.8777 42.8746 20.1426C42.7813 20.2416 42.6646 20.3827 42.5354 20.539C42.4795 20.6065 42.4214 20.6769 42.3617 20.7479C42.161 20.9869 41.9391 21.2392 41.7156 21.4424C41.4896 21.6481 41.2744 21.7917 41.0877 21.831C40.997 21.8501 40.9163 21.8439 40.8436 21.8112C40.7708 21.7785 40.6972 21.7151 40.6275 21.6041C40.1266 20.8068 32.7445 7.87091 29.1129 1.49703ZM28.3432 1.2648C28.2615 1.31467 28.1663 1.41682 28.0668 1.60684C27.6468 2.40912 20.2832 15.3493 16.6537 21.7195C16.5759 21.8824 16.4154 22.0892 16.1788 22.1514C15.9291 22.217 15.6389 22.1118 15.3314 21.7389C14.7525 21.0368 14.1946 20.4952 13.986 20.3101C13.8639 20.2219 13.7152 20.0477 13.6404 19.7994C13.5634 19.5439 13.567 19.2177 13.7459 18.838C14.0788 18.1314 14.7893 16.3281 15.1039 15.512L15.1054 15.5081L15.1071 15.5044C15.1367 15.4417 15.1783 15.3718 15.23 15.311C15.2807 15.2511 15.3472 15.1928 15.4275 15.1651C15.5129 15.1356 15.6064 15.1435 15.6959 15.2042C15.7808 15.2617 15.8556 15.362 15.9227 15.5044C16.1689 16.027 16.7145 16.8194 16.9588 17.1527L16.9671 17.164L16.9724 17.1771C16.9954 17.2342 17.0285 17.2959 17.0683 17.3469C17.1089 17.3988 17.1506 17.4324 17.1893 17.4461C17.2231 17.458 17.2625 17.458 17.3134 17.425C17.3685 17.3893 17.4389 17.3131 17.5182 17.1658C17.8536 16.5428 18.1472 16.0161 18.2523 15.8303L18.2644 15.8088L18.284 15.795C18.2985 15.7847 18.3396 15.7391 18.3294 15.6257C18.3191 15.5103 18.2545 15.3272 18.0522 15.0696C17.6319 14.5344 16.0598 12.3989 15.3276 11.3997L15.3243 11.3952L15.3214 11.3904C15.2814 11.3224 15.228 11.2482 15.1679 11.186C15.1069 11.1228 15.0451 11.0784 14.9889 11.0597C14.9374 11.0426 14.8912 11.0467 14.8446 11.0811C14.7927 11.1193 14.7298 11.2029 14.6706 11.3705C14.4178 12.0857 11.0719 20.1212 9.4328 24.0443L9.42798 24.0558L9.42085 24.0659C9.36487 24.1451 9.29189 24.2327 9.21011 24.3081C9.12945 24.3826 9.03394 24.4511 8.93273 24.4835C8.82786 24.517 8.71114 24.5125 8.60816 24.4294C8.51075 24.3508 8.44225 24.2148 8.39783 24.0262C8.23098 23.318 6.79409 18.1066 6.09543 15.5857C6.06824 15.4895 6.04317 15.3788 6.03078 15.2774C6.02458 15.2266 6.02125 15.1758 6.02309 15.1288C6.02487 15.0835 6.03172 15.0333 6.05172 14.9892C6.07335 14.9415 6.11348 14.896 6.17682 14.8829C6.23348 14.8712 6.2887 14.89 6.33549 14.9159C6.429 14.9676 6.54584 15.0796 6.69345 15.2587C7.27799 15.9676 8.8887 17.7732 9.62224 18.5887L9.6254 18.5922L9.62826 18.596C9.69319 18.6822 9.79055 18.7706 9.87625 18.794C9.91452 18.8044 9.9449 18.8007 9.97196 18.7835C10.0013 18.765 10.0407 18.7218 10.0775 18.6242L10.7082 16.951L10.7113 16.945C10.7237 16.9211 10.7595 16.7896 10.6211 16.6292L1.50904 6.07001L1.50685 6.06712C1.43917 5.97733 1.36286 5.88801 1.29413 5.82459C1.26128 5.79428 1.233 5.77254 1.21047 5.75929C1.20898 5.77798 1.2088 5.80482 1.21191 5.84204C1.22279 5.97215 1.26969 6.18663 1.37383 6.51817C1.79326 7.85351 6.15684 23.0795 8.28548 30.5231L8.28714 30.5289L8.2882 30.5349C8.31349 30.678 8.35236 30.8332 8.40282 30.963C8.45557 31.0987 8.51247 31.1841 8.56192 31.2162C8.58221 31.2294 8.59811 31.2317 8.61438 31.228C8.63352 31.2237 8.66506 31.2081 8.70811 31.1612C8.79606 31.0654 8.9051 30.8687 9.02962 30.5163C9.53314 29.0914 11.2627 24.9616 12.066 23.0711C12.1247 22.8698 12.273 22.6093 12.5423 22.5308C12.82 22.4499 13.1716 22.5777 13.5995 23.0317C14.4385 23.9221 17.7894 27.7004 19.3597 29.478C19.4166 29.5385 19.476 29.6152 19.5206 29.6981C19.5644 29.7794 19.6007 29.8792 19.593 29.9808C19.5846 30.0923 19.5251 30.1865 19.4155 30.2475C19.3125 30.3048 19.1657 30.3331 18.9703 30.3331H15.1024C15.0265 30.3426 14.9376 30.3444 14.8506 30.3309C14.7623 30.3172 14.6672 30.2865 14.5914 30.2231C14.5116 30.1562 14.4597 30.058 14.4574 29.9293C14.4551 29.8066 14.4979 29.6644 14.5863 29.5001C14.9269 28.8677 15.3659 28.334 15.5456 28.1432C15.5962 28.0895 15.7303 27.803 15.3298 27.2929C14.9114 26.7601 14.6695 26.4817 14.6032 26.4113L14.5959 26.4036L14.5901 26.3944C14.531 26.3003 14.4307 26.2194 14.3174 26.227C14.2057 26.2345 14.03 26.3312 13.8264 26.7201C13.4063 27.5225 11.9042 30.1694 11.2067 31.3908L11.1987 31.4048L11.1872 31.4158C11.104 31.4952 11.0159 31.5938 10.9458 31.6956C10.8742 31.7997 10.8286 31.8969 10.8175 31.9748C10.8122 32.0121 10.8154 32.0411 10.8239 32.0638C10.8321 32.0858 10.8479 32.1092 10.8795 32.1319C10.9471 32.1806 11.0816 32.2222 11.3266 32.2222C12.3335 32.2222 20.4732 32.4444 24.4164 32.5555C24.4594 32.5554 24.5024 32.5483 24.5353 32.5343C24.5686 32.5202 24.5805 32.5043 24.5846 32.493C24.5886 32.4821 24.5951 32.4491 24.5624 32.3775C24.5297 32.3058 24.4627 32.2075 24.3411 32.0785C23.8369 31.5434 19.9472 27.0456 18.0616 24.8593C17.8979 24.7235 17.6381 24.3452 17.826 23.8468C17.9136 23.6144 18.1631 23.1522 18.433 22.6778C18.7051 22.1997 19.0041 21.6986 19.1965 21.3831L19.1994 21.3784L19.2027 21.374C19.2864 21.263 19.445 21.1395 19.6515 21.1407C19.8626 21.1418 20.0911 21.2728 20.312 21.6011C20.7293 22.221 25.6484 28.9668 28.058 32.2652L28.069 32.2802L28.0746 32.2981C28.0978 32.3719 28.1346 32.4518 28.1833 32.5182C28.2321 32.5848 28.2884 32.6319 28.3495 32.6523C28.4593 32.6888 28.6538 32.6552 28.9397 32.2651C29.5257 31.4656 34.4111 24.8314 36.7868 21.6058C36.8623 21.4498 37.0088 21.245 37.2124 21.1813C37.3221 21.147 37.4425 21.1559 37.564 21.2266C37.6823 21.2954 37.7966 21.4197 37.9067 21.6068C38.3234 22.3144 38.8434 23.2266 39.0556 23.6017C39.1567 23.7342 39.2521 23.9644 39.2339 24.2458C39.2151 24.5356 39.0766 24.8671 38.7246 25.1941C38.3947 25.5003 37.3177 26.7075 36.0989 28.1002C34.8829 29.4898 33.5324 31.0562 32.66 32.0747L32.6544 32.0812L32.6479 32.0867C32.4746 32.2338 32.2698 32.444 32.1881 32.6076C32.1447 32.6944 32.1572 32.724 32.1602 32.7286C32.167 32.739 32.2087 32.7778 32.3731 32.7778C33.0404 32.7778 41.7204 32.4076 45.981 32.2222L45.9831 32.2222H45.9852C46.0424 32.2222 46.0907 32.1962 46.106 32.1292C46.1259 32.0425 46.1033 31.8545 45.8965 31.5032C45.4761 30.7895 43.904 27.8679 43.1717 26.4987L43.1704 26.4962L43.1692 26.4936C43.1255 26.4009 43.0367 26.2979 42.9174 26.2688C42.8054 26.2415 42.6309 26.2715 42.3945 26.5225L41.9426 27.002L41.9117 27.0348L41.9095 27.0371L41.8966 27.0508L41.8944 27.0531L41.8608 27.0888L41.8505 27.0998L41.8403 27.1106L41.6978 27.2617L41.6638 27.2979L41.6622 27.2996L41.6606 27.3012L41.6288 27.335L41.6273 27.3366L41.5991 27.3665L41.5978 27.368L41.5964 27.3694L41.5951 27.3708L41.5937 27.3723L41.5924 27.3737L41.591 27.3751L41.5897 27.3765L41.5592 27.4089L41.558 27.4101L41.5568 27.4114L41.5544 27.414L41.5532 27.4152L41.5497 27.419L41.5473 27.4215L41.5158 27.455L41.4911 27.4812L41.4902 27.4821L41.4833 27.4894L41.4825 27.4903L41.4816 27.4912L41.48 27.4929L41.4784 27.4946L41.4768 27.4963L41.476 27.4972L41.4752 27.498L41.4744 27.4989L41.4736 27.4997L41.4706 27.5029L41.4698 27.5037L41.4691 27.5045L41.4683 27.5053L41.4669 27.5069L41.4661 27.5076L41.4654 27.5084L41.4647 27.5092L41.464 27.5099L41.4626 27.5114L41.4619 27.5121L41.4612 27.5129L41.4608 27.5133C41.4234 27.5854 41.3646 27.8594 41.6692 28.2635C42.0044 28.7081 42.2303 29.1173 42.3065 29.2772C42.3439 29.3376 42.382 29.4121 42.4104 29.4914C42.4394 29.5721 42.461 29.6649 42.4564 29.7556C42.4517 29.8495 42.4183 29.945 42.3354 30.0142C42.2558 30.0806 42.1445 30.1109 42.0063 30.1109H37.9343C37.8914 30.1203 37.8283 30.1245 37.7738 30.0873C37.6975 30.0353 37.6895 29.9436 37.7052 29.8677C37.7207 29.7925 37.7631 29.7003 37.8333 29.5875C37.9046 29.4727 38.0096 29.3287 38.158 29.1487C38.7453 28.4363 42.2418 24.4073 43.9171 22.4813C44.009 22.3649 44.1669 22.2113 44.3384 22.1638C44.4294 22.1386 44.5309 22.1418 44.6242 22.2046C44.7148 22.2656 44.7819 22.3725 44.8281 22.5195C44.9101 22.7808 45.4834 24.2376 46.1707 25.9617C46.8564 27.682 47.6522 29.6597 48.1757 30.9561L48.1768 30.9589L48.1778 30.9619C48.211 31.0587 48.2557 31.1634 48.3066 31.2508C48.3597 31.3419 48.4106 31.3986 48.4508 31.4199C48.4682 31.4291 48.4792 31.4295 48.4869 31.4279C48.4952 31.4262 48.5118 31.4197 48.5356 31.3931C48.5866 31.3362 48.6496 31.2109 48.7114 30.9706C48.9632 29.9908 53.4245 14.261 55.6229 6.52123L55.6239 6.51772L55.6251 6.51428C55.6765 6.36899 55.7259 6.20667 55.7573 6.06351C55.773 5.99187 55.7837 5.92713 55.7882 5.87293C55.7918 5.82942 55.7909 5.79808 55.788 5.77741C55.7796 5.78115 55.7682 5.78706 55.7535 5.79641C55.661 5.85534 55.5096 6.00321 55.2796 6.29172C54.3559 7.45011 49.0969 13.4462 46.5853 16.2967C46.5648 16.3199 46.5436 16.3433 46.5221 16.3669C46.4317 16.4663 46.3372 16.5703 46.2752 16.6916C46.2383 16.7636 46.2162 16.8364 46.2145 16.9114C46.2129 16.9854 46.2308 17.0689 46.2844 17.1637C46.5377 17.6116 46.8113 18.17 46.9166 18.3935L46.9185 18.3976L46.9201 18.4019C46.9481 18.4762 47.0066 18.551 47.0839 18.5715C47.1548 18.5903 47.2846 18.574 47.4818 18.3646C47.8997 17.9212 49.6088 16.0334 50.4121 15.1438L50.4137 15.1421C50.4858 15.0656 50.5716 14.9831 50.6553 14.9165C50.6971 14.8832 50.7398 14.8527 50.7812 14.8288C50.8214 14.8056 50.8663 14.785 50.9113 14.7776C50.957 14.77 51.0183 14.7741 51.067 14.8233C51.1128 14.8694 51.1253 14.9336 51.1264 14.9891C51.1287 15.0994 51.0878 15.2614 51.0038 15.4842C50.6711 16.3669 49.2631 21.3223 48.5988 23.697C48.5625 23.8317 48.5101 23.9839 48.4442 24.1201C48.3795 24.2537 48.2959 24.3846 48.1921 24.4623C48.1387 24.5023 48.0761 24.531 48.006 24.5343C47.9349 24.5377 47.8659 24.5146 47.8015 24.4684C47.6781 24.3798 47.5658 24.2024 47.4592 23.9308C47.0409 22.8654 43.8654 15.1923 42.3293 11.4874L42.3289 11.4864C42.2844 11.3762 42.1952 11.2756 42.0755 11.2674C41.9538 11.259 41.7479 11.3412 41.4607 11.7331C41.0965 12.23 40.4177 13.0985 39.8141 13.8707C39.4455 14.3422 39.105 14.7779 38.8814 15.0711C38.8702 15.0857 38.8586 15.1006 38.8466 15.1159C38.7744 15.2086 38.691 15.3155 38.6461 15.4431C38.621 15.5144 38.6097 15.5885 38.6202 15.666C38.6306 15.7433 38.6636 15.8313 38.7374 15.9291C39.0704 16.3709 39.4298 16.9202 39.5744 17.1497C39.654 17.2318 39.779 17.3221 39.9034 17.348C39.9653 17.3608 40.0236 17.3571 40.0769 17.3325C40.13 17.3081 40.1874 17.2588 40.2412 17.1637C40.4934 16.7176 40.9719 16.018 41.1842 15.7173C41.2047 15.6755 41.2325 15.6299 41.2668 15.5895C41.3029 15.5469 41.3521 15.503 41.4137 15.4817C41.4803 15.4587 41.5535 15.4652 41.6222 15.5118C41.6863 15.5552 41.7397 15.6287 41.7858 15.7266C41.8915 15.9508 42.2327 16.7309 42.5594 17.4798C42.6157 17.6087 42.6715 17.7366 42.7256 17.8607C42.987 18.4604 43.2092 18.9698 43.2518 19.0602C43.2572 19.0717 43.2632 19.084 43.2695 19.0971C43.3197 19.2 43.3937 19.3517 43.3937 19.5405C43.3937 19.7601 43.2967 20.009 43.0227 20.2997C42.9344 20.3934 42.8252 20.5255 42.6988 20.6784C42.6419 20.7472 42.5816 20.8202 42.518 20.8958C42.3162 21.1361 42.0866 21.3977 41.8519 21.6112C41.6199 21.8222 41.3704 21.9981 41.1285 22.049C41.0048 22.0751 40.8802 22.0691 40.7619 22.0159C40.6437 21.9627 40.5406 21.8664 40.4532 21.7273C39.9489 20.9246 32.5613 7.97889 28.9328 1.61037L28.9318 1.60862L28.9308 1.60684C28.8911 1.531 28.8357 1.44799 28.77 1.3783C28.7038 1.30802 28.6323 1.25663 28.561 1.23447C28.4933 1.21343 28.4215 1.21704 28.3432 1.2648Z"
          fill="#ffa01c"/>
    <path
        d="M41.313 27.7801C41.313 28.0468 41.7667 28.4838 41.9412 28.669C41.5224 27.7801 41.7898 27.1629 42.0459 26.8911C41.8365 27.1133 41.313 27.5134 41.313 27.7801Z"
        fill="#ffa01c"/>
    <path fill-rule="evenodd" clip-rule="evenodd"
          d="M28.591 5.64027C28.8579 5.71509 29.0855 5.96319 29.2129 6.15624L29.2151 6.15965L29.2171 6.16323C31.208 9.72158 35.3103 17.0291 35.8109 17.826C36.0715 18.2409 36.1367 18.5754 36.0939 18.8321C36.0535 19.0741 35.9192 19.2318 35.793 19.3078C33.8001 22.0534 29.7104 27.6704 29.2066 28.2942C28.9306 28.6358 28.614 28.7138 28.3318 28.6619C28.0578 28.6116 27.8246 28.4413 27.6918 28.3004L27.6872 28.2955L21.0783 19.278L21.073 19.2648C20.9345 18.9221 20.9646 18.587 21.0546 18.3123C21.1416 18.0467 21.2865 17.8316 21.3999 17.7081C23.3587 14.2185 27.3608 7.05342 27.7769 6.17027C27.8873 5.93592 28.0153 5.78106 28.1579 5.69598C28.3031 5.60937 28.4527 5.6015 28.591 5.64027ZM28.2606 5.88971C28.1665 5.94585 28.0632 6.05953 27.9642 6.26966C27.5431 7.16346 23.5259 14.3551 21.5733 17.8334L21.5666 17.8453L21.5574 17.8551C21.4627 17.9556 21.3305 18.1471 21.2524 18.3853C21.1761 18.6181 21.1532 18.8893 21.2603 19.1644L27.8444 28.148C27.9567 28.2654 28.1505 28.4031 28.3675 28.4429C28.5791 28.4818 28.821 28.4301 29.0476 28.1495C29.5478 27.5302 33.6497 21.8965 35.6408 19.1533L35.6555 19.1331L35.6769 19.1217C35.7541 19.0808 35.8572 18.9758 35.8877 18.7933C35.9181 18.6111 35.8786 18.3344 35.6366 17.9493C35.1322 17.1463 31.0279 9.83508 29.0391 6.28035C28.9219 6.10388 28.7319 5.90962 28.5375 5.85514C28.4446 5.82909 28.3521 5.8351 28.2606 5.88971Z"
          fill="#ffa01c"/>
    <path
        d="M3.36866 8.22013C3.11736 7.86454 1.79803 6.33107 1.27448 5.77547C0.960357 5.66435 1.58861 7.88676 2.11215 9.33133C1.69331 7.99788 2.90783 7.66452 3.36866 8.22013Z"
        fill="#ffa01c"/>
    <path
        d="M8.4994 31.2221C8.33187 31.1332 7.41741 27.8885 7.24289 27.2217C7.91303 29.0886 9.93042 28.2218 10.2795 27.444C10.1049 27.8885 9.08577 30.5331 8.91824 30.8887C8.70882 31.3332 8.70882 31.3332 8.4994 31.2221Z"
        fill="#ffa01c"/>
    <path
        d="M7.97586 16.7764C8.63901 17.5172 10.0491 18.5543 10.3842 17.6654C10.4889 17.332 10.2376 16.2208 8.81353 14.4429C9.33707 15.0355 10.6145 16.3764 10.6983 16.5542C10.803 16.7764 10.803 16.8875 10.6983 17.2209C10.6504 17.3733 10.566 17.4725 10.496 17.5434C10.4334 17.8163 10.2863 18.3302 10.1747 18.6655C10.1398 18.8507 9.94439 19.0877 9.44178 18.5543C8.93918 18.021 8.25508 17.1468 7.97586 16.7764Z"
        fill="#ffa01c"/>
    <path
        d="M22.8445 30.3331L24.5199 32.1111C24.7293 32.3333 24.9178 32.7556 23.9963 32.6667C23.2151 32.5913 21.927 32.5106 20.8724 32.4652C20.6904 32.4631 20.5086 32.4557 20.3315 32.4444C20.5015 32.4501 20.6832 32.4571 20.8724 32.4652C22.4843 32.484 24.1241 32.0904 22.8445 30.3331Z"
        fill="#ffa01c"/>
    <path
        d="M13.8396 13.3317C14.0839 12.5909 14.6144 11.087 14.7819 10.9981C14.9914 10.887 15.2008 10.9981 15.7243 11.776C16.0045 12.1922 16.269 12.5654 16.4553 12.8223C16.5342 12.9183 16.6052 13.0157 16.6667 13.1094C16.6205 13.0481 16.5475 12.9494 16.4553 12.8223C15.8168 12.0456 14.6596 11.3539 13.8396 13.3317Z"
        fill="#ffa01c"/>
    <path
        d="M17.295 13.9984C17.644 14.4799 18.2583 15.154 18.3421 15.3318C18.4468 15.5541 18.3421 15.7763 18.2373 15.9986C18.1536 16.1764 17.993 16.2949 17.9232 16.443C17.8883 16.5542 17.6719 17.0653 17.5044 17.332C17.295 17.6654 17.295 17.5543 17.0855 17.4431C16.918 17.3542 16.3526 16.2949 16.0385 15.7763C17.0437 17.1098 17.7138 16.7023 17.9232 16.443C18.2373 15.5541 18.0489 15.3318 17.295 13.9984Z"
        fill="#ffa01c"/>
    <path
        d="M30.3836 30.3331C28.9595 32.2889 27.2074 31.148 26.5094 30.3331C26.7537 30.6665 27.368 31.511 27.8706 32.2222C28.4988 33.1112 28.6035 32.6667 29.0224 32.2222C29.4412 31.7777 32.1636 27.8885 30.3836 30.3331Z"
        fill="#ffa01c"/>
    <path
        d="M32.0986 32.5582L33.7739 30.7803C32.4337 32.2027 33.739 32.6694 34.4022 32.7805C34.123 32.7805 33.1038 32.8027 32.5174 32.8916C31.9311 32.9805 31.9939 32.7064 32.0986 32.5582Z"
        fill="#ffa01c"/>
    <path
        d="M45.1872 30.1136C45.5362 30.6692 46.2343 31.8249 46.2343 32.0026C46.2343 32.2249 45.9202 32.336 44.9778 32.336H44.0236C43.8441 32.349 43.6691 32.3475 43.5119 32.336H44.0236C44.9998 32.2653 46.1071 31.7656 45.1872 30.1136Z"
        fill="#ffa01c"/>
    <path
        d="M27.0539 3.39169C27.0242 3.44888 26.9954 3.50376 26.9678 3.55577C26.9961 3.49869 27.0249 3.44402 27.0539 3.39169C27.4899 2.55276 28.133 1.21515 28.3291 1.11112C28.5611 0.987994 28.8808 1.25928 28.9168 1.33336L30.0689 3.58811C30.083 3.61443 30.0964 3.64071 30.1091 3.66689L30.0689 3.58811C29.5399 2.6002 28.073 1.55733 27.0539 3.39169Z"
        fill="#ffa01c"/>
    <path
        d="M38.5858 15.5991C38.5919 15.2561 39.1427 14.6863 39.4282 14.3345C38.8011 15.4165 38.9075 16.0857 39.0451 16.3478C39.0727 16.3819 39.0964 16.4145 39.1141 16.4458C39.0925 16.4247 39.0683 16.392 39.0451 16.3478C38.8812 16.1451 38.5806 15.8928 38.5858 15.5991Z"
        fill="#ffa01c"/>
    <path
        d="M39.1225 16.4601C39.7911 17.593 40.6165 16.5915 40.9989 16.0013C40.9639 16.0754 40.8523 16.4013 40.6847 16.668C40.1612 17.4458 39.9518 17.557 39.7423 17.4458C39.5775 17.3584 39.2977 16.7615 39.1225 16.4601Z"
        fill="#ffa01c"/>
    <path
        d="M41.6271 11.3342C41.5433 11.4231 41.0687 12.1861 40.8941 12.4454C41.4805 11.7342 42.2554 11.6676 42.7789 12.5565C42.744 12.4825 42.6533 11.9343 42.5695 11.6676C42.4648 11.3342 42.2554 11.112 42.0459 11.112C41.8365 11.112 41.7318 11.2231 41.6271 11.3342Z"
        fill="#ffa01c"/>
    <path
        d="M54.9252 6.55603C54.5901 7.00051 53.8432 7.88948 53.5639 8.22284C54.7367 7.33387 55.0648 8.25988 55.0299 8.88956C55.3091 8.0006 55.8675 6.17822 55.8675 6.00043V5.66706C55.8675 5.55594 55.344 6.00042 54.9252 6.55603Z"
        fill="#ffa01c"/>
    <path
        d="M48.4332 31.5582C48.2657 31.5582 47.6653 29.7802 47.3861 29.0024C48.0562 30.3358 48.9218 29.558 49.2709 29.0024C49.1662 29.3728 48.9358 30.4247 48.852 30.7803C48.7473 31.2248 48.6426 31.5582 48.4332 31.5582Z"
        fill="#ffa01c"/>
    <path
        d="M46.1296 16.7791C46.1296 16.4235 46.9324 15.742 47.2814 15.4457C46.1775 17.2236 46.5484 17.6681 46.6531 17.8903C46.5833 17.7792 46.3181 17.5125 46.2343 17.3347C46.1296 17.1125 46.1296 17.2236 46.1296 16.7791Z"
        fill="#ffa01c"/>
    <path
        d="M46.8626 18.5571C46.7788 18.4682 46.6182 17.8903 46.5484 17.6681C46.9673 18.5571 48.1191 17.6681 48.6426 17.1125C48.3285 17.4829 47.6583 18.3793 47.4908 18.5571C47.2814 18.7793 46.9673 18.6682 46.8626 18.5571Z"
        fill="#ffa01c"/>
    <path
        d="M42.0459 26.8911C42.2205 26.6689 42.5276 26.2244 42.7789 26.2244C43.093 26.2244 43.1977 26.4466 43.3025 26.5577C43.3832 26.6434 43.6323 27.286 43.8065 27.631C43.813 27.6435 43.8195 27.6562 43.826 27.6689C43.8196 27.6568 43.8131 27.6441 43.8065 27.631C43.1826 26.4314 42.4605 26.4512 42.0459 26.8911Z"
        fill="#ffa01c"/>
    <path
        d="M13.0818 32.3317C12.2826 32.2692 11.2697 30.9676 11.8501 29.9998C11.6058 30.2961 10.6145 31.911 10.6983 31.9999C10.803 32.1111 10.6983 32.3333 11.5359 32.3333C12.1816 32.3333 12.8468 32.3192 13.0818 32.3317ZM13.0818 32.3317C13.0907 32.3322 13.0989 32.3327 13.1066 32.3333C13.0983 32.3329 13.0901 32.3324 13.0818 32.3317ZM42.0459 26.8911C41.8365 27.1133 41.313 27.5134 41.313 27.7801C41.313 28.0468 41.7667 28.4838 41.9412 28.669C41.5224 27.7801 41.7898 27.1629 42.0459 26.8911ZM42.0459 26.8911C42.2205 26.6689 42.5276 26.2244 42.7789 26.2244C43.093 26.2244 43.1977 26.4466 43.3025 26.5577C43.3832 26.6434 43.6323 27.286 43.8065 27.631M42.0459 26.8911C42.4605 26.4512 43.1826 26.4314 43.8065 27.631M20.8724 32.4652C21.927 32.5106 23.2151 32.5913 23.9963 32.6667C24.9178 32.7556 24.7293 32.3333 24.5199 32.1111L22.8445 30.3331C24.1241 32.0904 22.4843 32.484 20.8724 32.4652ZM20.8724 32.4652C20.6904 32.4631 20.5086 32.4557 20.3315 32.4444C20.5015 32.45 20.6832 32.4571 20.8724 32.4652ZM16.4553 12.8223C16.269 12.5654 16.0045 12.1922 15.7243 11.776C15.2008 10.9981 14.9914 10.887 14.7819 10.9981C14.6144 11.087 14.0839 12.5909 13.8396 13.3317C14.6596 11.3539 15.8168 12.0456 16.4553 12.8223ZM16.4553 12.8223C16.5342 12.9183 16.6052 13.0157 16.6667 13.1094C16.6205 13.0481 16.5475 12.9494 16.4553 12.8223ZM17.9232 16.443C17.993 16.2949 18.1536 16.1764 18.2373 15.9986C18.3421 15.7763 18.4468 15.5541 18.3421 15.3318C18.2583 15.1541 17.644 14.4799 17.295 13.9984C18.0489 15.3318 18.2373 15.5541 17.9232 16.443ZM17.9232 16.443C17.8883 16.5542 17.6719 17.0653 17.5044 17.332C17.295 17.6654 17.295 17.5543 17.0855 17.4431C16.918 17.3542 16.3526 16.2949 16.0385 15.7763C17.0437 17.1098 17.7138 16.7023 17.9232 16.443ZM44.0236 32.336H44.9778C45.9202 32.336 46.2343 32.2249 46.2343 32.0026C46.2343 31.8249 45.5362 30.6692 45.1872 30.1136C46.1071 31.7656 44.9998 32.2653 44.0236 32.336ZM44.0236 32.336H43.5119C43.6691 32.3475 43.8441 32.349 44.0236 32.336ZM27.0539 3.39169C27.0242 3.44888 26.9954 3.50376 26.9678 3.55577C26.9962 3.49869 27.0249 3.44402 27.0539 3.39169ZM27.0539 3.39169C27.4899 2.55276 28.133 1.21515 28.3291 1.11112C28.5611 0.987994 28.8808 1.25928 28.9168 1.33336L30.0689 3.58811M27.0539 3.39169C28.073 1.55733 29.5399 2.6002 30.0689 3.58811M30.0689 3.58811L30.1091 3.66689C30.0964 3.64071 30.083 3.61443 30.0689 3.58811ZM39.0451 16.3478C38.8812 16.1451 38.5806 15.8928 38.5858 15.5991C38.5919 15.2561 39.1427 14.6863 39.4282 14.3345C38.8011 15.4165 38.9075 16.0857 39.0451 16.3478ZM39.0451 16.3478C39.0727 16.3819 39.0964 16.4145 39.1141 16.4458M39.0451 16.3478C39.0683 16.392 39.0925 16.4247 39.1141 16.4458M39.1141 16.4458C39.1169 16.4505 39.1197 16.4552 39.1225 16.4601M39.1225 16.4601C39.2977 16.7615 39.5775 17.3584 39.7423 17.4458C39.9518 17.557 40.1612 17.4458 40.6847 16.668C40.8523 16.4013 40.9639 16.0754 40.9989 16.0013C40.6165 16.5915 39.7911 17.593 39.1225 16.4601ZM43.8065 27.631C43.8131 27.6441 43.8196 27.6568 43.826 27.6689C43.8195 27.6562 43.813 27.6435 43.8065 27.631ZM13.9443 26.3328C13.7767 26.5106 13.1066 27.8514 13.0019 28.1107C13.5883 27.3106 14.6772 26.3328 15.0961 26.9995C15.0612 26.9254 14.8448 26.5106 14.6772 26.3328C14.4678 26.1105 14.1537 26.1105 13.9443 26.3328ZM15.5149 27.444C15.3474 27.1773 14.8867 26.7773 14.8867 26.7773C15.7243 27.5551 15.0961 28.7774 14.7819 29.2219C14.9216 29.0367 15.4521 28.4885 15.6196 28.2218C15.829 27.8885 15.7243 27.7773 15.5149 27.444ZM29.1129 1.49703C29.0654 1.40669 28.9991 1.30713 28.9181 1.22115C28.8371 1.13517 28.7363 1.05738 28.6199 1.0212C28.5 0.983904 28.3689 0.9928 28.2389 1.07213C28.1123 1.14936 27.9937 1.28889 27.8838 1.49891C27.4662 2.2966 20.1035 15.2353 16.4724 21.6082L16.4702 21.612L16.4683 21.616C16.4058 21.7488 16.2843 21.8947 16.1285 21.9356C15.9838 21.9737 15.7679 21.9308 15.489 21.5925C14.8989 20.8769 14.3296 20.3246 14.116 20.1358L14.1117 20.132L14.1071 20.1287C14.0206 20.0675 13.9001 19.9319 13.8398 19.7317C13.7807 19.5353 13.7771 19.2689 13.9332 18.9374C14.2699 18.2229 14.9817 16.4158 15.2961 15.6002C15.3188 15.5528 15.3498 15.5019 15.3856 15.4596C15.4232 15.4154 15.4601 15.3875 15.4924 15.3764C15.5196 15.367 15.5478 15.3674 15.5832 15.3915C15.6234 15.4187 15.6768 15.4794 15.7354 15.6038C15.989 16.1421 16.5371 16.9382 16.7854 17.2781C16.8145 17.3471 16.8554 17.4225 16.9071 17.4887C16.9614 17.5583 17.0336 17.6252 17.1231 17.6569C17.2176 17.6903 17.3209 17.6806 17.4225 17.6147C17.5198 17.5516 17.6118 17.4398 17.7 17.276C18.0241 16.6741 18.3089 16.1625 18.4214 15.9632C18.5 15.8945 18.5527 15.7695 18.5379 15.6047C18.5221 15.4275 18.4297 15.2032 18.2131 14.9273C17.7963 14.3966 16.2311 12.2705 15.4961 11.2677C15.4492 11.1888 15.3867 11.1021 15.3142 11.0269C15.241 10.9512 15.1515 10.8808 15.0514 10.8476C14.9468 10.8129 14.8319 10.8199 14.7252 10.8985C14.6237 10.9733 14.5409 11.1045 14.4745 11.2925C14.2249 11.9989 10.8898 20.0088 9.24628 23.9424C9.19857 24.0087 9.13818 24.08 9.0727 24.1404C9.00284 24.2049 8.93344 24.2511 8.87235 24.2707C8.81492 24.289 8.77196 24.2824 8.73489 24.2525C8.69225 24.2181 8.64033 24.1393 8.60099 23.9723C8.43277 23.2582 6.99376 18.0394 6.29627 15.5227L6.2961 15.5221C6.27098 15.4333 6.24896 15.3348 6.23846 15.2488C6.23321 15.2058 6.23114 15.1683 6.23233 15.1381C6.23276 15.1272 6.23358 15.1181 6.23457 15.1108C6.23589 15.1115 6.23727 15.1122 6.23871 15.113C6.29507 15.1442 6.39026 15.2284 6.53584 15.405C7.12323 16.1174 8.73389 17.9229 9.4677 18.7388C9.54291 18.8374 9.67441 18.9683 9.82406 19.0092C9.90446 19.0312 9.9945 19.028 10.0791 18.9745C10.1614 18.9224 10.225 18.8314 10.272 18.7067L10.8982 17.0454C10.9529 16.9321 10.9682 16.7024 10.7755 16.4791L1.66818 5.92536C1.59672 5.83083 1.51251 5.73159 1.43155 5.65688C1.39086 5.61934 1.34784 5.58503 1.3052 5.56099C1.26562 5.53869 1.2101 5.51584 1.15105 5.52723C1.0799 5.54096 1.03671 5.59633 1.01699 5.65832C0.999059 5.7147 0.996849 5.78436 1.00331 5.86168C1.01643 6.01862 1.06987 6.25325 1.17516 6.58844C1.59329 7.91965 5.95332 23.1332 8.08344 30.5819C8.11054 30.7334 8.15246 30.9017 8.20923 31.0478C8.26445 31.1898 8.34237 31.3342 8.4526 31.4057C8.51215 31.4444 8.58231 31.4625 8.65807 31.4453C8.73096 31.4288 8.79742 31.3824 8.8581 31.3163C8.97761 31.1861 9.09892 30.9532 9.22571 30.5944C9.72682 29.1762 11.4563 25.0465 12.2597 23.1559L12.2625 23.1492L12.2645 23.1422C12.3121 22.974 12.4252 22.7954 12.5977 22.7452C12.765 22.6964 13.0416 22.7539 13.4514 23.1888C14.2875 24.0762 17.6366 27.8525 19.208 29.6313L19.2092 29.6326L19.2104 29.6338C19.2579 29.6842 19.3052 29.7459 19.3388 29.8083C19.3735 29.8728 19.3871 29.9259 19.3842 29.9631C19.3822 29.9906 19.371 30.0213 19.3183 30.0506C19.259 30.0836 19.1519 30.1109 18.9703 30.1109H15.0896L15.0831 30.1117C15.0208 30.12 14.9484 30.1214 14.8808 30.111C14.8121 30.1003 14.7571 30.0788 14.7212 30.0486C14.6893 30.022 14.6679 29.9855 14.6668 29.925C14.6655 29.8586 14.6891 29.7572 14.7682 29.6104C15.0977 28.9983 15.5244 28.4801 15.6937 28.3004C15.8524 28.1319 15.9277 27.7072 15.4906 27.1506C15.084 26.6327 14.8396 26.3493 14.7584 26.2618C14.676 26.1358 14.5171 25.9909 14.3042 26.0052C14.0843 26.0199 13.8586 26.201 13.6433 26.6122C13.2273 27.4069 11.7374 30.0325 11.0355 31.2618C10.9474 31.3471 10.8537 31.4526 10.7767 31.5646C10.6977 31.6793 10.629 31.8113 10.6105 31.9416C10.6009 32.0085 10.6041 32.0786 10.6292 32.1457C10.6545 32.2136 10.6995 32.2709 10.7619 32.3158C10.8823 32.4026 11.0689 32.4444 11.3266 32.4444C12.3299 32.4444 20.467 32.6666 24.4124 32.7777L24.4152 32.7778C24.4765 32.7778 24.5482 32.7682 24.6131 32.7406C24.6779 32.7131 24.7473 32.6623 24.7798 32.5736C24.8124 32.4845 24.7981 32.3842 24.7509 32.2807C24.7038 32.1774 24.6189 32.059 24.4892 31.9213C23.9888 31.3903 20.0962 26.8892 18.2099 24.7021L18.2033 24.6944L18.1955 24.6882C18.0793 24.5957 17.8764 24.3115 18.0204 23.9294C18.1004 23.7173 18.3395 23.272 18.6123 22.7927C18.8816 22.3195 19.1777 21.8232 19.3693 21.5088C19.4259 21.4359 19.5275 21.3622 19.6504 21.3629C19.7708 21.3636 19.9437 21.4363 20.1416 21.7303C20.5614 22.354 25.4711 29.0868 27.8819 32.3868C27.9114 32.4748 27.9564 32.5706 28.018 32.6546C28.0837 32.7443 28.1727 32.8264 28.2869 32.8643C28.5279 32.9445 28.8046 32.8114 29.105 32.4015C29.6913 31.6016 34.5846 24.9567 36.9581 21.7341L36.9645 21.7254L36.9692 21.7154C37.0348 21.5762 37.1482 21.4331 37.2716 21.3945C37.3278 21.3769 37.3906 21.3792 37.4633 21.4214C37.5391 21.4656 37.6299 21.5561 37.7291 21.7246C38.1475 22.4349 38.6707 23.3529 38.88 23.723L38.8841 23.7304L38.8893 23.737C38.9607 23.8279 39.0395 24.0057 39.025 24.2305C39.0106 24.4518 38.9047 24.7315 38.5867 25.0268C38.2464 25.3428 37.1594 26.5618 35.9455 27.949C34.7313 29.3363 33.3835 30.8997 32.5106 31.9187C32.3355 32.0681 32.1051 32.2992 32.0031 32.5035C31.954 32.6018 31.9127 32.7389 31.9877 32.8547C32.0591 32.9646 32.2024 33 32.3731 33C33.046 33 41.7311 32.6295 45.9876 32.4444C46.1047 32.4435 46.2641 32.3802 46.3095 32.1817C46.3507 32.0018 46.286 31.7453 46.074 31.3854C45.657 30.6772 44.0894 27.7643 43.3552 26.3915C43.2936 26.2624 43.1629 26.1006 42.9642 26.0522C42.7569 26.0017 42.5125 26.0829 42.2464 26.3653L41.7945 26.8449L41.7636 26.8776L41.7464 26.896L41.7294 26.914L41.7127 26.9317L41.6942 26.9513L41.6922 26.9534L41.5719 27.0811L41.5498 27.1046L41.5316 27.1238L41.522 27.134L41.5204 27.1357L41.5188 27.1374L41.4881 27.17L41.4866 27.1716L41.4524 27.2079L41.451 27.2094L41.4497 27.2108L41.4483 27.2122L41.447 27.2137L41.4456 27.2151L41.4443 27.2165L41.4429 27.2179L41.4416 27.2194L41.4324 27.2291L41.4311 27.2305L41.4111 27.2517L41.4099 27.253L41.4004 27.2631L41.3993 27.2643L41.3981 27.2655L41.3607 27.3052L41.3421 27.325L41.3287 27.3392L41.3279 27.34L41.3271 27.3409L41.3263 27.3417L41.3255 27.3425L41.3248 27.3434L41.324 27.3442L41.3232 27.345L41.3225 27.3458L41.3217 27.3466L41.321 27.3474L41.3202 27.3482L41.3195 27.3489L41.318 27.3505L41.3173 27.3513L41.3166 27.352L41.3159 27.3528L41.3145 27.3543L41.3138 27.355L41.3131 27.3557L41.3124 27.3565L41.3117 27.3572L41.3071 27.3621L41.3065 27.3627L41.3059 27.3634L41.3052 27.3641L41.3046 27.3647L41.304 27.3654L41.2967 27.3732L41.2909 27.3823C41.1878 27.5465 41.1524 27.9336 41.5057 28.4024C41.8363 28.8409 42.0557 29.2418 42.1221 29.3827L42.125 29.3889L42.1286 29.3947C42.1598 29.4444 42.1917 29.5065 42.2147 29.5705C42.2381 29.6356 42.2497 29.6957 42.2473 29.7438C42.245 29.7889 42.2312 29.8184 42.206 29.8395C42.1774 29.8633 42.1194 29.8886 42.0063 29.8886H37.9171C37.9297 29.8507 37.9565 29.7929 38.0081 29.7099C38.0724 29.6064 38.1708 29.4707 38.3156 29.2951C38.9007 28.5854 42.3966 24.557 44.0727 22.63L44.0745 22.628L44.0762 22.6258C44.1591 22.5202 44.2829 22.4088 44.3913 22.3788C44.4408 22.3651 44.4794 22.3703 44.512 22.3922C44.5472 22.4159 44.5918 22.4701 44.6294 22.5898C44.7149 22.8619 45.2934 24.3313 45.9778 26.0483C46.6632 27.7678 47.4585 29.7443 47.9821 31.0408C48.0186 31.147 48.0687 31.265 48.1284 31.3677C48.1866 31.4675 48.263 31.5687 48.3572 31.6187C48.407 31.6452 48.465 31.6588 48.5268 31.6461C48.5881 31.6334 48.6416 31.5973 48.6874 31.5462C48.7755 31.4478 48.8495 31.2777 48.9134 31.0291C49.1642 30.0532 53.6227 14.3331 55.8224 6.58886C55.8754 6.43867 55.9275 6.26814 55.9613 6.11385C55.9783 6.03617 55.9912 5.9605 55.9968 5.89241C56.0023 5.82644 56.0019 5.75819 55.9861 5.70014C55.9696 5.6396 55.9291 5.57022 55.8462 5.55239C55.7762 5.53733 55.7059 5.56753 55.6457 5.60587C55.5209 5.68539 55.3504 5.85884 55.1197 6.14816C54.2005 7.30107 48.9468 13.2912 46.4323 16.1449C46.4163 16.163 46.3984 16.1827 46.3791 16.2038C46.2882 16.3034 46.1683 16.4347 46.0912 16.5855C46.0429 16.6798 46.0079 16.7871 46.0052 16.9061C46.0025 17.0261 46.0328 17.1506 46.1049 17.278C46.3528 17.7166 46.622 18.2656 46.7275 18.4891C46.7702 18.5995 46.8684 18.7434 47.0331 18.7871C47.2066 18.8332 47.4084 18.7569 47.6299 18.5218C48.0496 18.0764 49.76 16.1872 50.5626 15.2984C50.6299 15.2271 50.7078 15.1525 50.7809 15.0943C50.8176 15.0651 50.8517 15.0412 50.8814 15.024C50.8953 15.0159 50.9072 15.01 50.917 15.0058C50.915 15.0706 50.8878 15.1936 50.8093 15.4017C50.4719 16.2968 49.0599 21.2676 48.3979 23.6342L48.3976 23.6353C48.3641 23.7598 48.3162 23.8981 48.2579 24.0186C48.1982 24.142 48.1334 24.2343 48.0714 24.2807C48.042 24.3027 48.0173 24.3113 47.9966 24.3123C47.9769 24.3132 47.9516 24.3078 47.9189 24.2843C47.8481 24.2335 47.7553 24.1072 47.6525 23.8454C47.2332 22.7773 44.0567 15.1018 42.5212 11.3985C42.461 11.2495 42.3198 11.0614 42.089 11.0456C41.8599 11.0299 41.5946 11.1884 41.2954 11.5966C40.9325 12.0918 40.2598 12.9524 39.6584 13.7218C39.2886 14.1948 38.9458 14.6334 38.7186 14.9313C38.7098 14.9428 38.6998 14.9556 38.6888 14.9695C38.6177 15.06 38.5084 15.1992 38.4499 15.3652C38.4151 15.4641 38.3964 15.576 38.4129 15.6976C38.4293 15.8194 38.4801 15.9436 38.5738 16.068C38.9063 16.509 39.2674 17.0616 39.4062 17.2825L39.4119 17.2917L39.4192 17.2995C39.5146 17.4007 39.6791 17.5278 39.8632 17.5661C39.9575 17.5856 40.0603 17.5824 40.1603 17.5364C40.2606 17.4902 40.3489 17.4052 40.4207 17.278C40.669 16.839 41.1477 16.1393 41.3571 15.843L41.3628 15.835L41.367 15.826C41.3811 15.7961 41.4005 15.7641 41.4225 15.7381C41.4453 15.7112 41.4651 15.6977 41.4785 15.6931C41.487 15.6901 41.4949 15.6892 41.5095 15.6991C41.5288 15.7122 41.5609 15.7461 41.5985 15.826C41.7023 16.0463 42.0417 16.8219 42.3694 17.5731C42.4254 17.7016 42.4811 17.8294 42.5353 17.9535C42.7964 18.5523 43.0203 19.0659 43.0644 19.1596C43.0709 19.1733 43.0774 19.1869 43.084 19.2005C43.1347 19.306 43.1843 19.409 43.1843 19.5405C43.1843 19.682 43.1242 19.8777 42.8746 20.1426C42.7813 20.2416 42.6646 20.3827 42.5354 20.539C42.4795 20.6065 42.4214 20.6769 42.3617 20.7479C42.161 20.9869 41.9391 21.2392 41.7156 21.4424C41.4896 21.6481 41.2744 21.7917 41.0877 21.831C40.997 21.8501 40.9163 21.8439 40.8436 21.8112C40.7708 21.7785 40.6972 21.7151 40.6275 21.6041C40.1266 20.8068 32.7445 7.87091 29.1129 1.49703ZM28.0668 1.60684C28.1663 1.41682 28.2615 1.31467 28.3432 1.2648C28.4215 1.21704 28.4933 1.21343 28.561 1.23447C28.6323 1.25663 28.7038 1.30802 28.77 1.3783C28.8357 1.44799 28.8911 1.531 28.9308 1.60684L28.9318 1.60862L28.9328 1.61037C32.5613 7.97889 39.9489 20.9246 40.4532 21.7273C40.5406 21.8664 40.6437 21.9627 40.7619 22.0159C40.8802 22.0691 41.0048 22.0751 41.1285 22.049C41.3704 21.9981 41.6199 21.8222 41.8519 21.6112C42.0866 21.3977 42.3162 21.1361 42.518 20.8958C42.5816 20.8202 42.6419 20.7472 42.6988 20.6783C42.8252 20.5255 42.9344 20.3934 43.0227 20.2997C43.2967 20.009 43.3937 19.7601 43.3937 19.5405C43.3937 19.3517 43.3197 19.2 43.2695 19.0971C43.2632 19.084 43.2572 19.0717 43.2518 19.0602C43.2092 18.9698 42.987 18.4604 42.7256 17.8607C42.6715 17.7366 42.6157 17.6087 42.5594 17.4798C42.2327 16.7309 41.8915 15.9508 41.7858 15.7266C41.7397 15.6287 41.6863 15.5552 41.6222 15.5118C41.5535 15.4652 41.4803 15.4587 41.4137 15.4817C41.3521 15.503 41.3029 15.5469 41.2668 15.5895C41.2325 15.6299 41.2046 15.6755 41.1842 15.7173C40.9719 16.018 40.4934 16.7176 40.2412 17.1637C40.1874 17.2588 40.13 17.3081 40.0769 17.3325C40.0236 17.3571 39.9653 17.3608 39.9034 17.348C39.779 17.3221 39.654 17.2318 39.5744 17.1497C39.4298 16.9202 39.0704 16.3709 38.7374 15.9291C38.6636 15.8313 38.6306 15.7433 38.6202 15.666C38.6097 15.5885 38.621 15.5144 38.6461 15.4431C38.691 15.3155 38.7744 15.2086 38.8466 15.1159C38.8586 15.1006 38.8702 15.0857 38.8814 15.0711C39.105 14.7779 39.4455 14.3422 39.8141 13.8707C40.4177 13.0985 41.0965 12.23 41.4607 11.7331C41.7479 11.3412 41.9538 11.259 42.0755 11.2674C42.1952 11.2756 42.2844 11.3762 42.3289 11.4864L42.3293 11.4874C43.8654 15.1923 47.0409 22.8654 47.4592 23.9308C47.5658 24.2024 47.6781 24.3798 47.8015 24.4684C47.8659 24.5146 47.9349 24.5377 48.006 24.5343C48.0761 24.531 48.1387 24.5023 48.1921 24.4623C48.2959 24.3846 48.3795 24.2537 48.4442 24.1201C48.5101 23.9839 48.5625 23.8317 48.5988 23.697C49.2631 21.3223 50.6711 16.3669 51.0038 15.4842C51.0878 15.2614 51.1287 15.0994 51.1264 14.9891C51.1253 14.9336 51.1128 14.8694 51.067 14.8233C51.0183 14.7741 50.957 14.77 50.9113 14.7776C50.8663 14.785 50.8214 14.8056 50.7812 14.8288C50.7398 14.8527 50.6971 14.8832 50.6553 14.9165C50.5716 14.9831 50.4858 15.0656 50.4137 15.1421L50.4121 15.1438C49.6088 16.0334 47.8997 17.9212 47.4818 18.3646C47.2846 18.574 47.1548 18.5903 47.0839 18.5715C47.0066 18.551 46.9481 18.4762 46.9201 18.4019L46.9185 18.3976L46.9166 18.3935C46.8113 18.17 46.5377 17.6116 46.2844 17.1637C46.2308 17.0689 46.2129 16.9854 46.2145 16.9114C46.2162 16.8364 46.2383 16.7636 46.2752 16.6916C46.3372 16.5703 46.4317 16.4663 46.5221 16.3669C46.5436 16.3433 46.5648 16.3199 46.5853 16.2967C49.0969 13.4462 54.3559 7.45011 55.2796 6.29171C55.5096 6.00321 55.661 5.85534 55.7535 5.79641C55.7682 5.78706 55.7796 5.78115 55.788 5.77741C55.7909 5.79808 55.7918 5.82942 55.7882 5.87293C55.7837 5.92713 55.773 5.99187 55.7573 6.06351C55.7259 6.20667 55.6765 6.36899 55.6251 6.51428L55.6239 6.51772L55.6229 6.52123C53.4245 14.261 48.9632 29.9908 48.7114 30.9706C48.6496 31.2109 48.5866 31.3362 48.5356 31.3931C48.5118 31.4197 48.4952 31.4262 48.4869 31.4279C48.4792 31.4295 48.4682 31.4291 48.4508 31.4199C48.4106 31.3986 48.3597 31.3419 48.3066 31.2508C48.2557 31.1634 48.211 31.0587 48.1778 30.9619L48.1768 30.9589L48.1757 30.9561C47.6522 29.6597 46.8564 27.682 46.1707 25.9617C45.4834 24.2376 44.9101 22.7808 44.8281 22.5195C44.7819 22.3725 44.7148 22.2656 44.6242 22.2046C44.5309 22.1418 44.4294 22.1386 44.3384 22.1638C44.1669 22.2113 44.009 22.3649 43.9171 22.4813C42.2418 24.4073 38.7453 28.4363 38.158 29.1487C38.0096 29.3287 37.9046 29.4727 37.8333 29.5875C37.7631 29.7003 37.7207 29.7925 37.7052 29.8677C37.6895 29.9436 37.6975 30.0353 37.7738 30.0873C37.8283 30.1245 37.8914 30.1203 37.9343 30.1109H42.0063C42.1445 30.1109 42.2558 30.0806 42.3354 30.0142C42.4183 29.945 42.4517 29.8495 42.4564 29.7556C42.461 29.6649 42.4394 29.5721 42.4104 29.4914C42.382 29.4121 42.3439 29.3376 42.3065 29.2772C42.2303 29.1173 42.0044 28.7081 41.6692 28.2635C41.3646 27.8594 41.4234 27.5854 41.4608 27.5133L41.4612 27.5129L41.4619 27.5122L41.4626 27.5114L41.464 27.5099L41.4647 27.5092L41.4654 27.5084L41.4661 27.5076L41.4669 27.5069L41.4683 27.5053L41.4691 27.5045L41.4698 27.5037L41.4706 27.5029L41.4736 27.4997L41.4744 27.4989L41.4752 27.498L41.476 27.4972L41.4768 27.4963L41.4784 27.4946L41.48 27.4929L41.4816 27.4912L41.4825 27.4903L41.4833 27.4894L41.4902 27.4821L41.4911 27.4812L41.5158 27.455L41.5473 27.4215L41.5497 27.419L41.5532 27.4152L41.5544 27.414L41.5568 27.4114L41.558 27.4101L41.5592 27.4089L41.5897 27.3765L41.591 27.3751L41.5924 27.3737L41.5937 27.3723L41.595 27.3708L41.5964 27.3694L41.5978 27.368L41.5991 27.3665L41.6273 27.3366L41.6288 27.335L41.6606 27.3012L41.6622 27.2996L41.6638 27.2979L41.6978 27.2617L41.8403 27.1106L41.8505 27.0998L41.8608 27.0888L41.8944 27.0531L41.8966 27.0508L41.9095 27.0371L41.9117 27.0348L41.9426 27.002L42.3945 26.5225C42.6309 26.2715 42.8054 26.2415 42.9174 26.2688C43.0367 26.2979 43.1255 26.4009 43.1692 26.4936L43.1704 26.4962L43.1717 26.4987C43.904 27.8679 45.4761 30.7895 45.8965 31.5032C46.1033 31.8545 46.1259 32.0425 46.106 32.1292C46.0907 32.1962 46.0424 32.2222 45.9852 32.2222H45.9831L45.981 32.2222C41.7204 32.4076 33.0404 32.7778 32.3731 32.7778C32.2087 32.7778 32.167 32.739 32.1602 32.7286C32.1572 32.724 32.1447 32.6944 32.1881 32.6076C32.2698 32.444 32.4746 32.2338 32.6479 32.0867L32.6544 32.0812L32.66 32.0747C33.5324 31.0562 34.8829 29.4898 36.0989 28.1002C37.3177 26.7075 38.3947 25.5003 38.7246 25.1941C39.0766 24.8671 39.2151 24.5356 39.2339 24.2458C39.2521 23.9644 39.1567 23.7342 39.0556 23.6017C38.8434 23.2266 38.3234 22.3144 37.9067 21.6068C37.7966 21.4197 37.6823 21.2954 37.564 21.2266C37.4425 21.1559 37.3221 21.147 37.2124 21.1813C37.0088 21.245 36.8623 21.4498 36.7868 21.6058C34.4111 24.8314 29.5257 31.4656 28.9397 32.2651C28.6538 32.6552 28.4593 32.6888 28.3495 32.6523C28.2884 32.6319 28.2321 32.5848 28.1833 32.5182C28.1346 32.4518 28.0978 32.3719 28.0746 32.2981L28.069 32.2802L28.058 32.2652C25.6484 28.9668 20.7293 22.221 20.312 21.6011C20.0911 21.2728 19.8626 21.1418 19.6515 21.1407C19.445 21.1395 19.2864 21.263 19.2027 21.374L19.1994 21.3784L19.1965 21.3831C19.0041 21.6986 18.7051 22.1997 18.433 22.6778C18.1631 23.1522 17.9136 23.6144 17.826 23.8468C17.6381 24.3452 17.8979 24.7235 18.0616 24.8593C19.9472 27.0456 23.8369 31.5434 24.3411 32.0785C24.4627 32.2075 24.5297 32.3058 24.5624 32.3775C24.5951 32.4491 24.5886 32.4821 24.5846 32.493C24.5805 32.5043 24.5686 32.5202 24.5353 32.5343C24.5024 32.5483 24.4594 32.5554 24.4164 32.5555C20.4732 32.4444 12.3335 32.2222 11.3266 32.2222C11.0816 32.2222 10.9471 32.1806 10.8795 32.1319C10.8479 32.1092 10.8321 32.0858 10.8239 32.0638C10.8154 32.0411 10.8122 32.0121 10.8175 31.9748C10.8286 31.8969 10.8742 31.7997 10.9458 31.6956C11.0159 31.5938 11.104 31.4952 11.1872 31.4158L11.1987 31.4048L11.2067 31.3908C11.9042 30.1694 13.4063 27.5225 13.8264 26.7201C14.03 26.3312 14.2057 26.2345 14.3174 26.227C14.4307 26.2194 14.531 26.3003 14.5901 26.3944L14.5959 26.4036L14.6032 26.4113C14.6695 26.4817 14.9114 26.7601 15.3298 27.2929C15.7303 27.803 15.5962 28.0895 15.5456 28.1432C15.3659 28.334 14.9269 28.8677 14.5863 29.5001C14.4979 29.6644 14.4551 29.8066 14.4574 29.9293C14.4597 30.058 14.5116 30.1562 14.5914 30.2231C14.6672 30.2865 14.7623 30.3172 14.8506 30.3309C14.9376 30.3444 15.0265 30.3426 15.1024 30.3331H18.9703C19.1657 30.3331 19.3125 30.3048 19.4155 30.2475C19.5251 30.1865 19.5846 30.0923 19.593 29.9808C19.6007 29.8792 19.5644 29.7794 19.5206 29.6981C19.476 29.6152 19.4166 29.5385 19.3597 29.478C17.7894 27.7004 14.4385 23.9221 13.5995 23.0317C13.1716 22.5777 12.82 22.4499 12.5423 22.5308C12.273 22.6093 12.1247 22.8698 12.066 23.0711C11.2627 24.9616 9.53314 29.0914 9.02962 30.5163C8.9051 30.8687 8.79606 31.0654 8.70811 31.1612C8.66506 31.2081 8.63352 31.2237 8.61438 31.228C8.59811 31.2317 8.58221 31.2294 8.56192 31.2162C8.51247 31.1841 8.45557 31.0987 8.40282 30.963C8.35236 30.8332 8.31349 30.678 8.2882 30.5349L8.28714 30.5289L8.28548 30.5231C6.15684 23.0795 1.79326 7.85351 1.37383 6.51817C1.26969 6.18663 1.22279 5.97215 1.21191 5.84204C1.2088 5.80482 1.20898 5.77798 1.21047 5.75929C1.233 5.77254 1.26128 5.79428 1.29413 5.82459C1.36286 5.88801 1.43917 5.97733 1.50685 6.06712L1.50904 6.07001L10.6211 16.6292C10.7595 16.7896 10.7237 16.9211 10.7113 16.945L10.7082 16.951L10.0775 18.6242C10.0407 18.7218 10.0013 18.765 9.97196 18.7835C9.9449 18.8007 9.91452 18.8044 9.87625 18.794C9.79055 18.7706 9.69319 18.6822 9.62826 18.596L9.6254 18.5922L9.62224 18.5887C8.8887 17.7732 7.27799 15.9676 6.69345 15.2587C6.54584 15.0796 6.429 14.9676 6.33549 14.9159C6.2887 14.89 6.23348 14.8712 6.17682 14.8829C6.11348 14.896 6.07335 14.9415 6.05172 14.9892C6.03172 15.0333 6.02487 15.0835 6.02309 15.1288C6.02125 15.1758 6.02458 15.2266 6.03078 15.2774C6.04317 15.3788 6.06824 15.4895 6.09543 15.5857C6.79409 18.1066 8.23098 23.318 8.39783 24.0262C8.44225 24.2148 8.51075 24.3508 8.60816 24.4294C8.71114 24.5125 8.82786 24.517 8.93273 24.4835C9.03394 24.4511 9.12945 24.3826 9.21011 24.3081C9.29189 24.2327 9.36487 24.1451 9.42085 24.0659L9.42798 24.0558L9.4328 24.0443C11.0719 20.1212 14.4178 12.0857 14.6706 11.3705C14.7298 11.2029 14.7927 11.1193 14.8446 11.0811C14.8912 11.0467 14.9374 11.0426 14.9889 11.0597C15.0451 11.0784 15.1069 11.1228 15.1679 11.186C15.228 11.2482 15.2814 11.3224 15.3214 11.3904L15.3243 11.3952L15.3276 11.3997C16.0598 12.3989 17.6319 14.5344 18.0522 15.0696C18.2545 15.3272 18.3191 15.5103 18.3294 15.6257C18.3396 15.7391 18.2985 15.7847 18.284 15.795L18.2644 15.8088L18.2523 15.8303C18.1472 16.0161 17.8536 16.5428 17.5182 17.1658C17.4389 17.3131 17.3685 17.3893 17.3134 17.425C17.2625 17.458 17.2231 17.458 17.1893 17.4461C17.1506 17.4324 17.1089 17.3988 17.0683 17.3469C17.0285 17.2959 16.9954 17.2342 16.9724 17.1771L16.9671 17.164L16.9588 17.1527C16.7145 16.8194 16.1689 16.027 15.9227 15.5044C15.8556 15.362 15.7808 15.2617 15.6959 15.2042C15.6064 15.1435 15.5129 15.1356 15.4275 15.1651C15.3472 15.1928 15.2807 15.2511 15.23 15.311C15.1783 15.3718 15.1367 15.4417 15.1071 15.5044L15.1054 15.5081L15.1039 15.512C14.7893 16.3281 14.0788 18.1314 13.7459 18.838C13.567 19.2177 13.5634 19.5439 13.6404 19.7994C13.7152 20.0477 13.8639 20.2219 13.986 20.3101C14.1946 20.4952 14.7525 21.0368 15.3314 21.7389C15.6389 22.1118 15.9291 22.217 16.1788 22.1514C16.4154 22.0892 16.5759 21.8824 16.6537 21.7195C20.2832 15.3493 27.6468 2.40912 28.0668 1.60684ZM29.2129 6.15624C29.0855 5.96319 28.8579 5.71509 28.591 5.64027C28.4527 5.6015 28.3031 5.60937 28.1579 5.69598C28.0153 5.78106 27.8873 5.93592 27.7769 6.17027C27.3608 7.05342 23.3587 14.2185 21.3999 17.7081C21.2865 17.8316 21.1416 18.0467 21.0546 18.3123C20.9646 18.587 20.9345 18.9221 21.073 19.2648L21.0783 19.278L27.6872 28.2955L27.6918 28.3004C27.8246 28.4413 28.0578 28.6116 28.3318 28.6619C28.614 28.7138 28.9306 28.6358 29.2066 28.2942C29.7104 27.6704 33.8001 22.0534 35.793 19.3078C35.9192 19.2318 36.0535 19.0741 36.0939 18.8321C36.1367 18.5754 36.0715 18.2409 35.8109 17.826C35.3103 17.0291 31.208 9.72158 29.2171 6.16323L29.2151 6.15965L29.2129 6.15624ZM27.9642 6.26966C28.0632 6.05953 28.1665 5.94585 28.2606 5.88971C28.3521 5.8351 28.4446 5.82909 28.5375 5.85514C28.7319 5.90962 28.9219 6.10388 29.0391 6.28035C31.0279 9.83508 35.1322 17.1463 35.6366 17.9493C35.8786 18.3344 35.9181 18.6111 35.8877 18.7933C35.8572 18.9758 35.7541 19.0808 35.6769 19.1217L35.6555 19.1331L35.6408 19.1533C33.6497 21.8965 29.5478 27.5302 29.0476 28.1495C28.821 28.4301 28.5791 28.4818 28.3675 28.4429C28.1505 28.4031 27.9567 28.2654 27.8444 28.148L21.2603 19.1644C21.1533 18.8893 21.1761 18.6181 21.2524 18.3853C21.3305 18.1471 21.4627 17.9556 21.5574 17.8551L21.5666 17.8453L21.5733 17.8334C23.5259 14.3551 27.5431 7.16346 27.9642 6.26966ZM3.36866 8.22013C3.11736 7.86454 1.79803 6.33107 1.27448 5.77547C0.960357 5.66435 1.58861 7.88676 2.11215 9.33133C1.69331 7.99788 2.90783 7.66452 3.36866 8.22013ZM8.4994 31.2221C8.33187 31.1332 7.41741 27.8885 7.24289 27.2217C7.91303 29.0886 9.93042 28.2218 10.2795 27.444C10.1049 27.8885 9.08577 30.5331 8.91824 30.8887C8.70882 31.3332 8.70882 31.3332 8.4994 31.2221ZM7.97586 16.7764C8.63901 17.5172 10.0491 18.5543 10.3842 17.6654C10.4889 17.332 10.2376 16.2208 8.81353 14.4429C9.33707 15.0355 10.6145 16.3764 10.6983 16.5542C10.803 16.7764 10.803 16.8875 10.6983 17.2209C10.6504 17.3733 10.566 17.4725 10.496 17.5434C10.4334 17.8163 10.2863 18.3302 10.1747 18.6655C10.1398 18.8507 9.94439 19.0877 9.44178 18.5543C8.93918 18.021 8.25508 17.1468 7.97586 16.7764ZM30.3836 30.3331C28.9595 32.2889 27.2074 31.148 26.5094 30.3331C26.7537 30.6665 27.368 31.511 27.8706 32.2222C28.4988 33.1112 28.6035 32.6667 29.0224 32.2222C29.4412 31.7777 32.1636 27.8885 30.3836 30.3331ZM33.7739 30.7803L32.0986 32.5582C31.9939 32.7064 31.9311 32.9805 32.5174 32.8916C33.1038 32.8027 34.123 32.7805 34.4022 32.7805C33.739 32.6694 32.4337 32.2027 33.7739 30.7803ZM40.8941 12.4454C41.0687 12.1861 41.5433 11.4231 41.6271 11.3342C41.7318 11.2231 41.8365 11.112 42.0459 11.112C42.2554 11.112 42.4648 11.3342 42.5695 11.6676C42.6533 11.9343 42.744 12.4825 42.7789 12.5565C42.2554 11.6676 41.4805 11.7342 40.8941 12.4454ZM53.5639 8.22284C53.8432 7.88948 54.5901 7.00051 54.9252 6.55603C55.344 6.00042 55.8675 5.55594 55.8675 5.66706V6.00043C55.8675 6.17822 55.3091 8.0006 55.0299 8.88956C55.0648 8.25988 54.7367 7.33387 53.5639 8.22284ZM47.3861 29.0024C47.6653 29.7802 48.2657 31.5582 48.4332 31.5582C48.6426 31.5582 48.7473 31.2248 48.852 30.7803C48.9358 30.4247 49.1662 29.3728 49.2709 29.0024C48.9218 29.558 48.0562 30.3358 47.3861 29.0024ZM47.2814 15.4457C46.9324 15.742 46.1296 16.4235 46.1296 16.7791C46.1296 17.2236 46.1296 17.1125 46.2343 17.3347C46.3181 17.5125 46.5833 17.7792 46.6531 17.8903C46.5484 17.6681 46.1775 17.2236 47.2814 15.4457ZM46.5484 17.6681C46.6182 17.8903 46.7788 18.4682 46.8626 18.5571C46.9673 18.6682 47.2814 18.7793 47.4908 18.5571C47.6583 18.3793 48.3285 17.4829 48.6426 17.1125C48.1191 17.6681 46.9673 18.5571 46.5484 17.6681Z"
        stroke="#ffa01c" stroke-width="0.5"/>
    <path
        d="M68.975 16V7.09C68.975 6.03 69.49 5.5 70.52 5.5H75.38C76.3 5.5 76.955 5.77 77.345 6.31C77.735 6.85 77.93 7.64 77.93 8.68C77.93 9.76 77.745 10.59 77.375 11.17C77.015 11.74 76.405 12.025 75.545 12.025H73.85V12.1L78.155 16H76.295L72.275 12.31C72.015 12.07 71.885 11.85 71.885 11.65V11.41C71.885 11.06 72.095 10.885 72.515 10.885H75.08C75.66 10.885 76.035 10.705 76.205 10.345C76.385 9.985 76.475 9.43 76.475 8.68C76.475 7.96 76.37 7.44 76.16 7.12C75.95 6.8 75.515 6.64 74.855 6.64H71.12C70.86 6.64 70.67 6.695 70.55 6.805C70.43 6.905 70.37 7.09 70.37 7.36V16H68.975ZM86.087 5.38C88.027 5.38 89.382 5.775 90.152 6.565C90.932 7.355 91.322 8.75 91.322 10.75C91.322 12.75 90.932 14.145 90.152 14.935C89.382 15.725 88.027 16.12 86.087 16.12C84.157 16.12 82.802 15.725 82.022 14.935C81.242 14.145 80.852 12.75 80.852 10.75C80.852 8.75 81.242 7.355 82.022 6.565C82.802 5.775 84.157 5.38 86.087 5.38ZM83.087 7.435C82.567 8.035 82.307 9.14 82.307 10.75C82.307 12.36 82.567 13.47 83.087 14.08C83.617 14.68 84.617 14.98 86.087 14.98C87.557 14.98 88.552 14.68 89.072 14.08C89.602 13.47 89.867 12.36 89.867 10.75C89.867 9.14 89.602 8.035 89.072 7.435C88.552 6.825 87.557 6.52 86.087 6.52C84.617 6.52 83.617 6.825 83.087 7.435ZM98.2118 11.41L101.782 5.5H103.312L98.9168 12.67V16H97.5218V12.67L93.1268 5.5H94.6568L98.2118 11.41ZM103.385 16L107.375 6.535C107.545 6.135 107.735 5.845 107.945 5.665C108.155 5.475 108.445 5.38 108.815 5.38C109.175 5.38 109.465 5.475 109.685 5.665C109.915 5.855 110.11 6.145 110.27 6.535L114.245 16H112.775L111.59 13.15H106.025L104.855 16H103.385ZM108.455 7.195L106.445 12.01H111.17L109.19 7.195C109.04 6.855 108.915 6.685 108.815 6.685C108.785 6.685 108.755 6.695 108.725 6.715C108.705 6.725 108.685 6.745 108.665 6.775C108.645 6.795 108.62 6.825 108.59 6.865C108.57 6.905 108.555 6.94 108.545 6.97C108.535 7 108.52 7.04 108.5 7.09C108.48 7.14 108.465 7.175 108.455 7.195ZM124.371 16H117.831C116.941 16 116.496 15.58 116.496 14.74V5.5H117.891V14.23C117.891 14.47 117.936 14.635 118.026 14.725C118.126 14.815 118.301 14.86 118.551 14.86H124.371V16ZM67.85 33L71.84 23.535C72.01 23.135 72.2 22.845 72.41 22.665C72.62 22.475 72.91 22.38 73.28 22.38C73.64 22.38 73.93 22.475 74.15 22.665C74.38 22.855 74.575 23.145 74.735 23.535L78.71 33H77.24L76.055 30.15H70.49L69.32 33H67.85ZM72.92 24.195L70.91 29.01H75.635L73.655 24.195C73.505 23.855 73.38 23.685 73.28 23.685C73.25 23.685 73.22 23.695 73.19 23.715C73.17 23.725 73.15 23.745 73.13 23.775C73.11 23.795 73.085 23.825 73.055 23.865C73.035 23.905 73.02 23.94 73.01 23.97C73 24 72.985 24.04 72.965 24.09C72.945 24.14 72.93 24.175 72.92 24.195ZM83.0165 31.38C83.4565 31.78 84.2015 31.98 85.2515 31.98C86.3015 31.98 87.0465 31.78 87.4865 31.38C87.9265 30.98 88.1465 30.295 88.1465 29.325V22.5H89.5415V29.46C89.5415 30.78 89.1765 31.72 88.4465 32.28C87.7165 32.84 86.6515 33.12 85.2515 33.12C83.8515 33.12 82.7865 32.84 82.0565 32.28C81.3265 31.72 80.9615 30.78 80.9615 29.46V22.5H82.3565V29.325C82.3565 30.295 82.5765 30.98 83.0165 31.38ZM101.289 33H96.9988C96.3188 33 95.7188 32.91 95.1988 32.73C94.6788 32.55 94.2588 32.305 93.9388 31.995C93.6188 31.685 93.3538 31.305 93.1438 30.855C92.9438 30.395 92.8038 29.915 92.7238 29.415C92.6538 28.915 92.6188 28.355 92.6188 27.735C92.6188 26.945 92.6838 26.255 92.8138 25.665C92.9438 25.075 93.1688 24.53 93.4888 24.03C93.8088 23.53 94.2688 23.15 94.8688 22.89C95.4688 22.63 96.2038 22.5 97.0738 22.5H101.139V23.64H97.5388C96.2488 23.64 95.3488 23.96 94.8388 24.6C94.3288 25.23 94.0738 26.275 94.0738 27.735C94.0738 29.195 94.3238 30.25 94.8238 30.9C95.3238 31.54 96.2038 31.86 97.4638 31.86H101.289V33ZM109.028 33H107.633V23.64H103.388V22.5H113.273V23.64H109.028V33ZM117.071 33H115.676V22.5H117.071V33ZM125.376 22.38C127.316 22.38 128.671 22.775 129.441 23.565C130.221 24.355 130.611 25.75 130.611 27.75C130.611 29.75 130.221 31.145 129.441 31.935C128.671 32.725 127.316 33.12 125.376 33.12C123.446 33.12 122.091 32.725 121.311 31.935C120.531 31.145 120.141 29.75 120.141 27.75C120.141 25.75 120.531 24.355 121.311 23.565C122.091 22.775 123.446 22.38 125.376 22.38ZM122.376 24.435C121.856 25.035 121.596 26.14 121.596 27.75C121.596 29.36 121.856 30.47 122.376 31.08C122.906 31.68 123.906 31.98 125.376 31.98C126.846 31.98 127.841 31.68 128.361 31.08C128.891 30.47 129.156 29.36 129.156 27.75C129.156 26.14 128.891 25.035 128.361 24.435C127.841 23.825 126.846 23.52 125.376 23.52C123.906 23.52 122.906 23.825 122.376 24.435ZM143.152 22.5V31.8C143.152 32.23 143.037 32.56 142.807 32.79C142.587 33.01 142.282 33.12 141.892 33.12C141.592 33.12 141.332 33.06 141.112 32.94C140.902 32.82 140.702 32.605 140.512 32.295L135.562 24.375C135.462 24.205 135.362 24.12 135.262 24.12C135.122 24.12 135.052 24.22 135.052 24.42V33H133.687V23.625C133.687 23.185 133.812 22.87 134.062 22.68C134.322 22.48 134.627 22.38 134.977 22.38C135.557 22.38 136.007 22.635 136.327 23.145L141.322 31.125C141.432 31.295 141.527 31.38 141.607 31.38C141.727 31.38 141.787 31.295 141.787 31.125V22.5H143.152Z"
        fill="#ffa01c"/>
</svg>
